<!-- Generated by IcoMoon.io -->
<svg version="1.1" xmlns="http://www.w3.org/2000/svg" width="32" height="32" viewBox="0 0 32 32">
<title>boy</title>
<path fill="#ff967f" d="M26.591 23.568c0.003 0.548-0.28 1.121-0.84 1.279-1.333 0.376-3.415-0.064-4.65-0.449-0.876-0.273-2.3-0.79-2.972-1.172-0.033-0.004-0.066-0.022-0.1-0.053-0.093-0.083-0.205-0.151-0.303-0.23-0.112-0.089-0.314-0.323-0.495-0.596-0.216-0.325-0.402-0.705-0.371-0.956 0.035-0.279-0.016-0.569-0.016-0.85 0-0.754 0.004-1.509 0.004-2.263 0-0.137-0.005-0.196 0.071-0.26-0.077-0.119-0.077-0.043-0.063-0.862 0.003-0.179 0.255-0.087 0.386 0.091 0.52 0.703 0.653 1.527 0.769 2.371 0.052 0.384 0.113 0.805 0.243 1.172 0.188 0.531 0.334 0.771 0.579 0.9 0.196 0.103 0.458 0.134 0.856 0.185 1.076 0.136 2.092 0.102 2.931 0.007 1.306-0.147 2.183-0.447 2.183-0.504 0-0.001 0-0.002-0.001-0.003-0.029-0.041-0.033 0.012-1.192 0.286-0.073 0.017-0.118-0.008-0.154-0.071-0.265-0.457-0.479-0.764-0.789-1.453-0.076-0.171-0.202-0.372-0.233-0.566-0.004-0.025-0.006-0.053-0.006-0.082 0 0 0-0 0-0v0c-0.001-0.252 0.339-2.646 1.019-4.694 0.018-0.054 0.049-0.127 0.096-0.095 0.457 0.314 3.038 6.056 3.049 8.87zM16.774 18.121c-0.008 3.48 0.031 3.279-0.118 3.573-0.090 0.176-0.171 0.318-0.259 0.456l0.013-0.022c-0.031 0.052-0.056 0.091-0.083 0.13l0.006-0.009c-0.062 0.377-0.372 0.67-0.696 0.872-0.066 0.070-0.12 0.112-0.18 0.105-1.078 0.603-3.516 1.504-5.58 1.735-0.29 0.032-1.308 0.114-1.892-0.066-0.556-0.171-0.812-0.486-0.91-0.881-0.533-2.155 2.816-9.883 3.067-9.275 0.129 0.313 0.728 2.253 1.039 4.768 0.003 0.018 0.005 0.037 0.007 0.054 0.003 0.027 0.003 0.052-0.015 0.074-0.161 0.204 0.046 0.136-0.977 1.887-0.081 0.14-0.095 0.158-0.227 0.133-0.856-0.163-1.137-0.347-1.155-0.275-0.026 0.103 1.031 0.342 2.121 0.472 0.498 0.059 1.003 0.097 1.414 0.088 1.056-0.024 1.488-0.073 2.406-0.193 0.022-0.022 0.043-0.043 0.063-0.065 0.969-1.017 0.523-1.857 1.127-3.613 0.298-0.867 0.861-1.329 0.862-0.834 0.002 0.57 0.034 0.665-0.112 0.784 0.045 0.020 0.079 0.050 0.079 0.103zM19.574 13.080c0.021-0.059 0.004-0.088-0.056-0.106-0.652-0.198-2.443-0.395-2.718-0.394-0.499 0.001-1.842 0.176-2.672 0.384-0.109 0.027-0.121 0.042-0.063 0.201 1.082 2.903 4.477 2.879 5.509-0.084z"></path>
<path fill="#fc09b2" d="M22.461 27.383c0.396 2.397 0.889 2.805 0.443 3.032-0.085 0.047-0.253 0.13-0.422 0.209l-0.089 0.038v0.001c-0.048 0.023-0.097 0.045-0.145 0.067-0.1 0.049-0.256 0.116-0.415 0.178l-0.060 0.021c-0.057 0.022-0.114 0.044-0.171 0.066 0.006 0.002-0.082 0.034-0.17 0.065l-0.095 0.029c-0.39 0.133-0.829 0.26-1.347 0.375-0.084 0.024-0.284 0.066-0.486 0.106l-0.108 0.017c-0.098 0.020-0.199 0.038-0.303 0.056-0.836 0.147-1.629 0.267-2.496 0.246-0.267-0.006-0.502-0.024-0.76-0.053l-0.157-0.019c-0.027-0.003-0.054-0.006-0.082-0.010-0.057-0.007-0.114-0.014-0.171-0.022l-0.091-0.012c-1.376-0.189-2.764-0.511-4.046-1.067-0.115-0.049-0.462-0.216-0.573-0.287-0.023-0.015-0.041-0.027-0.059-0.041l0.003 0.002v-0.001c-0.009-0.006-0.018-0.012-0.025-0.020-0.035-0.029-0.063-0.061-0.080-0.095-0.003-0.004-0.005-0.008-0.007-0.013l-0-0c-0.002-0.003-0.003-0.006-0.004-0.009-0.005-0.010-0.009-0.021-0.011-0.033l-0-0.001c-0.004-0.012-0.007-0.027-0.008-0.042l-0-0.001c-0.002-0.014-0.003-0.029-0.003-0.045 0-0.001 0-0.001 0-0.002v0c0-0.019 0.001-0.038 0.003-0.057 0.002-0.019 0.004-0.038 0.008-0.057 0.006-0.040 0.016-0.083 0.029-0.131 0.001-0.004 0.002-0.007 0.003-0.011 0.114-0.438 0.432-1.265 0.682-3.092 0.007-0.053 0.015-0.105 0.021-0.156 0.007-0.059 0.016-0.119 0.023-0.18 0.011-0.098 0.023-0.194 0.034-0.292 0.010-0.093 0.021-0.187 0.031-0.286 0.074-0.674 0.060-0.66 0.066-0.832 0.015-0.432-0.081-0.156 1.512-0.694 0.106-0.035 0.105-0.035 0.138-0.047 0.046-0.016 0.094-0.032 0.143-0.050 0.093-0.033 0.193-0.068 0.298-0.105 0.497-0.161 0.61-0.203 0.724-0.244l-0.381 0.123c0.413-0.149 0.868-0.326 1.28-0.533 0.066-0.032 0.105-0.053 0.145-0.074l-0.024 0.012c0.062-0.032 0.103-0.054 0.143-0.077l-0.018 0.010c0.155-0.087 0.316-0.187 0.462-0.298 0.128-0.097 0.241-0.2 0.329-0.309 0.019-0.023 0.037-0.045 0.053-0.068 0.018-0.023 0.033-0.046 0.048-0.069 0.094-0.148 0.144-0.304 0.138-0.469 0.075-0.116 0.156-0.258 0.232-0.403l0.014-0.030c0.103-0.203 0.116-0.17 0.117-1.287v-0.207c0-0.484-0.001-1.15 0.001-2.079 0-0.053-0.034-0.083-0.079-0.103 0.136-0.11 0.117-0.2 0.113-0.673v-0.005c-0.001-0.033-0.001-0.068-0.001-0.105 0-0.139-0.045-0.202-0.115-0.203h-0.001c-0.083 0-0.202 0.087-0.326 0.241-0.047 0.058-0.093 0.123-0.135 0.19l-0.005 0.008v0.001c-0.061 0.096-0.121 0.208-0.173 0.325l-0.007 0.017c-0.028 0.061-0.062 0.145-0.093 0.231l-0.007 0.024c-0.175 0.51-0.262 0.941-0.32 1.323-0.082 0.531-0.109 0.963-0.243 1.371v0.001c-0.103 0.311-0.267 0.606-0.564 0.918-0.099 0.014-0.204 0.027-0.316 0.041-0.117 0.015-0.245 0.028-0.374 0.042-0.060 0.006-0.122 0.012-0.182 0.018-0.004 0.001-0.007 0.001-0.011 0.001l-0.096 0.009c-0.082 0.007-0.164 0.015-0.238 0.021-0.025 0.002-0.049 0.004-0.073 0.006-0.065 0.006-0.125 0.010-0.177 0.015-0.011 0.001-0.022 0.002-0.033 0.003-0.023 0.001-0.044 0.003-0.063 0.004-0.009 0.001-0.020 0.001-0.030 0.002-0.014 0.001-0.026 0.001-0.038 0.002-0.308 0.019-0.557 0.012-1.541 0.006-0.134-0.001-0.191 0.001-0.197-0.113-0.026-0.439-0.050-0.76-0.078-1.081l0.011 0.151c-0.028-0.36-0.042-0.52-0.057-0.679l0.017 0.215c-0.006-0.064-0.012-0.128-0.019-0.191-0.007-0.065-0.014-0.126-0.020-0.188v-0.001c-0.17-1.604-0.42-2.837-0.779-4.146-0.027-0.098-0.054-0.196-0.082-0.294-0.019-0.067-0.038-0.134-0.057-0.201-0.025-0.088-0.051-0.176-0.077-0.266-0.034-0.116-0.070-0.232-0.105-0.351-0.033-0.109-0.031-0.127 0.052-0.186 0.181-0.125 0.432-0.302 1.068-0.593 0.213-0.103 0.523-0.234 0.838-0.354l0.101-0.034c0.498-0.189 0.952-0.332 1.254-0.418 0.038-0.010 0.071-0.021 0.102-0.029 0.136-0.037 0.228-0.058 0.266-0.065h0.004c0.031-0.004 0.058 0.008 0.073 0.037 0.001 0.002 0.002 0.003 0.003 0.005 0.023 0.048 0.044 0.095 0.062 0.144 0.014 0.039 0.028 0.076 0.044 0.114 0.545 1.377 1.675 2.083 2.802 2.055 0.065-0.001 0.128-0.005 0.19-0.012l-0.009 0.001c0.061-0.005 0.112-0.012 0.163-0.019l-0.014 0.002h0.001c0.085-0.012 0.17-0.030 0.254-0.052 0.173-0.045 0.322-0.099 0.464-0.166l-0.016 0.007h0.001c0.165-0.077 0.306-0.159 0.439-0.251l-0.009 0.006c0.012-0.008 0.022-0.016 0.032-0.023l0.001-0.001c0.274-0.196 0.529-0.448 0.75-0.759 0.033-0.044 0.068-0.097 0.102-0.151l0.006-0.011c0.001-0.002 0.002-0.005 0.004-0.007 0.031-0.048 0.061-0.096 0.088-0.146 0.032-0.052 0.061-0.106 0.090-0.162 0.003-0.006 0.006-0.011 0.008-0.018 0.012-0.025 0.025-0.048 0.035-0.069 0.259-0.528 0.147-0.565 0.375-0.505 0.635 0.169 1.471 0.445 2.086 0.714 0.274 0.12 0.751 0.332 1.103 0.535 0.009 0.005 0.022 0.012 0.037 0.022 0.083 0.048 0.152 0.092 0.218 0.139l-0.008-0.006c0.076 0.054 0.125 0.080 0.148 0.115 0 0.001 0.001 0.001 0.001 0.002 0.075 0.117-0.136 0.346-0.553 2.155-0.308 1.332-0.515 2.622-0.636 4.205-0.016 0.21-0.026 0.371-0.033 0.495-0.003 0.025-0.009 0.116-0.014 0.207l-0.003 0.056v0.002c-0.004 0.073 0 0.116-0.033 0.14h-0.001c-0.015 0.010-0.035 0.017-0.068 0.022-0.009 0-0.019 0.001-0.029 0.002-0.042 0.004-0.1 0.005-0.175 0.005-0.137 0-0.33-0.004-0.592-0.004-0.073 0-0.143-0.001-0.214-0.002-0.964-0.009-1.684-0.089-2.224-0.161-0.121-0.064-0.216-0.152-0.305-0.291-0.077-0.12-0.15-0.276-0.227-0.484-0.016-0.040-0.030-0.081-0.046-0.125-0.13-0.367-0.191-0.788-0.243-1.172-0.014-0.096-0.027-0.191-0.041-0.286-0.076-0.511-0.174-1.011-0.378-1.476-0.092-0.211-0.206-0.415-0.35-0.609-0.13-0.177-0.383-0.27-0.386-0.091-0.015 0.819-0.015 0.743 0.063 0.862-0.076 0.064-0.071 0.123-0.071 0.26 0 0.755-0.004 1.51-0.004 2.263 0 0.258 0.043 0.522 0.023 0.78l-0.003 0.031c-0.001 0.012-0.002 0.026-0.004 0.039-0.031 0.251 0.155 0.631 0.371 0.956 0.113 0.393 0.526 0.745 0.903 0.947 0.315 0.168 0.638 0.317 0.968 0.451h0.001c0.049 0.020 0.1 0.041 0.15 0.061h0.001c0.025 0.010 0.050 0.021 0.075 0.030 0.614 0.238 1.095 0.408 1.471 0.531 0.096 0.031 0.185 0.059 0.267 0.085 0.063 0.019 0.121 0.038 0.176 0.053 0.019 0.005 0.037 0.010 0.054 0.016 0.040 0.012 0.078 0.023 0.115 0.033 0.055 0.016 0.106 0.029 0.153 0.042 0.005 0.001 0.009 0.002 0.014 0.003 0.166 0.045 0.284 0.073 0.369 0.093 0.030 0.007 0.056 0.015 0.079 0.021 0.081 0.021 0.115 0.038 0.13 0.070 0.002 0.003 0.004 0.006 0.005 0.010 0.007 0.019 0.009 0.044 0.012 0.077 0.003 0.043 0.006 0.083 0.009 0.125l0.003 0.042c0.053 0.701 0.121 1.306 0.196 1.831 0.012 0.091 0.026 0.179 0.039 0.265 0.014 0.087 0.027 0.17 0.040 0.251z"></path>
<path fill="#000e3f" opacity="0.45" d="M22.324 14.863c-0.111 0.029-0.271 0.229-0.379 0.493-0.058-0.155-0.146-0.293-0.283-0.408-0.219-0.184-0.264-0.114-0.281 0.1-0.011 0.141 0.005 0.312 0.044 0.484-0.139-0.103-0.356-0.233-0.527-0.259-0.178-0.027-0.084 0.196 0 0.355 0.221 0.418 0.841 0.742 1.026 0.701 0.010-0.007 0.031 0 0.088-0.068 0.238-0.285 0.445-0.588 0.457-0.965 0.003-0.084 0.021-0.477-0.146-0.433zM23.012 14.295c-0.066 0.543 0.11 0.728 0.395 0.272-0.023-0.036-0.323-0.231-0.395-0.272zM22.324 17.863c-0.111 0.029-0.271 0.229-0.379 0.493-0.058-0.155-0.146-0.293-0.283-0.408-0.219-0.184-0.264-0.114-0.281 0.1-0.011 0.141 0.005 0.312 0.044 0.484-0.139-0.103-0.356-0.233-0.527-0.26-0.178-0.027-0.084 0.196 0 0.355 0.221 0.418 0.841 0.742 1.026 0.701l0.001-0c0.101-0.024 0.529-0.565 0.544-1.033 0.003-0.084 0.021-0.477-0.146-0.433zM20.825 21.28c-0.094 0.054 0.087 0.389 0.144 0.467 0.026 0.036 0.056 0.070 0.087 0.103 0.070 0.001 0.141 0.002 0.214 0.002v0c0.406 0 0.65 0.009 0.767-0.001 0.166-0.014 0.109 0.035 0.182-0.923-0.093 0.084-0.197 0.24-0.274 0.429-0.058-0.155-0.146-0.293-0.283-0.408-0.219-0.184-0.264-0.114-0.281 0.1-0.011 0.141 0.005 0.312 0.044 0.484-0.142-0.105-0.494-0.313-0.6-0.252zM21.951 25.318c0.020-0.012 0.041-0.034 0.062-0.058 0.056-0.065 0.113-0.138 0.167-0.213l0.007-0.010c-0.035-0.451 0.144-0.169-1.387-0.67 0.068 0.557 1.008 1.069 1.152 0.952zM20.899 27.627c0.117 0.222 0.3 0.371 0.524 0.524 0.042 0.029 0.383 0.203 0.502 0.176l0.001-0c0.007-0.002 0.008-0 0.018-0.006 0.026-0.015 0.047-0.036 0.069-0.062 0.219-0.262 0.41-0.54 0.448-0.876-0.027-0.163-0.053-0.335-0.079-0.517-0.144-0.074-0.367 0.316-0.437 0.488-0.058-0.155-0.146-0.293-0.283-0.408-0.219-0.184-0.264-0.114-0.281 0.1-0.011 0.141 0.005 0.312 0.044 0.484-0.131-0.097-0.291-0.194-0.447-0.239-0.044-0.013-0.114-0.036-0.154-0.013-0.069 0.040 0.006 0.221 0.073 0.348zM22.324 29.861c-0.111 0.029-0.271 0.229-0.379 0.493-0.058-0.155-0.146-0.293-0.283-0.408-0.219-0.184-0.264-0.114-0.281 0.1-0.011 0.141 0.005 0.312 0.044 0.484-0.046-0.035-0.1-0.071-0.155-0.105l-0.009-0.005c-0.104-0.062-0.25-0.132-0.363-0.15-0.178-0.027-0.084 0.196 0 0.355 0.104 0.197 0.247 0.323 0.438 0.462 0.434-0.149 0.783-0.293 1.123-0.454l-0.067 0.028c0.045-0.116 0.074-0.238 0.078-0.369 0.003-0.084 0.021-0.476-0.146-0.433zM19.215 14.823c0.111-0.029 0.271-0.229 0.379-0.493 0.058 0.155 0.146 0.293 0.283 0.408 0.219 0.184 0.264 0.114 0.281-0.1 0.011-0.141-0.005-0.312-0.044-0.484 0.128 0.095 0.493 0.314 0.6 0.252 0.057-0.033 0.016-0.16-0.037-0.274-0.125-0.27-0.293-0.414-0.561-0.598-0.042-0.029-0.383-0.203-0.502-0.176-0.136 0.030-0.166 0.286-0.498 0.753-0.061 0.205-0.096 0.765 0.099 0.713zM17.991 16.329c0.010-0.007 0.031 0 0.088-0.068 0.238-0.285 0.445-0.588 0.457-0.965 0.006-0.201-0.001-0.511-0.179-0.419-0.168 0.119-0.268 0.291-0.345 0.48-0.031-0.083-0.069-0.154-0.114-0.22l0.002 0.004c-0.125 0.059-0.274 0.113-0.428 0.154l-0.019 0.004c0.008 0.076 0.021 0.155 0.040 0.234-0.092-0.068-0.191-0.131-0.296-0.181-0.149 0.023-0.247 0.026-0.329 0.028 0.085 0.51 0.878 1.005 1.123 0.95zM20.116 16.533c-0.042-0.029-0.383-0.203-0.502-0.176l-0.001 0c-0.101 0.024-0.529 0.566-0.544 1.033-0.003 0.084-0.021 0.477 0.146 0.433 0.111-0.029 0.271-0.229 0.379-0.493 0.058 0.155 0.146 0.293 0.283 0.408 0.219 0.184 0.264 0.114 0.281-0.1 0.011-0.141-0.005-0.312-0.044-0.484 0.131 0.097 0.291 0.194 0.447 0.239 0.158 0.046 0.256 0.037 0.117-0.262-0.125-0.27-0.293-0.415-0.561-0.598zM18.391 17.863c-0.112 0.029-0.271 0.229-0.379 0.493-0.058-0.155-0.146-0.292-0.284-0.408-0.056-0.047-0.1-0.077-0.136-0.093 0.204 0.465 0.302 0.965 0.378 1.476 0.007 0 0.015-0.001 0.021-0.002 0-0.001 0-0.001 0.001-0.001 0.102-0.024 0.53-0.57 0.543-1.033 0.003-0.083 0.021-0.476-0.145-0.433zM20.116 19.532c-0.042-0.029-0.383-0.203-0.502-0.176l-0.001 0c-0.007 0.002-0.009 0-0.018 0.006-0.083 0.047-0.511 0.544-0.525 1.027-0.003 0.084-0.021 0.477 0.146 0.433 0.111-0.029 0.271-0.229 0.379-0.493 0.058 0.155 0.146 0.293 0.283 0.408 0.219 0.184 0.264 0.114 0.281-0.1 0.011-0.141-0.005-0.312-0.044-0.484 0.131 0.097 0.291 0.194 0.447 0.239 0.158 0.046 0.256 0.037 0.117-0.262-0.041-0.088-0.293-0.415-0.561-0.598zM18.391 20.862c-0.028 0.007-0.058 0.025-0.091 0.052 0.077 0.207 0.15 0.364 0.227 0.484 0.004-0.033 0.007-0.068 0.008-0.102 0.003-0.084 0.021-0.477-0.145-0.434zM18.39 23.862c-0.111 0.029-0.271 0.229-0.379 0.493-0.058-0.155-0.146-0.293-0.283-0.408-0.219-0.184-0.264-0.114-0.281 0.1-0.011 0.141 0.005 0.312 0.044 0.484-0.14-0.103-0.356-0.233-0.527-0.259-0.178-0.027-0.084 0.196 0 0.355 0.22 0.417 0.841 0.742 1.026 0.701l0.001-0c0.007-0.002 0.008-0 0.018-0.006 0.087-0.050 0.511-0.545 0.525-1.027 0.003-0.084 0.021-0.477-0.146-0.433zM20.116 25.531c-0.042-0.029-0.383-0.203-0.502-0.176l-0.001 0c-0.007 0.002-0.008 0-0.018 0.006-0.083 0.047-0.511 0.544-0.525 1.027-0.003 0.084-0.021 0.477 0.146 0.433 0.111-0.029 0.271-0.229 0.379-0.493 0.058 0.155 0.146 0.293 0.283 0.408 0.219 0.184 0.264 0.114 0.281-0.1 0.011-0.141-0.005-0.312-0.044-0.484 0.046 0.035 0.1 0.071 0.155 0.105l0.009 0.005c0.086 0.052 0.355 0.189 0.437 0.143 0.057-0.032 0.016-0.16-0.037-0.274-0.084-0.182-0.181-0.338-0.561-0.598zM19.254 23.805c-0.14-0.052-0.19-0.073-0.24-0.094l0.088 0.033c0.033 0.085 0.084 0.098 0.152 0.061zM18.39 26.861c-0.111 0.029-0.271 0.229-0.379 0.493-0.058-0.155-0.146-0.293-0.283-0.408-0.219-0.184-0.264-0.114-0.281 0.1-0.011 0.141 0.005 0.312 0.044 0.484-0.14-0.103-0.356-0.233-0.527-0.259-0.178-0.027-0.084 0.196 0 0.355 0.117 0.222 0.301 0.372 0.524 0.524 0.042 0.029 0.383 0.203 0.502 0.176l0.001-0c0.084-0.020 0.529-0.543 0.544-1.033 0.003-0.084 0.021-0.477-0.146-0.433zM20.116 28.531c-0.042-0.029-0.383-0.203-0.502-0.176l-0.001 0c-0.007 0.002-0.008 0-0.018 0.006-0.083 0.047-0.511 0.544-0.525 1.027-0.003 0.084-0.021 0.477 0.146 0.433 0.111-0.029 0.271-0.229 0.379-0.493 0.058 0.155 0.146 0.293 0.283 0.408 0.219 0.184 0.264 0.114 0.281-0.1 0.011-0.141-0.005-0.312-0.044-0.484 0.046 0.035 0.1 0.071 0.155 0.105l0.009 0.005c0.086 0.052 0.355 0.189 0.437 0.143 0.057-0.032 0.016-0.16-0.037-0.274-0.085-0.183-0.181-0.338-0.561-0.598zM18.39 29.861c-0.111 0.029-0.271 0.229-0.379 0.493-0.058-0.155-0.146-0.293-0.283-0.408-0.219-0.184-0.264-0.114-0.281 0.1-0.011 0.141 0.005 0.312 0.044 0.484-0.14-0.103-0.356-0.233-0.527-0.259-0.178-0.027-0.084 0.196 0 0.355 0.22 0.416 0.841 0.742 1.026 0.701l0.001-0c0.007-0.002 0.009-0 0.018-0.006 0.086-0.049 0.511-0.544 0.525-1.027 0.003-0.084 0.021-0.477-0.146-0.433zM19.612 31.355c-0.007 0.002-0.007-0-0.017 0.006-0.026 0.015-0.048 0.037-0.069 0.062-0.039 0.046-0.082 0.1-0.123 0.155l-0.007 0.010c0.323-0.059 0.523-0.102 0.722-0.148l-0.129 0.025c-0.075-0.036-0.299-0.135-0.377-0.109zM14.066 13.328l0.001-0c-0.148-0.369-0.064-0.345-0.555-0.205 0.014 0.010 0.029 0.021 0.043 0.031 0.043 0.030 0.402 0.213 0.512 0.175zM14.456 14.863c-0.111 0.029-0.271 0.229-0.379 0.493-0.058-0.155-0.146-0.293-0.283-0.408-0.219-0.184-0.264-0.114-0.281 0.1-0.011 0.141 0.005 0.312 0.044 0.484-0.046-0.035-0.1-0.071-0.155-0.105l-0.009-0.005c-0.104-0.062-0.25-0.133-0.363-0.15-0.178-0.027-0.085 0.195 0 0.355 0.22 0.416 0.841 0.742 1.026 0.701l0.001-0c0.102-0.025 0.529-0.57 0.544-1.033 0.003-0.084 0.021-0.477-0.146-0.433zM15.281 17.822c0.112-0.029 0.271-0.229 0.38-0.493 0.058 0.155 0.146 0.293 0.283 0.409 0.029 0.025 0.055 0.044 0.079 0.060 0.052-0.137 0.103-0.27 0.197-0.387-0.009-0.098-0.022-0.186-0.042-0.271l0.003 0.014c0.041 0.030 0.106 0.073 0.179 0.116 0.103-0.089 0.217-0.167 0.323-0.251-0.118-0.2-0.273-0.329-0.499-0.485-0.043-0.029-0.384-0.202-0.502-0.176h-0.001c-0.007 0.002-0.008 0.001-0.019 0.006-0.083 0.048-0.51 0.544-0.525 1.027-0.002 0.084-0.021 0.477 0.146 0.433zM14.456 17.863c-0.111 0.029-0.271 0.229-0.379 0.493-0.058-0.155-0.146-0.293-0.283-0.408-0.219-0.184-0.264-0.114-0.281 0.1-0.011 0.141 0.005 0.312 0.044 0.484-0.046-0.035-0.1-0.071-0.155-0.105l-0.009-0.005c-0.104-0.062-0.25-0.133-0.363-0.15-0.178-0.027-0.085 0.195 0 0.355 0.22 0.416 0.84 0.743 1.026 0.701l0.001-0c0.085-0.020 0.529-0.545 0.544-1.033 0.003-0.084 0.021-0.477-0.146-0.433zM15.281 20.822c0.030-0.008 0.065-0.029 0.1-0.059v-0.001c0.133-0.408 0.161-0.84 0.243-1.371-0.131 0.122-0.475 0.566-0.489 0.998-0.002 0.084-0.021 0.476 0.146 0.434zM14.456 20.862c-0.111 0.029-0.271 0.229-0.379 0.493-0.058-0.155-0.146-0.293-0.283-0.408-0.219-0.184-0.264-0.114-0.281 0.1-0.011 0.141 0.005 0.312 0.044 0.484-0.131-0.097-0.29-0.194-0.447-0.239-0.044-0.013-0.114-0.036-0.154-0.013-0.094 0.054 0.085 0.388 0.144 0.467 0.028 0.036 0.055 0.069 0.084 0.099l-0-0c0.202-0.012 0.849-0.067 1.316-0.123 0.058-0.133 0.097-0.274 0.101-0.427 0.003-0.084 0.021-0.477-0.146-0.433zM16.271 22.596c-0.236 0.376-0.74 0.676-1.138 0.875-0.001 0.142 0.014 0.386 0.147 0.351 0.111-0.029 0.271-0.229 0.379-0.493 0.058 0.155 0.146 0.293 0.283 0.408 0.219 0.184 0.264 0.114 0.281-0.1 0.011-0.141-0.005-0.312-0.044-0.484 0.131 0.097 0.291 0.194 0.447 0.239 0.159 0.047 0.256 0.037 0.117-0.262-0.084-0.18-0.172-0.315-0.471-0.534zM14.456 23.862c-0.111 0.029-0.271 0.229-0.379 0.493-0.049-0.131-0.12-0.249-0.223-0.352 0.135-0.039 0.021 0.003-0.093 0.044l-0.251 0.079c-0.001 0.124 0.015 0.265 0.048 0.406-0.154-0.113-0.311-0.204-0.488-0.251-0.033 0.011-0.032 0.011-0.138 0.047-0.008 0.073 0.048 0.202 0.099 0.3 0.117 0.221 0.299 0.37 0.524 0.524 0.042 0.029 0.383 0.203 0.502 0.176l0.001-0c0.007-0.002 0.008-0 0.018-0.006 0.026-0.015 0.047-0.036 0.069-0.062 0.238-0.285 0.445-0.588 0.457-0.965 0.003-0.084 0.021-0.476-0.146-0.433zM16.779 26.404c0.057-0.032 0.016-0.16-0.037-0.274-0.125-0.27-0.293-0.414-0.561-0.598-0.042-0.029-0.383-0.203-0.502-0.176l-0.001 0c-0.007 0.002-0.008 0-0.018 0.006-0.084 0.048-0.511 0.544-0.525 1.027-0.003 0.084-0.021 0.477 0.146 0.433 0.111-0.029 0.271-0.229 0.379-0.493 0.058 0.155 0.146 0.293 0.283 0.408 0.219 0.184 0.264 0.114 0.281-0.1 0.011-0.141-0.005-0.312-0.044-0.484 0.129 0.095 0.493 0.314 0.6 0.252zM14.456 26.861c-0.111 0.029-0.271 0.229-0.379 0.493-0.058-0.155-0.146-0.293-0.283-0.408-0.219-0.184-0.264-0.114-0.281 0.1-0.011 0.141 0.005 0.312 0.044 0.484-0.046-0.035-0.1-0.071-0.155-0.105l-0.009-0.005c-0.104-0.062-0.25-0.133-0.363-0.15-0.178-0.027-0.084 0.196 0 0.355 0.245 0.464 0.948 0.775 1.053 0.691 0.073-0.046 0.503-0.533 0.518-1.023 0.003-0.084 0.021-0.477-0.146-0.433zM16.182 28.531c-0.042-0.029-0.383-0.203-0.502-0.176l-0.001 0c-0.096 0.023-0.419 0.471-0.503 0.774-0.055 0.197-0.087 0.742 0.105 0.692 0.111-0.029 0.271-0.229 0.379-0.493 0.058 0.155 0.146 0.293 0.283 0.408 0.219 0.184 0.264 0.114 0.281-0.1 0.011-0.141-0.005-0.312-0.044-0.484 0.131 0.097 0.291 0.194 0.447 0.239 0.158 0.046 0.256 0.037 0.117-0.262-0.041-0.088-0.293-0.415-0.561-0.598zM14.456 29.861c-0.111 0.029-0.271 0.229-0.379 0.493-0.058-0.155-0.146-0.293-0.283-0.408-0.219-0.184-0.264-0.114-0.281 0.1-0.011 0.141 0.005 0.312 0.044 0.484-0.046-0.035-0.1-0.071-0.155-0.105l-0.009-0.005c-0.104-0.062-0.25-0.132-0.363-0.15-0.178-0.027-0.084 0.196 0 0.355 0.22 0.417 0.841 0.742 1.026 0.701l0.001-0c0.101-0.024 0.529-0.57 0.544-1.033 0.003-0.084 0.021-0.476-0.146-0.433zM15.68 31.354l-0.001 0c-0.003 0.001-0.006 0.001-0.008 0.002-0.006 0.002-0.012 0.005-0.017 0.008l0-0c-0.070 0.043-0.256 0.306-0.319 0.408 0.49 0.067 0.834 0.107 1.261 0.117-0.297-0.358-0.783-0.565-0.916-0.535zM11.347 14.823c0.111-0.029 0.271-0.229 0.379-0.493 0.058 0.155 0.146 0.293 0.283 0.408 0.219 0.184 0.264 0.114 0.281-0.1 0.011-0.141-0.005-0.312-0.044-0.484 0.128 0.095 0.493 0.314 0.6 0.252 0.057-0.033 0.016-0.16-0.037-0.274-0.085-0.183-0.18-0.335-0.551-0.591-0.316 0.119-0.63 0.247-0.939 0.389-0.068 0.145-0.112 0.294-0.117 0.461-0.003 0.084-0.021 0.477 0.146 0.433zM10.304 15.058c0.005-0.024 0.079 0.231 0.151 0.486l0.066 0.275c0.25-0.472 0.203-1.35-0.217-0.761zM11.347 17.822c0.111-0.029 0.271-0.229 0.379-0.493 0.058 0.155 0.146 0.293 0.283 0.408 0.219 0.184 0.264 0.114 0.281-0.1 0.011-0.141-0.005-0.312-0.044-0.484 0.128 0.095 0.493 0.314 0.6 0.252 0.057-0.032 0.016-0.16-0.037-0.274-0.125-0.27-0.293-0.414-0.561-0.598-0.042-0.029-0.383-0.203-0.502-0.176l-0.001 0c-0.007 0.002-0.008 0-0.018 0.006-0.084 0.048-0.511 0.544-0.525 1.027-0.003 0.084-0.021 0.477 0.146 0.433zM12.248 19.532c-0.042-0.029-0.383-0.203-0.502-0.176l-0.001 0c-0.007 0.002-0.009 0-0.018 0.006-0.095 0.054-0.342 0.41-0.426 0.605 0.025 0.239 0.050 0.489 0.079 0.842 0.108-0.055 0.248-0.241 0.347-0.48 0.058 0.155 0.146 0.293 0.283 0.408 0.219 0.184 0.264 0.114 0.281-0.1 0.011-0.141-0.005-0.312-0.044-0.484 0.131 0.097 0.29 0.194 0.447 0.239 0.158 0.046 0.255 0.037 0.117-0.262-0.041-0.088-0.293-0.415-0.561-0.598zM12.248 25.531c-0.042-0.029-0.383-0.203-0.502-0.176l-0.001 0c-0.007 0.002-0.008 0-0.018 0.006-0.026 0.015-0.047 0.036-0.069 0.062-0.115 0.137-0.221 0.279-0.303 0.43-0.035 0.32-0.066 0.592-0.11 0.915 0.111 0.208 0.382-0.199 0.481-0.441 0.058 0.155 0.146 0.293 0.283 0.408 0.219 0.184 0.264 0.114 0.281-0.1 0.011-0.141-0.005-0.312-0.044-0.484 0.131 0.097 0.291 0.194 0.447 0.239 0.158 0.046 0.255 0.037 0.117-0.262-0.041-0.088-0.293-0.415-0.561-0.598zM12.248 28.531c-0.042-0.029-0.383-0.203-0.502-0.176-0.007 0.002-0.017 0.003-0.026 0.010-0.068 0.042-0.386 0.432-0.478 0.764-0.055 0.197-0.087 0.742 0.105 0.692 0.111-0.029 0.271-0.229 0.379-0.493 0.058 0.155 0.146 0.293 0.283 0.408 0.219 0.184 0.264 0.114 0.281-0.1 0.011-0.141-0.005-0.312-0.044-0.484 0.131 0.097 0.291 0.194 0.447 0.239 0.158 0.046 0.255 0.037 0.117-0.262-0.041-0.088-0.293-0.415-0.561-0.598zM10.562 29.86c-0.072 0.276-0.063 0.399 0.097 0.52 0.015-0.13 0.031-0.492-0.097-0.52z"></path>
<path fill="#ffbbec" d="M20.671 13.701c-1.513 3.91-5.937 4.189-7.758 0.056-0.005-0.011-0.008-0.024-0.008-0.037 0-0.037 0.022-0.069 0.054-0.084l0.001-0c0.076-0.034 0.128 0.048 0.117 0.040 2.162 3.821 5.665 3.435 7.436-0.044l0-0.001c0.014-0.029 0.044-0.048 0.077-0.048 0.048 0 0.086 0.039 0.086 0.086 0 0.012-0.002 0.023-0.007 0.033l0-0.001zM22.657 29.518c-3.785 1.98-7.822 2.077-11.693-0.004-0.029-0.016-0.048-0.046-0.048-0.081 0-0.016 0.004-0.031 0.011-0.044l-0 0c0.041-0.077 0.133-0.038 0.123-0.038 0.517 0.217 0.742 0.32 0.965 0.424l-0.283-0.118c5.613 2.233 9.814 0.066 10.16 0.004 0.499-0.219 0.702-0.304 0.692-0.299 0.101-0.043 0.17 0.104 0.073 0.155z"></path>
<path fill="#000e3f" opacity="0.25" d="M22.174 24.86c-0.016-0.219 0.045 0.008-1.974-0.699-0.206-0.072-0.273-0.126-0.286-0.008-0.252 2.231-0.289 4.456-2.28 5.35-2.364 1.061-4.865-1.106-6.859 0.866-0.057 0.056-0.015 0.083 0.060 0.119 1.144 0.546 2.176 0.933 4.399 1.271 1.018 0.155 1.965 0.147 2.322 0.095 0.239-0.034 0.412-0.001 1.517-0.206 1.233-0.229 2.458-0.534 3.619-1.122 0.982-0.498-0.126-0.341-0.517-5.666zM21.26 21.851v-0c0.256 0 0.512 0.002 0.767-0.001 0.16-0.002 0.133 0 0.167-0.559 0.175-2.876 0.701-4.574 0.667-4.681-0.037-0.117-1.857 2.15-2.522 5.084-0.041 0.179-0.049 0.157 0.92 0.157z"></path>
<path fill="#db5e43" opacity="0.65" d="M11.207 19.56c-0.002-0.018-0.004-0.037-0.007-0.054-0.025 0.023-0.050 0.047-0.076 0.071-0.309 0.279-0.708 0.572-1.134 0.713-0.806 0.265-1.131 0.857-1.206 1.018-0.005 0.010-0.011 0.023-0.016 0.037l-0.001 0.004c0.024 0.007 0.049 0.014 0.073 0.021 0.039-0.036 0.26 0.085 0.825 0.216 0.003-0.001 0.006-0.001 0.010-0.001s0.007 0 0.010 0.001l-0-0c0.117 0.023 0.234 0.049 0.35 0.075 0.029 0.003 0.051 0.003 0.069-0.004-0.004-0.029 0.012-0.060 0.049-0.060 0.006 0 0.010 0.002 0.015 0.003 0.014-0.020 0.029-0.046 0.049-0.079 1.023-1.752 0.816-1.683 0.977-1.887 0.018-0.022 0.018-0.047 0.014-0.074zM24.799 21.349l0.003 0.028c0-0.001 0-0.002-0.001-0.003-0.029-0.041-0.033 0.012-1.192 0.286-0.073 0.017-0.118-0.008-0.154-0.071-0.265-0.457-0.479-0.764-0.789-1.453-0.076-0.171-0.202-0.372-0.233-0.566 0.31 0.282 0.712 0.58 1.142 0.72 0.938 0.309 1.224 1.059 1.224 1.059z"></path>
<path fill="#000e3f" d="M23.413 14.45c-0.829-0.602-1.845-0.976-2.813-1.282-1.425-0.45-2.619-0.673-3.809-0.676h-0.017c-0.595 0.001-1.192 0.057-1.817 0.17-0.625 0.113-1.279 0.28-1.992 0.506-0.967 0.307-1.984 0.681-2.813 1.282-0.865 0.628-3.571 7.318-3.214 9.476 0.057 0.344 0.216 0.628 0.507 0.832 0.95 0.663 2.66 0.316 3.814 0.090 0.102-0.020 0.042 0.098 0.039 0.219-0.019 0.807-0.291 3.011-0.757 4.445-0.254 0.783-0.204 0.902 0.655 1.279 0.495 0.218 1.004 0.402 1.521 0.556 1.485 0.44 2.773 0.648 4.059 0.645h0.045c1.276 0 2.557-0.209 4.030-0.645 0.517-0.153 1.026-0.338 1.521-0.556 0.859-0.377 0.909-0.496 0.655-1.279-0.466-1.435-0.738-3.639-0.757-4.445-0.003-0.121-0.064-0.239 0.039-0.219 1.154 0.226 2.864 0.573 3.814-0.090 0.291-0.204 0.449-0.488 0.507-0.832 0.357-2.158-2.349-8.848-3.214-9.476zM14.132 13.024c0.58-0.204 1.534-0.369 2.651-0.362 1.119-0.007 2.072 0.157 2.651 0.362 0.029 0.009 0.043 0.032 0.033 0.059-0.487 1.431-1.577 2.186-2.685 2.188-1.107-0.002-2.198-0.757-2.685-2.188-0.009-0.027 0.004-0.050 0.033-0.059zM10.291 14.559c0.989-0.651 2.555-1.229 3.529-1.459 0.080-0.020 0.084-0.018 0.117 0.058 0.068 0.158 0.122 0.323 0.204 0.474 0.665 1.228 1.656 1.798 2.633 1.809v0.001h0.017v-0.001c0.978-0.010 1.968-0.581 2.633-1.809 0.082-0.151 0.137-0.316 0.204-0.474 0.032-0.076 0.037-0.078 0.117-0.058 0.974 0.229 2.54 0.808 3.529 1.459 0.119 0.079 0.028 0.043-0.285 1.214-1.009 3.771-0.799 5.998-0.98 6.012-0.85 0.066-2.305-0.017-2.698-0.095-0.608-0.122-0.901-0.243-1.111-1.308-0.079-0.398-0.106-0.806-0.182-1.205-0.138-0.724-0.421-1.992-1.111-2.254-0.034-0.013-0.074-0.022-0.115-0.024l-0.001-0v-0.002c-0.003 0-0.005 0.001-0.008 0.001s-0.005-0.001-0.008-0.001v0.002c-0.042 0.002-0.082 0.011-0.118 0.025l0.003-0.001c-0.69 0.262-0.974 1.53-1.111 2.254-0.076 0.399-0.103 0.807-0.182 1.205-0.211 1.066-0.504 1.186-1.111 1.308-0.393 0.078-1.848 0.161-2.698 0.095-0.181-0.015 0.029-2.241-0.98-6.012-0.313-1.171-0.403-1.134-0.285-1.214zM22.695 20.551c0.486 0.979 0.682 1.077 0.552 1.105-0.124 0.027-0.058 0.023-0.883 0.101-0.117 0.011-0.117 0.010-0.118-0.106-0.002-0.193 0.018-0.515 0.053-0.793 0.133-1.060-0.038-1.181 0.396-0.307zM11.32 21.651c-0.001 0.117-0.001 0.118-0.118 0.106-0.825-0.078-0.759-0.074-0.883-0.101-0.13-0.028 0.066-0.126 0.552-1.105 0.434-0.875 0.263-0.754 0.396 0.306 0.035 0.278 0.055 0.601 0.053 0.793zM9.124 24.957c-2.517 0.068-2.304-1.416-1.604-3.998 0.785-2.899 2.214-5.946 2.567-6.188 0.071 0.115 0.35 1.107 0.447 1.512 0.34 1.427 0.459 2.23 0.594 3.197 0.005 0.037 0.006 0.058-0.004 0.096-0.020 0.066-0.076 0.177-0.212 0.501-0.217 0.518-0.648 1.213-0.788 1.459-0.033 0.057-0.071 0.077-0.141 0.064-0.873-0.168-1.109-0.336-1.2-0.293-0.017 0.006-0.028 0.021-0.038 0.042-0.012 0.028-0.006 0.054 0.010 0.075 0.022 0.027 0.063 0.048 0.105 0.061 0.678 0.209 1.373 0.349 2.076 0.427 0.256 0.030 0.569 0.053 0.886 0.064l0.020 0.001c0.683 0.022 2.591 0.046 3.151-0.351 0.364-0.266 0.516-0.978 0.59-1.395 0.104-0.583 0.181-1.169 0.319-1.745 0.064-0.268 0.166-0.522 0.274-0.774 0.075-0.176 0.191-0.325 0.317-0.466 0.030-0.034 0.076-0.054 0.116-0.079 0.024-0.016 0.065 0.001 0.070 0.026 0.001 0.009 0.007 0.018 0.007 0.027 0.005 0.622 0.034 0.644-0.102 0.759-0.278 0.233-0.415 0.71-0.476 1.066-0.074 0.423-0.052 0.848-0.048 1.272 0.001 0.067 0.025 0.15 0.092 0.152 0.225 0.005-0.059-0.706 0.237-1.777 0.061-0.219 0.205-0.485 0.267-0.48 0.046 0.004 0.030 0.057 0.031 0.091 0.010 0.457 0.001 0.915 0.001 1.372-0 0.139-0.001 0.303-0.001 0.468s0 0.329 0.001 0.493l-0-0.026c0 0.24 0.030 0.503-0.018 0.737-0.094 0.458-0.277 0.862-0.53 1.212l0.006-0.009c-0.45 0.628-1.49 0.996-1.75 1.104-0.464 0.195-0.936 0.371-1.414 0.533-0.092 0.030-0.182 0.061-0.274 0.092-1.023 0.339-2.44 0.649-3.584 0.68zM22.34 27.29c0.413 2.537 0.931 2.862 0.472 3.089-0.215 0.107-0.425 0.225-0.646 0.318-1.311 0.55-2.812 0.893-4.22 1.058-0.361 0.043-0.752 0.061-1.162 0.057-0.411 0.004-0.802-0.015-1.162-0.057-1.408-0.165-2.909-0.508-4.22-1.058-0.221-0.093-0.432-0.211-0.646-0.318-0.459-0.227 0.059-0.553 0.472-3.089 0.127-0.777 0.233-1.856 0.262-2.392 0.012-0.226 0.084-0.008 1.888-0.669 0.643-0.236 1.541-0.553 2.134-0.891 1.060-0.604 1.126-1.392 1.273-1.589 0.147 0.197 0.213 0.985 1.273 1.589 0.593 0.339 1.491 0.656 2.134 0.891 1.804 0.661 1.876 0.443 1.888 0.669 0.028 0.536 0.134 1.615 0.262 2.392zM24.441 24.957c-1.144-0.031-2.562-0.341-3.584-0.68-0.092-0.030-0.182-0.061-0.274-0.092-0.477-0.162-0.95-0.338-1.414-0.533-0.261-0.108-1.3-0.476-1.75-1.104-0.247-0.341-0.429-0.745-0.52-1.183l-0.004-0.020c-0.048-0.235-0.018-0.497-0.018-0.737 0-0.139 0.001-0.303 0.001-0.468s-0-0.329-0.001-0.493l0 0.026c0-0.457-0.009-0.915 0.001-1.372 0.001-0.033-0.015-0.087 0.031-0.091 0.061-0.005 0.206 0.261 0.267 0.48 0.296 1.072 0.012 1.783 0.237 1.777 0.067-0.002 0.091-0.085 0.092-0.152 0.004-0.424 0.026-0.849-0.048-1.272-0.061-0.356-0.198-0.833-0.476-1.066-0.137-0.115-0.107-0.137-0.102-0.759 0-0.009 0.006-0.018 0.007-0.027 0.005-0.025 0.046-0.042 0.070-0.026 0.040 0.025 0.085 0.045 0.116 0.079 0.126 0.141 0.242 0.29 0.317 0.466 0.108 0.251 0.211 0.506 0.274 0.774 0.138 0.577 0.215 1.162 0.319 1.745 0.074 0.417 0.226 1.129 0.59 1.395 0.56 0.397 2.468 0.373 3.151 0.351 1.011-0.033 2.014-0.195 2.982-0.492 0.076-0.023 0.145-0.071 0.116-0.136-0.066-0.143-0.214 0.054-1.238 0.251-0.070 0.014-0.107-0.006-0.141-0.064-0.14-0.246-0.571-0.94-0.788-1.459-0.213-0.507-0.23-0.496-0.216-0.597 0.136-0.967 0.254-1.77 0.594-3.197 0.097-0.405 0.376-1.397 0.447-1.512 0.352 0.242 1.782 3.288 2.567 6.188 0.7 2.582 0.912 4.066-1.604 3.998z"></path>
<path fill="#ff967f" d="M15.195 13.624c0.126-0.546 0.199-0.983 0.241-1.312 0.055-0.424 0.059-0.67 0.069-0.742 0.002-0.014-0.017-1.396 0.835-1.895 0.841-0.493 1.722 0.499 1.723 1.893 0 0.219 0.024 0.481 0.063 0.751 0.064 0.462 0.166 0.951 0.245 1.305z"></path>
<path fill="#db5e43" opacity="0.65" d="M18.125 12.319c-0.33 0.418-0.809 0.682-1.343 0.682-0.536 0-1.016-0.266-1.346-0.688 0.055-0.424 0.059-0.67 0.069-0.742 0.002-0.014-0.017-1.396 0.835-1.895 0.841-0.493 1.722 0.499 1.723 1.893-0 0.219 0.024 0.481 0.063 0.751z"></path>
<path fill="#000e3f" d="M15.195 13.728c-0 0-0 0-0 0-0.058 0-0.104-0.047-0.104-0.104 0-0.008 0.001-0.016 0.003-0.024l-0 0.001c0.109-0.473 0.189-0.911 0.239-1.301 0.038-0.297 0.052-0.504 0.060-0.628 0.003-0.054 0.006-0.092 0.009-0.114 0.005-0.344 0.086-1.503 0.886-1.972 0.317-0.186 0.665-0.19 0.979-0.009 0.546 0.313 0.9 1.095 0.901 1.992 0 0.2 0.021 0.448 0.062 0.736 0.050 0.362 0.13 0.786 0.244 1.297 0.002 0.007 0.003 0.015 0.003 0.023 0 0.058-0.047 0.104-0.104 0.104-0.049 0-0.091-0.034-0.102-0.081l-0-0.001c-0.115-0.516-0.196-0.946-0.247-1.314-0.042-0.298-0.064-0.555-0.064-0.765-0.001-0.812-0.32-1.54-0.796-1.812-0.25-0.143-0.517-0.14-0.77 0.008-0.724 0.424-0.779 1.571-0.783 1.796 0 0.010-0.001 0.019-0.002 0.028l0-0.001c-0.002 0.015-0.004 0.049-0.007 0.097-0.008 0.126-0.022 0.338-0.061 0.641-0.051 0.397-0.132 0.841-0.242 1.322-0.011 0.047-0.052 0.081-0.101 0.081v0z"></path>
<path fill="#ff967f" d="M19.214 8.837c0 0.403-0.097 0.847 0.28 0.847 1.117 0 1.281-1.576 0.402-1.576-0.376 0-0.681 0.326-0.681 0.729zM14.387 8.837c0 0.403 0.097 0.847-0.28 0.847-1.117 0-1.281-1.576-0.402-1.576 0.376 0 0.681 0.326 0.681 0.729z"></path>
<path fill="#db5e43" opacity="0.65" d="M19.915 9.062c-0.196 0.124-0.259 0.039-0.22-0.020 0.065-0.097 0.15-0.167 0.28-0.34 0.065-0.089 0.099-0.182 0.157-0.142 0.075 0.053 0.028 0.344-0.217 0.501zM13.626 8.702c0.092 0.123 0.142 0.17 0.179 0.216 0.080 0.091 0.107 0.134 0.1 0.124 0.028 0.041-0.008 0.096-0.057 0.086-0.242-0.047-0.455-0.316-0.399-0.54 0.010-0.041 0.064-0.050 0.087-0.016 0-0 0.062 0.093 0.089 0.13z"></path>
<path fill="#000e3f" d="M19.494 9.789c-0.116 0-0.208-0.035-0.274-0.104-0.136-0.141-0.126-0.384-0.115-0.642 0.003-0.068 0.006-0.138 0.006-0.206 0-0.459 0.352-0.833 0.785-0.833 0.209 0 0.383 0.078 0.504 0.225 0.105 0.129 0.163 0.307 0.163 0.501 0 0.52-0.4 1.058-1.069 1.058zM19.895 8.213c-0.318 0-0.577 0.28-0.577 0.625 0 0.071-0.003 0.143-0.006 0.214-0.008 0.202-0.017 0.411 0.058 0.489 0.009 0.010 0.038 0.040 0.123 0.040 0.559 0 0.86-0.438 0.86-0.85 0-0.147-0.041-0.278-0.116-0.369-0.081-0.099-0.196-0.148-0.342-0.148zM14.108 9.789c-0.669 0-1.069-0.538-1.069-1.058 0-0.195 0.058-0.373 0.163-0.501 0.121-0.147 0.295-0.225 0.504-0.225 0.433 0 0.785 0.374 0.785 0.833 0 0.068 0.003 0.137 0.006 0.206 0.011 0.257 0.021 0.5-0.115 0.642-0.066 0.069-0.158 0.104-0.274 0.104zM13.706 8.213c-0.146 0-0.262 0.050-0.342 0.149-0.075 0.091-0.116 0.223-0.116 0.369 0 0.412 0.302 0.85 0.86 0.85 0.085 0 0.114-0.030 0.124-0.040 0.074-0.077 0.066-0.286 0.057-0.489-0.003-0.071-0.006-0.143-0.006-0.214 0-0.345-0.259-0.625-0.577-0.625z"></path>
<path fill="#ff967f" d="M19.191 10.581c-0.038 0.080-0.074 0.146-0.113 0.21l0.005-0.009c-0.356 0.579-1.197 1.406-2.272 1.419h-0.021c-1.075-0.012-1.916-0.84-2.272-1.419-0.036-0.058-0.075-0.128-0.109-0.2l-0.006-0.013c-0.517-1.108-0.36-3.012 0.090-3.955 0.464-0.974 1.3-1.49 2.297-1.512 0.004-0.001 0.007-0.001 0.010-0.001s0.007 0 0.010 0.001c0.997 0.022 1.833 0.538 2.297 1.512 0.45 0.947 0.608 2.862 0.083 3.968z"></path>
<path fill="#db5e43" opacity="0.65" d="M18.376 9.095c-0.365 0-0.661 0.243-0.661 0.541s0.297 0.541 0.661 0.541c0.365 0 0.662-0.243 0.662-0.541s-0.297-0.541-0.662-0.541zM15.234 9.095c-0.365 0-0.662 0.243-0.662 0.541s0.297 0.541 0.662 0.541c0.365 0 0.661-0.243 0.661-0.541s-0.297-0.541-0.661-0.541z"></path>
<path fill="#000e3f" d="M19.202 6.568c-0.47-0.987-1.315-1.545-2.38-1.571-0.023-0.003-0.029-0.002-0.042 0-1.065 0.026-1.91 0.584-2.38 1.571-0.472 0.99-0.61 2.93-0.090 4.045 0.042 0.089 0.082 0.163 0.126 0.234l-0.006-0.010c0.331 0.539 1.201 1.455 2.361 1.469h0.022c1.158-0.013 2.028-0.929 2.359-1.468 0.038-0.060 0.075-0.129 0.114-0.211l0-0c0.528-1.113 0.391-3.060-0.083-4.057zM19.097 10.536c-0.022 0.046-0.038 0.078-0.055 0.109l0.006-0.013c-0.889 0.022-1.232-0.723-1.778-0.929-0.312-0.118-0.77-0.080-1.056 0.098-0.239 0.149-0.433 0.364-0.66 0.529-0.298 0.215-0.652 0.313-1.006 0.295-0.012-0.020-0.029-0.054-0.045-0.087l-0.006-0.014c-0.496-1.064-0.362-2.919 0.089-3.866 0.436-0.915 1.219-1.431 2.205-1.452 0.003-0 0.006-0 0.008-0s0.005 0 0.008 0c0.986 0.022 1.769 0.537 2.205 1.452 0.454 0.955 0.587 2.816 0.083 3.878z"></path>
<path fill="#000e3f" d="M17.575 7.457c-0.001 0.404 0.991 0.636 1.096 0.216 0.124-0.495-1.095-0.742-1.096-0.216zM16.026 7.457c-0.002-0.526-1.22-0.279-1.096 0.216 0.105 0.42 1.098 0.188 1.096-0.216zM18.424 8.154c-0.058 0-0.104 0.047-0.104 0.104 0 0.236-0.145 0.354-0.279 0.364-0.127 0.009-0.287-0.073-0.327-0.337-0.008-0.051-0.051-0.089-0.103-0.089-0.058 0-0.104 0.047-0.104 0.104 0 0.005 0 0.011 0.001 0.016l-0-0.001c0.054 0.36 0.291 0.515 0.513 0.515 0.012 0 0.024-0 0.035-0.001 0.235-0.018 0.472-0.22 0.472-0.572 0-0.058-0.047-0.104-0.104-0.104zM16.006 8.198c-0.005-0.001-0.010-0.001-0.015-0.001-0.052 0-0.095 0.038-0.103 0.088l-0 0.001c-0.040 0.264-0.2 0.345-0.327 0.337-0.134-0.010-0.279-0.128-0.279-0.364 0-0.058-0.047-0.104-0.104-0.104s-0.104 0.047-0.104 0.104v0c0 0.353 0.238 0.555 0.472 0.572 0.012 0.001 0.024 0.001 0.035 0.001 0.222 0 0.459-0.155 0.513-0.515 0.001-0.005 0.001-0.010 0.001-0.016 0-0.052-0.038-0.095-0.088-0.103l-0.001-0zM16.88 9.403c-0.105 0-0.335-0.053-0.393-0.139-0.010-0.016-0.016-0.035-0.002-0.072 0.002-0.003 0.256-0.604 0.367-0.864 0.066-0.154-0.127-0.241-0.195-0.079-0.108 0.256-0.361 0.852-0.364 0.861-0.050 0.121-0.016 0.213 0.021 0.269 0.127 0.193 0.479 0.234 0.566 0.234 0.058 0 0.105-0.047 0.105-0.105 0-0 0-0 0-0 0-0.058-0.047-0.104-0.104-0.104-0 0-0 0-0 0v0z"></path>
<path fill="#4217a6" d="M15.453 11.092c-0.267 0.084-0.323-0.045-0.256-0.112l0.007-0.007c0.284-0.287 0.652-0.383 0.605-0.365 0.041-0.010 0.082 0.015 0.092 0.056 0.022 0.088-0.186 0.344-0.447 0.428zM16.041 11.479c-0.104 0.065-0.271 0.121-0.283-0-0.006-0.065 0.172-0.276 0.217-0.324 0.161-0.175 0.288-0.234 0.277-0.227 0.010-0.005 0.022-0.008 0.035-0.008 0.029 0 0.055 0.017 0.067 0.041l0 0c0.034 0.066-0.064 0.36-0.314 0.518zM18.258 10.768c0.15 0.111 0.268 0.25 0.257 0.24 0.028 0.034 0.024 0.084-0.010 0.112-0.064 0.053-0.355 0.005-0.563-0.258-0.173-0.22-0.076-0.296-0.001-0.271 0.032 0.016 0.096 0.017 0.317 0.177zM17.794 11.291c0.062 0.089 0.097 0.164 0.092 0.154 0.029 0.058-0.020 0.124-0.083 0.115-0.236-0.034-0.467-0.323-0.485-0.57-0.005-0.062 0.062-0.102 0.115-0.071 0.024 0.023 0.16 0.080 0.362 0.372zM17.014 11.326c0.030 0.186 0.002 0.349 0.003 0.339-0.006 0.039-0.040 0.068-0.080 0.068-0.005 0-0.009-0-0.013-0.001l0 0c-0.064-0.010-0.126-0.125-0.151-0.185-0.174-0.418 0.111-0.979 0.241-0.22z"></path>
<path fill="#fff" d="M16.254 9.982c-0.047 0-0.082 0.044-0.072 0.090 0.081 0.371 0.329 0.633 0.612 0.635 0.286 0.002 0.538-0.261 0.619-0.635 0.001-0.005 0.002-0.010 0.002-0.016 0-0.041-0.033-0.074-0.074-0.074h-1.087z"></path>
<path fill="#000e3f" d="M21.048 5.472c-0.078-0.165-0.257-0.292-0.561-0.349-1.083-0.203-1.726-1.081-2.664-1.545-0.757-0.375-1.902-0.22-2.453 0.461-1.148-0.060-2.488 0.8-2.243 2.879 0.059 0.5 0.261 1.313 0.923 1.226 0.488-0.064 0.529-1.14 1.942-1.951 0.056-0.032 0.101-0.062 0.146-0.094l-0.006 0.004c0.269 0.744 1.004 1.050 1.042 1.066 0.012 0.005 0.025 0.008 0.039 0.008 0.044 0 0.081-0.027 0.096-0.064l0-0.001c0.005-0.012 0.008-0.025 0.008-0.039 0-0.044-0.027-0.081-0.065-0.096l-0.001-0c-0.008-0.003-0.678-0.283-0.922-0.944 0.934-0.14 1.408 0.586 1.988 0.865 0.126 0.063 0.277 0.122 0.432 0.168l0.021 0.005c0.013 0.095 0.031 0.194 0.057 0.298 0.313 1.292 1.344 1.058 1.225-0.34 0.799-0.335 1.16-1.21 0.996-1.556z"></path>
<path fill="#4217a6" d="M15.332 5.047c0.214 0.858-0.733 1.329-1.13 1.824-0.241 0.297-0.233 0.612-0.231 0.601-0.004 0.086-0.128 0.097-0.146 0.012-0.122-0.565 0.284-0.957 0.681-1.317 0.383-0.337 0.683-0.603 0.689-1.105v-0.001c0-0.038 0.031-0.069 0.069-0.069 0.033 0 0.060 0.022 0.067 0.053l0 0zM13.652 6.143c-0.073 0.026-0.132-0.063-0.081-0.121 0.175-0.196 0.694-0.583 0.852-1.14l0.004-0.015c0.008-0.029 0.035-0.050 0.066-0.050 0.007 0 0.013 0.001 0.019 0.003l-0.001-0c0.184 0.053 0.041 1.006-0.861 1.323zM16.096 5.765c-0.006 0.036-0.037 0.063-0.073 0.063-0.004 0-0.008-0-0.012-0.001l0 0c-0.053-0.008-0.067-0.069-0.061-0.059-0.083-0.307-0.128-0.621-0.427-1.15-0.194-0.34-0.293-0.393-0.207-0.452 0.091-0.062 0.932 0.656 0.78 1.599zM15.827 4.205c0.546-0.387 1.287-0.469 1.952-0.079 0.912 0.536 1.232 1.556 2.705 1.351 0.003-0 0.007-0.001 0.010-0.001 0.037 0 0.068 0.027 0.073 0.063l0 0c0.009 0.065-0.064 0.089-0.053 0.081-1.785 0.508-2.231-1.242-3.431-1.478-0.654-0.133-1.195 0.184-1.184 0.18-0.076 0.040-0.142-0.068-0.072-0.117z"></path>
<path fill="#4217a6" d="M16.167 4.771c0.57-0.096 1.212 0.079 1.68 0.554 0.346 0.351 0.654 0.884 1.253 1.035 0.339 0.090 0.715 0.036 1.074-0.076 0.007-0.002 0.014-0.003 0.022-0.003 0.033 0 0.061 0.021 0.070 0.051l0 0.001c0.019 0.061-0.048 0.098-0.038 0.088-0.371 0.183-0.787 0.276-1.186 0.194-0.921-0.175-1.19-1.089-1.813-1.43-0.538-0.311-1.060-0.277-1.049-0.276-0.085 0.001-0.096-0.123-0.012-0.137z"></path>
<path fill="#000e3f" d="M6.003 15.224c-0.020-0.015-0.044-0.040-0.064-0.062-0.011-0.013-0.023-0.024-0.035-0.035l-0-0c-0.043 0.060-0.385 0.372-0.412 0.428l-0.002-0.001c-0.286-0.272-0.631-0.561-0.915-0.837-0.086 0.039-0.23 0.203-0.253 0.266 0.481 0.429 0.666 0.584 1.154 1.069l0.030 0.028c0.508-0.536 0.562-0.626 0.611-0.669 0.044-0.047 0.057-0.045-0.113-0.185zM6.72 14.435l-0.003-0.003c-0.149 0.146-0.302 0.26-0.451 0.396l-0.003-0c-0.054-0.050-0.145-0.135-0.193-0.212 0.007-0.040 0.136-0.124 0.188-0.206-0.078-0.081-0.137-0.167-0.218-0.232l-0.002-0.002c-0.071 0.062-0.141 0.128-0.213 0.185l-0.003-0c-0.071-0.047-0.121-0.132-0.182-0.197l-0-0.003 0.005-0.005c0.137-0.15 0.311-0.262 0.425-0.425l-0.002-0.002c-0.073-0.080-0.135-0.172-0.219-0.241-0.009-0.010-0.442 0.397-0.692 0.65 0.332 0.408 0.697 0.767 1.055 1.16 0.236-0.181 0.466-0.422 0.698-0.63-0.043-0.085-0.117-0.166-0.189-0.234zM7.52 14.172c-0.632-0.778-0.737-0.909-0.756-0.949-0.001-0.002-0.001-0.005-0.003-0.007l0.002-0.001 0.004-0.003c0.11-0.094 0.168-0.146 0.22-0.172-0.055-0.097-0.144-0.21-0.212-0.286-0.269 0.166-0.531 0.386-0.775 0.58 0.001 0.002 0.003 0 0.005 0.002 0.080 0.121 0.206 0.267 0.229 0.278 0.036-0.014 0.155-0.133 0.234-0.148l0.003 0c0.556 0.651 0.743 0.936 0.765 0.953 0.076-0.082 0.209-0.161 0.286-0.244l-0.001-0.002-0.001-0.002zM7.762 12.065l-0.046 0.030c-0.114 0.077-0.168 0.104-0.215 0.132-0.017 0.011-0.069 0.037-0.081 0.047l0.002 0.004c0.234 0.461 0.608 0.888 0.873 1.375 0.044-0.050 0.324-0.175 0.339-0.245-0.309-0.42-0.58-0.895-0.866-1.336l-0.005-0.008zM9.29 13.008c-0.52-0.857-0.606-1-0.62-1.043-0.001-0.002-0-0.005-0.001-0.007l0.002-0.001 0.004-0.002c0.121-0.079 0.187-0.122 0.242-0.141-0.042-0.103-0.114-0.228-0.171-0.312-0.289 0.128-0.579 0.31-0.847 0.469 0.001 0.002 0.003 0.001 0.004 0.003 0.063 0.131 0.167 0.293 0.189 0.307 0.038-0.009 0.172-0.111 0.252-0.115l0.003 0.001c0.462 0.721 0.609 1.028 0.629 1.048 0.086-0.071 0.229-0.131 0.317-0.203l-0.001-0.002-0.001-0.002zM10.646 11.464l-0.003-0.001-0.004 0.002c-0.056 0.025-0.373 0.126-0.425 0.202-0.001 0.003-0.004 0.004-0.004 0.004-0.002 0.001-0.002 0.001-0.001 0.003l0.001 0.002c0.054 0.091 0.056 0.131 0.108 0.216 0.032-0.002 0.12-0.057 0.157-0.066 0.019-0.001 0.050 0.101 0.054 0.126 0.008 0.044-0.006 0.076-0.031 0.104-0.033 0.033-0.077 0.065-0.121 0.077-0.021 0.004-0.040 0.006-0.057 0.003-0.071-0.018-0.119-0.097-0.153-0.155-0.111-0.201-0.22-0.465-0.24-0.616-0.004-0.026-0.006-0.058-0.003-0.067 0.018-0.049 0.068-0.061 0.117-0.080 0.082-0.037 0.178 0.061 0.22 0.109 0.088-0.027 0.118-0.046 0.2-0.082 0.043-0.022 0.060-0.027 0.063-0.039l-0.004-0.013c-0.114-0.359-0.447-0.395-0.741-0.214-0.070 0.044-0.133 0.095-0.168 0.169-0.056 0.093-0.042 0.198-0.015 0.296 0.026 0.097 0.064 0.193 0.103 0.283 0.087 0.21 0.14 0.299 0.237 0.469 0.032 0.054 0.068 0.108 0.091 0.135 0.087 0.104 0.175 0.16 0.308 0.158 0.159-0.004 0.317-0.113 0.437-0.215 0.089-0.088 0.136-0.19 0.086-0.338-0.041-0.163-0.129-0.332-0.213-0.473zM11.825 11.335c-0.043-0.153-0.102-0.29-0.149-0.446-0.024-0.072-0.049-0.143-0.082-0.212-0.023-0.043-0.048-0.085-0.083-0.121-0.036-0.043-0.082-0.077-0.134-0.099l-0.002-0.001c-0.212-0.067-0.481 0.025-0.637 0.186-0.014 0.016-0.026 0.035-0.035 0.055l-0.001 0.001c-0.052 0.133-0.026 0.28 0.019 0.41 0.067 0.232 0.166 0.452 0.255 0.673 0.033 0.083 0.072 0.164 0.138 0.221 0.093 0.096 0.217 0.080 0.339 0.048 0.086-0.024 0.167-0.058 0.238-0.11 0.080-0.056 0.15-0.125 0.175-0.212 0.022-0.103 0.007-0.217-0.023-0.321l-0.019-0.074zM11.573 11.594c-0.053 0.131-0.239 0.184-0.336 0.090-0.062-0.085-0.099-0.193-0.151-0.289-0.050-0.118-0.092-0.242-0.108-0.361-0.005-0.067 0.012-0.129 0.048-0.185 0.033-0.051 0.090-0.094 0.157-0.091 0.078 0.008 0.143 0.065 0.178 0.143 0.020 0.049 0.052 0.118 0.053 0.12l0.057 0.145 0.037 0.103c0.003 0.006 0.018 0.055 0.036 0.114 0.034 0.129 0.056 0.121 0.028 0.212zM12.33 11.443c-0.086 0.025-0.205 0.034-0.267 0.083l0.001 0.002c0.024 0.081 0.049 0.265 0.069 0.259l0.169-0.052c0.033-0.010 0.049-0.012 0.084-0.022l0.015-0.005c-0.025-0.086-0.049-0.184-0.071-0.266zM11.949 10.161c-0.089-0-0.194 0.055-0.27 0.084l-0.007 0.002c0.094 0.408 0.23 0.784 0.337 1.173l0.002-0.001c0.085-0.027 0.206-0.063 0.281-0.094-0.128-0.371-0.24-0.785-0.344-1.164z"></path>
<path fill="#915efd" d="M22.909 10.7c-0.122-0.082-0.323-0.086-0.408 0.059-0.083 0.145 0.009 0.383 0.161 0.459 0.076 0.046 0.254 0.078 0.394 0.067-0.088 0.12-0.135 0.281-0.141 0.374-0.012 0.169 0.146 0.369 0.314 0.37 0.165 0.005 0.264-0.172 0.259-0.323-0.013-0.211-0.070-0.407-0.168-0.573-0.103-0.165-0.225-0.32-0.412-0.433zM24.918 12.247c-0.038-0.029-0.080-0.056-0.124-0.080l-0.005-0.002c-0.022-0.012-0.044-0.021-0.067-0.031-0.017-0.009-0.039-0.020-0.062-0.030l-0.005-0.002c-0.045-0.020-0.092-0.030-0.139-0.045-0.187-0.049-0.386-0.065-0.597-0.017-0.146 0.032-0.29 0.168-0.247 0.332 0.023 0.080 0.093 0.144 0.175 0.186 0.084 0.039 0.184 0.046 0.263 0.024 0.087-0.025 0.235-0.125 0.327-0.231 0.024 0.143 0.103 0.294 0.165 0.365 0.056 0.065 0.147 0.099 0.239 0.112s0.185-0.019 0.245-0.073c0.12-0.113 0.065-0.308-0.045-0.412-0.037-0.034-0.077-0.066-0.119-0.094l-0.003-0.002zM26.587 11.697c-0.211 0.013-0.407 0.070-0.573 0.169-0.165 0.103-0.32 0.225-0.433 0.412-0.082 0.122-0.086 0.323 0.059 0.408 0.145 0.083 0.383-0.009 0.459-0.161 0.046-0.076 0.078-0.254 0.067-0.394 0.12 0.088 0.281 0.135 0.374 0.141 0.169 0.011 0.369-0.146 0.37-0.314 0.005-0.165-0.172-0.264-0.323-0.259zM27.636 10.1c-0.113-0.12-0.308-0.065-0.412 0.045-0.034 0.037-0.066 0.077-0.094 0.119l-0.002 0.003c-0.032 0.042-0.059 0.085-0.082 0.129-0.012 0.022-0.021 0.044-0.031 0.067-0.012 0.022-0.022 0.045-0.032 0.067-0.020 0.045-0.030 0.092-0.045 0.139-0.049 0.187-0.065 0.386-0.017 0.597 0.032 0.146 0.168 0.29 0.332 0.247 0.080-0.023 0.144-0.093 0.186-0.175 0.039-0.084 0.046-0.184 0.024-0.263-0.025-0.087-0.125-0.235-0.231-0.327 0.143-0.024 0.294-0.103 0.365-0.165 0.065-0.056 0.099-0.147 0.112-0.239s-0.019-0.185-0.073-0.245zM27.158 9.605c0.122 0.082 0.323 0.086 0.408-0.059 0.083-0.145-0.009-0.383-0.161-0.459-0.076-0.046-0.254-0.078-0.394-0.067 0.088-0.12 0.135-0.281 0.141-0.374 0.012-0.169-0.146-0.369-0.314-0.37-0.165-0.005-0.264 0.172-0.259 0.323 0.013 0.211 0.070 0.407 0.169 0.573 0.103 0.165 0.225 0.32 0.412 0.433zM26.148 8.264c0.146-0.032 0.29-0.168 0.247-0.332-0.023-0.080-0.093-0.144-0.175-0.186-0.084-0.039-0.184-0.046-0.263-0.024-0.087 0.025-0.235 0.125-0.327 0.231-0.024-0.143-0.103-0.294-0.165-0.365-0.056-0.065-0.147-0.099-0.239-0.112s-0.185 0.019-0.245 0.073c-0.12 0.113-0.065 0.308 0.045 0.412 0.037 0.034 0.077 0.066 0.119 0.094l0.003 0.002c0.042 0.032 0.085 0.059 0.129 0.082 0.022 0.012 0.044 0.021 0.067 0.031 0.022 0.012 0.045 0.022 0.067 0.032 0.045 0.020 0.092 0.030 0.139 0.045 0.187 0.049 0.386 0.065 0.597 0.017zM23.479 8.608c0.211-0.013 0.407-0.070 0.573-0.169 0.165-0.103 0.32-0.225 0.433-0.412 0.082-0.122 0.086-0.323-0.059-0.408-0.145-0.083-0.383 0.009-0.459 0.161-0.046 0.076-0.078 0.254-0.067 0.394-0.12-0.088-0.281-0.135-0.374-0.141-0.169-0.011-0.369 0.146-0.37 0.314-0.005 0.165 0.172 0.264 0.323 0.259zM22.843 10.159c0.034-0.037 0.066-0.077 0.094-0.119l0.002-0.003c0.032-0.042 0.059-0.085 0.082-0.129 0.012-0.022 0.021-0.044 0.031-0.067 0.012-0.022 0.022-0.045 0.032-0.067 0.020-0.045 0.030-0.092 0.045-0.139 0.049-0.187 0.065-0.386 0.017-0.597-0.032-0.146-0.168-0.29-0.332-0.247-0.080 0.023-0.144 0.093-0.186 0.175-0.039 0.084-0.046 0.184-0.024 0.263 0.025 0.087 0.125 0.235 0.231 0.327-0.143 0.024-0.294 0.103-0.365 0.165-0.065 0.056-0.099 0.147-0.112 0.239s0.019 0.185 0.073 0.245c0.113 0.12 0.308 0.065 0.412-0.045z"></path>
<path fill="#fd8a02" d="M24.274 10.533c-0.024-0.011-0.054-0.018-0.088-0.022-0.069-0.006-0.147-0.003-0.219 0.025-0.071 0.027-0.2 0.108-0.288 0.214-0.045 0.053-0.082 0.113-0.099 0.17-0.016 0.057-0.014 0.112 0.012 0.154 0.057 0.082 0.195 0.087 0.327 0.040 0.131-0.044 0.251-0.129 0.305-0.183s0.092-0.128 0.111-0.191c0.018-0.063 0.025-0.122-0.003-0.161-0.012-0.021-0.032-0.035-0.058-0.045zM24.862 10.941c-0.046-0.012-0.098 0.016-0.15 0.055-0.053 0.043-0.107 0.103-0.137 0.173-0.031 0.071-0.064 0.216-0.052 0.354 0.009 0.141 0.070 0.268 0.167 0.291 0.099 0.017 0.199-0.077 0.259-0.204 0.061-0.124 0.086-0.268 0.086-0.345s-0.026-0.155-0.057-0.214c-0.032-0.057-0.069-0.104-0.116-0.111zM25.846 10.93c-0.054-0.054-0.128-0.092-0.191-0.111-0.063-0.018-0.122-0.025-0.161 0.003-0.021 0.012-0.035 0.032-0.045 0.058-0.011 0.024-0.018 0.054-0.022 0.087-0.006 0.069-0.003 0.147 0.025 0.219 0.027 0.071 0.108 0.2 0.214 0.288 0.053 0.045 0.113 0.082 0.17 0.099 0.057 0.016 0.112 0.014 0.154-0.012 0.082-0.057 0.087-0.195 0.040-0.327-0.044-0.131-0.129-0.251-0.183-0.305zM26.526 10.206c-0.124-0.061-0.269-0.086-0.345-0.086s-0.155 0.025-0.214 0.057c-0.057 0.032-0.104 0.069-0.111 0.116-0.012 0.046 0.016 0.098 0.055 0.15 0.043 0.053 0.103 0.107 0.173 0.137 0.071 0.031 0.216 0.064 0.354 0.052 0.141-0.009 0.268-0.070 0.291-0.167 0.016-0.099-0.077-0.199-0.204-0.259zM25.796 9.706c0.024 0.011 0.054 0.018 0.087 0.022 0.069 0.006 0.147 0.003 0.219-0.025 0.071-0.027 0.2-0.108 0.288-0.214 0.045-0.053 0.082-0.113 0.099-0.17 0.016-0.057 0.014-0.112-0.012-0.154-0.057-0.082-0.195-0.087-0.327-0.040-0.131 0.044-0.251 0.129-0.305 0.183s-0.092 0.128-0.111 0.191c-0.018 0.063-0.025 0.122 0.003 0.161 0.012 0.021 0.032 0.035 0.058 0.045zM25.495 9.070c0.031-0.071 0.064-0.216 0.052-0.354-0.009-0.141-0.070-0.268-0.167-0.291-0.099-0.017-0.199 0.077-0.259 0.204-0.061 0.124-0.086 0.269-0.086 0.345s0.026 0.155 0.057 0.214c0.032 0.057 0.069 0.104 0.116 0.111 0.046 0.012 0.098-0.016 0.15-0.055 0.053-0.043 0.107-0.103 0.137-0.173zM24.621 9.359c0.011-0.024 0.018-0.054 0.022-0.087 0.006-0.069 0.003-0.147-0.025-0.219s-0.108-0.2-0.214-0.288c-0.053-0.045-0.113-0.082-0.17-0.099-0.057-0.016-0.112-0.014-0.154 0.012-0.082 0.057-0.087 0.195-0.040 0.327 0.044 0.131 0.129 0.251 0.183 0.305s0.128 0.091 0.191 0.111c0.063 0.018 0.122 0.025 0.161-0.003 0.021-0.012 0.035-0.032 0.045-0.059zM24.103 10.063c0.057-0.033 0.104-0.069 0.111-0.116 0.012-0.046-0.016-0.098-0.055-0.15-0.043-0.053-0.103-0.107-0.173-0.137-0.071-0.031-0.216-0.064-0.354-0.052-0.141 0.009-0.268 0.069-0.291 0.167-0.017 0.099 0.077 0.199 0.204 0.259 0.124 0.061 0.269 0.086 0.345 0.086s0.155-0.025 0.214-0.057z"></path>
<path fill="#4217a6" d="M25.408 10.14c0 0.213-0.173 0.386-0.386 0.386s-0.386-0.173-0.386-0.386c0-0.213 0.173-0.386 0.386-0.386s0.386 0.173 0.386 0.386z"></path>
<path fill="#915efd" d="M2.977 28.768c-0.122-0.082-0.323-0.086-0.408 0.059-0.083 0.145 0.009 0.383 0.161 0.459 0.076 0.046 0.254 0.078 0.394 0.067-0.088 0.12-0.135 0.281-0.141 0.374-0.012 0.169 0.146 0.369 0.314 0.37 0.165 0.005 0.264-0.172 0.259-0.323-0.013-0.211-0.070-0.407-0.169-0.573-0.103-0.165-0.225-0.32-0.412-0.433zM4.986 30.315c-0.038-0.029-0.080-0.056-0.124-0.080l-0.005-0.002c-0.022-0.012-0.045-0.021-0.067-0.031-0.017-0.010-0.040-0.020-0.062-0.030l-0.005-0.002c-0.045-0.020-0.092-0.030-0.139-0.045-0.187-0.049-0.386-0.065-0.597-0.017-0.146 0.032-0.289 0.168-0.248 0.332 0.023 0.080 0.093 0.144 0.175 0.186 0.084 0.039 0.184 0.046 0.263 0.024 0.087-0.025 0.235-0.125 0.327-0.231 0.024 0.143 0.103 0.294 0.165 0.365 0.056 0.065 0.147 0.099 0.239 0.112s0.185-0.019 0.245-0.073c0.12-0.113 0.065-0.308-0.045-0.412-0.037-0.034-0.077-0.066-0.119-0.094l-0.003-0.002zM6.656 29.764c-0.211 0.013-0.407 0.070-0.573 0.169-0.165 0.103-0.32 0.225-0.433 0.412-0.082 0.122-0.086 0.323 0.059 0.408 0.145 0.083 0.383-0.009 0.459-0.161 0.046-0.076 0.078-0.254 0.067-0.394 0.12 0.088 0.281 0.135 0.374 0.141 0.169 0.012 0.369-0.146 0.37-0.314 0.005-0.165-0.172-0.264-0.323-0.259zM7.704 28.168c-0.113-0.12-0.308-0.065-0.412 0.045-0.034 0.037-0.066 0.077-0.094 0.119l-0.002 0.003c-0.032 0.042-0.059 0.085-0.082 0.129-0.012 0.022-0.021 0.044-0.031 0.067-0.012 0.022-0.022 0.045-0.032 0.067-0.020 0.045-0.030 0.092-0.045 0.139-0.049 0.187-0.065 0.386-0.017 0.597 0.032 0.146 0.168 0.29 0.332 0.247 0.080-0.023 0.144-0.093 0.186-0.175 0.039-0.084 0.046-0.184 0.024-0.263-0.025-0.087-0.125-0.235-0.231-0.327 0.143-0.024 0.294-0.103 0.365-0.165 0.065-0.056 0.099-0.147 0.112-0.239s-0.019-0.185-0.073-0.245zM7.226 27.672c0.122 0.082 0.323 0.086 0.408-0.059 0.083-0.145-0.009-0.383-0.161-0.459-0.076-0.046-0.254-0.078-0.394-0.067 0.088-0.12 0.135-0.281 0.141-0.374 0.012-0.169-0.146-0.369-0.314-0.37-0.165-0.005-0.264 0.172-0.259 0.323 0.013 0.211 0.070 0.407 0.169 0.573 0.103 0.165 0.225 0.32 0.412 0.433zM6.216 26.332c0.146-0.032 0.29-0.168 0.247-0.332-0.023-0.080-0.093-0.144-0.175-0.186-0.084-0.039-0.184-0.046-0.263-0.024-0.087 0.025-0.235 0.125-0.327 0.231-0.024-0.143-0.103-0.294-0.165-0.365-0.056-0.065-0.147-0.099-0.239-0.112s-0.185 0.019-0.245 0.073c-0.12 0.113-0.065 0.308 0.045 0.412 0.037 0.034 0.077 0.066 0.119 0.094l0.003 0.002c0.042 0.032 0.085 0.059 0.129 0.082 0.022 0.012 0.045 0.021 0.067 0.031 0.022 0.012 0.045 0.022 0.067 0.032 0.045 0.020 0.092 0.030 0.139 0.045 0.187 0.049 0.386 0.065 0.597 0.017zM3.547 26.676c0.211-0.013 0.407-0.070 0.573-0.169 0.165-0.103 0.32-0.225 0.433-0.412 0.082-0.122 0.086-0.323-0.059-0.408-0.145-0.083-0.383 0.009-0.459 0.161-0.046 0.076-0.078 0.254-0.067 0.394-0.12-0.088-0.281-0.135-0.374-0.141-0.169-0.012-0.369 0.146-0.37 0.314-0.005 0.165 0.172 0.264 0.323 0.259zM2.911 28.227c0.034-0.037 0.066-0.077 0.094-0.119l0.002-0.003c0.032-0.042 0.059-0.085 0.082-0.129 0.012-0.022 0.021-0.044 0.031-0.067 0.012-0.022 0.022-0.045 0.031-0.067 0.020-0.045 0.030-0.092 0.045-0.139 0.049-0.187 0.065-0.386 0.017-0.597-0.032-0.146-0.168-0.29-0.332-0.247-0.080 0.023-0.144 0.093-0.186 0.175-0.039 0.084-0.046 0.184-0.024 0.263 0.025 0.087 0.125 0.235 0.231 0.327-0.143 0.024-0.294 0.103-0.365 0.165-0.065 0.056-0.099 0.147-0.112 0.239s0.019 0.185 0.073 0.245c0.113 0.12 0.308 0.065 0.412-0.045z"></path>
<path fill="#fd8a02" d="M4.342 28.601c-0.024-0.011-0.054-0.018-0.087-0.022-0.069-0.006-0.147-0.003-0.219 0.025-0.071 0.027-0.2 0.108-0.288 0.214-0.045 0.053-0.082 0.113-0.099 0.17-0.016 0.057-0.014 0.112 0.012 0.154 0.057 0.082 0.195 0.087 0.327 0.040 0.131-0.044 0.251-0.129 0.305-0.183s0.092-0.128 0.111-0.191c0.018-0.063 0.025-0.122-0.003-0.161-0.012-0.021-0.032-0.035-0.059-0.045zM4.93 29.009c-0.046-0.012-0.098 0.015-0.15 0.055-0.053 0.043-0.107 0.103-0.137 0.173-0.031 0.071-0.064 0.216-0.052 0.354 0.009 0.141 0.069 0.268 0.167 0.291 0.099 0.017 0.199-0.077 0.259-0.204 0.061-0.124 0.086-0.269 0.086-0.345s-0.026-0.155-0.057-0.214c-0.032-0.057-0.069-0.104-0.116-0.111zM5.914 28.998c-0.054-0.054-0.128-0.092-0.191-0.111-0.063-0.018-0.122-0.025-0.161 0.003-0.021 0.012-0.035 0.032-0.045 0.058-0.011 0.024-0.018 0.054-0.022 0.087-0.006 0.069-0.003 0.147 0.025 0.219s0.108 0.2 0.214 0.288c0.053 0.045 0.113 0.082 0.17 0.099 0.057 0.016 0.112 0.014 0.154-0.012 0.082-0.057 0.087-0.195 0.040-0.327-0.044-0.131-0.129-0.251-0.183-0.305zM6.595 28.274c-0.124-0.061-0.269-0.086-0.345-0.086s-0.155 0.026-0.214 0.057c-0.057 0.032-0.104 0.069-0.111 0.116-0.012 0.046 0.016 0.098 0.055 0.15 0.043 0.053 0.103 0.107 0.173 0.137 0.071 0.031 0.216 0.064 0.354 0.052 0.141-0.009 0.268-0.070 0.291-0.167 0.017-0.099-0.077-0.199-0.204-0.259zM5.864 27.774c0.024 0.011 0.054 0.018 0.087 0.022 0.069 0.006 0.147 0.003 0.219-0.025s0.2-0.108 0.288-0.214c0.045-0.053 0.082-0.113 0.099-0.17 0.016-0.057 0.014-0.112-0.012-0.154-0.057-0.082-0.195-0.087-0.327-0.040-0.131 0.044-0.251 0.129-0.305 0.183s-0.092 0.128-0.111 0.191c-0.018 0.063-0.025 0.122 0.003 0.161 0.012 0.021 0.032 0.035 0.059 0.045zM5.563 27.138c0.031-0.071 0.064-0.216 0.052-0.354-0.009-0.141-0.070-0.268-0.167-0.291-0.099-0.017-0.199 0.077-0.259 0.204-0.061 0.124-0.086 0.269-0.086 0.345s0.026 0.155 0.057 0.214c0.032 0.057 0.069 0.104 0.116 0.111 0.046 0.012 0.098-0.016 0.15-0.055 0.053-0.043 0.107-0.103 0.137-0.173zM4.69 27.427c0.011-0.024 0.019-0.054 0.022-0.087 0.006-0.069 0.003-0.147-0.025-0.219s-0.108-0.2-0.214-0.288c-0.053-0.045-0.113-0.082-0.17-0.099-0.057-0.016-0.112-0.014-0.154 0.012-0.082 0.057-0.087 0.195-0.040 0.327 0.044 0.131 0.129 0.251 0.183 0.305s0.128 0.092 0.191 0.111c0.063 0.018 0.122 0.025 0.161-0.003 0.021-0.012 0.035-0.032 0.045-0.058zM4.171 28.131c0.057-0.032 0.104-0.069 0.111-0.116 0.012-0.046-0.016-0.098-0.055-0.15-0.043-0.053-0.103-0.107-0.173-0.137-0.071-0.031-0.216-0.064-0.354-0.052-0.141 0.009-0.268 0.070-0.291 0.167-0.017 0.099 0.077 0.199 0.204 0.259 0.124 0.061 0.269 0.086 0.345 0.086s0.155-0.026 0.214-0.057z"></path>
<path fill="#4217a6" d="M5.477 28.208c0 0.213-0.173 0.386-0.386 0.386s-0.386-0.173-0.386-0.386c0-0.213 0.173-0.386 0.386-0.386s0.386 0.173 0.386 0.386z"></path>
<path fill="#915efd" d="M5.046 7.67c-0.122-0.082-0.323-0.086-0.408 0.059-0.083 0.145 0.009 0.383 0.161 0.459 0.076 0.046 0.254 0.078 0.394 0.067-0.088 0.12-0.135 0.281-0.141 0.374-0.011 0.169 0.146 0.369 0.314 0.37 0.165 0.005 0.264-0.172 0.259-0.323-0.013-0.211-0.070-0.407-0.169-0.573-0.103-0.165-0.225-0.32-0.412-0.433zM7.055 9.217c-0.038-0.029-0.080-0.056-0.124-0.080l-0.005-0.002c-0.022-0.012-0.045-0.021-0.067-0.031-0.017-0.010-0.040-0.020-0.062-0.030l-0.005-0.002c-0.045-0.020-0.092-0.030-0.139-0.045-0.187-0.049-0.386-0.065-0.597-0.017-0.146 0.032-0.29 0.168-0.247 0.332 0.023 0.080 0.093 0.144 0.175 0.186 0.084 0.039 0.184 0.046 0.263 0.024 0.087-0.025 0.235-0.125 0.327-0.231 0.024 0.143 0.103 0.294 0.165 0.365 0.056 0.065 0.147 0.099 0.239 0.112s0.185-0.019 0.245-0.073c0.12-0.113 0.065-0.308-0.045-0.412-0.037-0.034-0.077-0.066-0.119-0.094l-0.003-0.002zM8.724 8.666c-0.211 0.013-0.407 0.070-0.573 0.168-0.165 0.103-0.32 0.225-0.433 0.412-0.082 0.122-0.086 0.323 0.059 0.408 0.145 0.083 0.383-0.009 0.459-0.161 0.046-0.076 0.078-0.254 0.067-0.394 0.12 0.088 0.281 0.135 0.374 0.141 0.169 0.012 0.369-0.146 0.37-0.314 0.005-0.165-0.172-0.264-0.323-0.259zM9.773 7.070c-0.113-0.12-0.308-0.065-0.412 0.045-0.034 0.037-0.066 0.077-0.094 0.119l-0.002 0.003c-0.029 0.038-0.056 0.080-0.080 0.124l-0.002 0.005c-0.012 0.022-0.021 0.045-0.031 0.067-0.012 0.022-0.022 0.045-0.031 0.067-0.020 0.045-0.030 0.092-0.045 0.139-0.049 0.187-0.065 0.386-0.017 0.597 0.032 0.146 0.168 0.29 0.332 0.248 0.080-0.023 0.144-0.093 0.186-0.175 0.039-0.084 0.046-0.184 0.024-0.263-0.025-0.087-0.125-0.235-0.231-0.327 0.143-0.024 0.294-0.103 0.365-0.165 0.065-0.056 0.099-0.147 0.112-0.239s-0.019-0.185-0.073-0.245zM9.295 6.574c0.122 0.082 0.323 0.086 0.408-0.059 0.083-0.145-0.009-0.383-0.161-0.459-0.076-0.046-0.254-0.078-0.394-0.067 0.088-0.12 0.135-0.281 0.141-0.374 0.012-0.169-0.146-0.369-0.314-0.37-0.165-0.005-0.264 0.172-0.259 0.323 0.013 0.211 0.070 0.407 0.168 0.573 0.103 0.165 0.225 0.32 0.412 0.433zM8.285 5.234c0.146-0.032 0.29-0.168 0.248-0.332-0.023-0.080-0.093-0.144-0.175-0.186-0.084-0.039-0.184-0.046-0.263-0.024-0.087 0.025-0.235 0.125-0.327 0.231-0.024-0.143-0.103-0.294-0.165-0.365-0.056-0.065-0.147-0.099-0.239-0.112s-0.185 0.019-0.245 0.073c-0.12 0.113-0.065 0.308 0.045 0.412 0.037 0.034 0.077 0.066 0.119 0.094l0.003 0.002c0.042 0.032 0.085 0.059 0.129 0.082 0.022 0.012 0.045 0.021 0.067 0.031 0.022 0.012 0.045 0.022 0.067 0.032 0.045 0.020 0.092 0.030 0.139 0.045 0.187 0.049 0.386 0.065 0.597 0.017zM5.616 5.578c0.211-0.013 0.407-0.070 0.573-0.169 0.165-0.103 0.32-0.225 0.433-0.412 0.082-0.122 0.086-0.323-0.059-0.408-0.145-0.083-0.383 0.009-0.459 0.161-0.046 0.076-0.078 0.254-0.067 0.394-0.12-0.088-0.281-0.135-0.374-0.141-0.169-0.011-0.369 0.146-0.37 0.314-0.005 0.165 0.172 0.263 0.323 0.259zM4.98 7.129c0.034-0.037 0.066-0.077 0.094-0.119l0.002-0.003c0.032-0.042 0.059-0.085 0.082-0.129 0.012-0.022 0.021-0.045 0.031-0.067 0.012-0.022 0.022-0.045 0.032-0.067 0.020-0.045 0.030-0.092 0.045-0.139 0.049-0.187 0.065-0.386 0.017-0.597-0.032-0.146-0.168-0.29-0.332-0.247-0.080 0.023-0.144 0.093-0.186 0.175-0.039 0.084-0.046 0.184-0.024 0.263 0.025 0.087 0.125 0.235 0.231 0.327-0.143 0.024-0.294 0.103-0.365 0.165-0.065 0.056-0.099 0.147-0.112 0.239s0.019 0.185 0.073 0.245c0.113 0.12 0.308 0.065 0.412-0.045z"></path>
<path fill="#fd8a02" d="M6.411 7.503c-0.024-0.011-0.054-0.018-0.087-0.022-0.069-0.006-0.147-0.003-0.219 0.025-0.071 0.027-0.2 0.108-0.288 0.214-0.045 0.053-0.082 0.113-0.099 0.17-0.016 0.057-0.014 0.112 0.012 0.154 0.057 0.082 0.195 0.087 0.327 0.040 0.131-0.044 0.251-0.129 0.305-0.183s0.091-0.128 0.111-0.191c0.018-0.063 0.025-0.122-0.003-0.161-0.012-0.021-0.032-0.035-0.058-0.045zM6.999 7.911c-0.046-0.012-0.098 0.016-0.15 0.055-0.053 0.043-0.107 0.103-0.137 0.173-0.031 0.071-0.064 0.216-0.052 0.354 0.009 0.141 0.070 0.268 0.167 0.291 0.099 0.017 0.199-0.077 0.259-0.204 0.061-0.124 0.086-0.269 0.086-0.345s-0.026-0.155-0.057-0.214c-0.032-0.057-0.069-0.104-0.116-0.111zM7.982 7.9c-0.054-0.054-0.128-0.092-0.191-0.111-0.063-0.018-0.122-0.025-0.161 0.003-0.021 0.012-0.035 0.032-0.045 0.058-0.011 0.024-0.019 0.054-0.022 0.087-0.006 0.069-0.003 0.147 0.025 0.219s0.108 0.2 0.214 0.288c0.053 0.045 0.113 0.082 0.17 0.099 0.057 0.016 0.112 0.014 0.154-0.012 0.082-0.057 0.087-0.195 0.040-0.327-0.044-0.131-0.129-0.251-0.183-0.305zM8.663 7.176c-0.124-0.061-0.269-0.086-0.345-0.086s-0.155 0.026-0.214 0.057c-0.057 0.032-0.104 0.069-0.111 0.116-0.012 0.046 0.016 0.098 0.055 0.15 0.043 0.053 0.103 0.107 0.173 0.137 0.071 0.031 0.216 0.064 0.354 0.052 0.141-0.009 0.268-0.070 0.291-0.167 0.017-0.099-0.077-0.199-0.204-0.259zM7.933 6.676c0.024 0.011 0.054 0.018 0.087 0.022 0.069 0.006 0.147 0.003 0.219-0.025s0.2-0.108 0.288-0.214c0.045-0.053 0.082-0.113 0.099-0.17 0.016-0.057 0.014-0.112-0.012-0.154-0.057-0.082-0.195-0.087-0.327-0.040-0.131 0.044-0.251 0.129-0.305 0.183s-0.091 0.128-0.111 0.191c-0.018 0.063-0.025 0.122 0.003 0.161 0.012 0.021 0.032 0.035 0.058 0.045zM7.632 6.040c0.031-0.071 0.064-0.216 0.052-0.354-0.009-0.141-0.069-0.268-0.167-0.291-0.099-0.016-0.199 0.077-0.259 0.204-0.061 0.124-0.086 0.269-0.086 0.345s0.026 0.155 0.057 0.214c0.032 0.057 0.069 0.104 0.116 0.111 0.046 0.012 0.098-0.016 0.15-0.055 0.053-0.043 0.107-0.103 0.137-0.173zM6.758 6.328c0.011-0.024 0.018-0.054 0.022-0.087 0.006-0.069 0.003-0.147-0.025-0.219s-0.108-0.2-0.214-0.288c-0.053-0.045-0.113-0.082-0.17-0.099-0.057-0.016-0.112-0.014-0.154 0.012-0.082 0.057-0.087 0.195-0.040 0.327 0.044 0.131 0.129 0.251 0.183 0.305s0.128 0.092 0.191 0.111c0.063 0.018 0.122 0.025 0.161-0.003 0.021-0.012 0.035-0.032 0.045-0.059zM6.24 7.033c0.057-0.032 0.104-0.069 0.111-0.116 0.012-0.046-0.016-0.098-0.055-0.15-0.043-0.053-0.103-0.107-0.173-0.137-0.071-0.031-0.216-0.064-0.354-0.052-0.141 0.009-0.268 0.070-0.291 0.167-0.016 0.099 0.077 0.199 0.204 0.259 0.124 0.061 0.269 0.086 0.345 0.086s0.155-0.026 0.214-0.057z"></path>
<path fill="#4217a6" d="M7.545 7.11c0 0.213-0.173 0.386-0.386 0.386s-0.386-0.173-0.386-0.386c0-0.213 0.173-0.386 0.386-0.386s0.386 0.173 0.386 0.386z"></path>
<path fill="#fd8a02" d="M28.88 21.131c-0.024-0.011-0.054-0.018-0.087-0.022-0.069-0.006-0.147-0.003-0.219 0.025-0.071 0.027-0.2 0.108-0.288 0.214-0.045 0.053-0.082 0.113-0.099 0.17-0.016 0.057-0.014 0.112 0.012 0.154 0.057 0.082 0.195 0.087 0.327 0.040 0.131-0.044 0.251-0.129 0.305-0.183s0.091-0.128 0.111-0.191c0.018-0.063 0.025-0.122-0.003-0.161-0.012-0.021-0.032-0.035-0.058-0.045zM29.468 21.539c-0.046-0.012-0.098 0.016-0.15 0.055-0.053 0.043-0.107 0.103-0.137 0.173-0.031 0.071-0.064 0.216-0.052 0.354 0.009 0.141 0.070 0.268 0.167 0.291 0.099 0.017 0.2-0.077 0.259-0.204 0.061-0.124 0.086-0.269 0.086-0.345s-0.026-0.155-0.057-0.214c-0.032-0.057-0.069-0.104-0.116-0.111zM30.451 21.528c-0.054-0.054-0.128-0.092-0.191-0.111-0.063-0.018-0.122-0.025-0.161 0.003-0.021 0.012-0.035 0.032-0.045 0.058-0.011 0.024-0.018 0.054-0.022 0.087-0.006 0.069-0.003 0.147 0.025 0.219 0.027 0.071 0.108 0.2 0.214 0.288 0.053 0.045 0.113 0.082 0.17 0.099 0.057 0.016 0.112 0.014 0.154-0.012 0.082-0.057 0.087-0.195 0.040-0.327-0.044-0.131-0.129-0.251-0.183-0.305zM31.132 20.803c-0.124-0.061-0.269-0.086-0.345-0.086s-0.155 0.026-0.214 0.057c-0.057 0.032-0.104 0.069-0.111 0.116-0.012 0.046 0.016 0.098 0.055 0.15 0.043 0.053 0.103 0.107 0.173 0.137 0.071 0.031 0.216 0.064 0.354 0.052 0.141-0.009 0.268-0.070 0.291-0.167 0.016-0.099-0.077-0.2-0.204-0.259zM30.402 20.303c0.024 0.011 0.054 0.018 0.087 0.022 0.069 0.006 0.147 0.003 0.219-0.025s0.2-0.108 0.288-0.214c0.045-0.053 0.082-0.113 0.099-0.17 0.016-0.057 0.014-0.112-0.012-0.154-0.057-0.082-0.195-0.087-0.327-0.040-0.131 0.044-0.251 0.129-0.305 0.183s-0.091 0.128-0.111 0.191c-0.018 0.063-0.025 0.122 0.003 0.161 0.012 0.021 0.032 0.035 0.058 0.045zM30.101 19.668c0.031-0.071 0.064-0.216 0.052-0.354-0.009-0.141-0.070-0.268-0.167-0.291-0.099-0.017-0.199 0.077-0.259 0.204-0.061 0.124-0.086 0.269-0.086 0.345s0.026 0.155 0.057 0.214c0.032 0.057 0.069 0.104 0.116 0.111 0.046 0.012 0.098-0.016 0.15-0.055 0.053-0.043 0.107-0.103 0.137-0.173zM29.227 19.956c0.011-0.024 0.018-0.054 0.022-0.088 0.006-0.069 0.003-0.147-0.025-0.219-0.027-0.071-0.108-0.2-0.214-0.288-0.053-0.045-0.113-0.082-0.17-0.099-0.057-0.016-0.112-0.014-0.154 0.012-0.082 0.057-0.087 0.195-0.040 0.327 0.044 0.131 0.129 0.251 0.183 0.305s0.128 0.092 0.191 0.111c0.063 0.018 0.122 0.025 0.161-0.003 0.021-0.012 0.035-0.032 0.045-0.058zM28.708 20.66c0.057-0.032 0.104-0.069 0.111-0.116 0.012-0.046-0.016-0.098-0.055-0.15-0.043-0.053-0.103-0.107-0.173-0.137-0.071-0.031-0.216-0.064-0.354-0.052-0.141 0.009-0.268 0.069-0.291 0.167-0.016 0.099 0.077 0.199 0.204 0.259 0.124 0.061 0.269 0.086 0.345 0.086s0.155-0.025 0.214-0.057z"></path>
<path fill="#4217a6" d="M29.241 20.738c0 0.213 0.173 0.386 0.386 0.386s0.386-0.173 0.386-0.386v0c0-0.213-0.173-0.386-0.386-0.386s-0.386 0.173-0.386 0.386v0z"></path>
<path fill="#fd8a02" d="M12.917 2.111c-0.024-0.011-0.054-0.018-0.087-0.022-0.069-0.006-0.147-0.003-0.219 0.025s-0.2 0.108-0.288 0.214c-0.045 0.053-0.082 0.113-0.099 0.17-0.016 0.057-0.014 0.112 0.012 0.154 0.057 0.082 0.195 0.087 0.327 0.040 0.131-0.044 0.251-0.129 0.305-0.183s0.092-0.128 0.111-0.191c0.018-0.063 0.025-0.122-0.003-0.161-0.012-0.021-0.032-0.035-0.058-0.045zM13.505 2.519c-0.046-0.012-0.098 0.015-0.15 0.055-0.053 0.043-0.107 0.103-0.137 0.173-0.031 0.071-0.064 0.216-0.052 0.354 0.009 0.141 0.070 0.268 0.167 0.291 0.099 0.017 0.199-0.077 0.259-0.204 0.061-0.124 0.086-0.269 0.086-0.345s-0.025-0.155-0.057-0.214c-0.032-0.057-0.069-0.104-0.116-0.111zM14.489 2.508c-0.054-0.054-0.128-0.091-0.191-0.111-0.063-0.018-0.122-0.025-0.161 0.003-0.021 0.012-0.035 0.032-0.045 0.058-0.011 0.024-0.018 0.054-0.022 0.087-0.006 0.069-0.003 0.147 0.025 0.219s0.108 0.2 0.214 0.288c0.053 0.045 0.113 0.082 0.17 0.099 0.057 0.016 0.112 0.014 0.154-0.012 0.082-0.057 0.087-0.195 0.040-0.327-0.044-0.131-0.129-0.251-0.183-0.305zM15.17 1.783c-0.124-0.061-0.269-0.086-0.345-0.086s-0.155 0.026-0.214 0.057c-0.057 0.032-0.104 0.069-0.111 0.116-0.012 0.046 0.016 0.098 0.055 0.15 0.043 0.053 0.103 0.107 0.173 0.137 0.071 0.031 0.216 0.064 0.354 0.052 0.141-0.009 0.268-0.070 0.291-0.167 0.016-0.099-0.077-0.199-0.204-0.259zM14.439 1.283c0.024 0.011 0.054 0.018 0.087 0.022 0.069 0.006 0.147 0.003 0.219-0.025 0.071-0.028 0.2-0.108 0.288-0.214 0.045-0.053 0.082-0.113 0.099-0.17 0.016-0.057 0.014-0.112-0.012-0.154-0.057-0.082-0.195-0.087-0.327-0.040-0.131 0.044-0.251 0.129-0.305 0.183s-0.091 0.128-0.111 0.191c-0.018 0.063-0.025 0.122 0.003 0.161 0.012 0.021 0.032 0.035 0.059 0.045zM14.138 0.648c0.031-0.071 0.064-0.216 0.052-0.354-0.009-0.141-0.069-0.268-0.167-0.291-0.099-0.017-0.199 0.077-0.259 0.204-0.061 0.124-0.086 0.269-0.086 0.345s0.025 0.155 0.057 0.214c0.033 0.057 0.069 0.104 0.116 0.111 0.046 0.012 0.098-0.016 0.15-0.055 0.053-0.043 0.107-0.103 0.137-0.173zM13.265 0.936c0.011-0.024 0.018-0.054 0.022-0.087 0.006-0.069 0.003-0.147-0.025-0.219-0.027-0.071-0.108-0.2-0.214-0.288-0.053-0.045-0.113-0.082-0.17-0.099-0.057-0.016-0.112-0.014-0.154 0.012-0.082 0.057-0.087 0.195-0.040 0.327 0.044 0.131 0.129 0.251 0.183 0.305s0.128 0.092 0.191 0.111c0.063 0.018 0.122 0.025 0.161-0.003 0.021-0.012 0.035-0.032 0.045-0.059zM12.746 1.64c0.057-0.032 0.104-0.069 0.111-0.116 0.012-0.046-0.016-0.098-0.055-0.15-0.043-0.053-0.103-0.107-0.173-0.137-0.071-0.031-0.216-0.064-0.354-0.052-0.141 0.009-0.268 0.069-0.291 0.167-0.017 0.099 0.077 0.199 0.204 0.259 0.124 0.061 0.269 0.086 0.345 0.086s0.155-0.026 0.214-0.057z"></path>
<path fill="#4217a6" d="M13.279 1.718c0 0.213 0.173 0.386 0.386 0.386s0.386-0.173 0.386-0.386v0c0-0.213-0.173-0.386-0.386-0.386s-0.386 0.173-0.386 0.386v0z"></path>
<path fill="#fd8a02" d="M3.223 20.027c-0.024-0.011-0.054-0.018-0.087-0.022-0.069-0.006-0.147-0.003-0.219 0.025s-0.2 0.108-0.288 0.214c-0.045 0.053-0.082 0.113-0.099 0.17-0.016 0.057-0.014 0.112 0.012 0.154 0.057 0.082 0.195 0.087 0.327 0.040 0.131-0.044 0.251-0.129 0.305-0.183s0.092-0.128 0.111-0.191c0.018-0.063 0.025-0.122-0.003-0.161-0.012-0.021-0.032-0.035-0.059-0.045zM3.812 20.435c-0.046-0.012-0.098 0.016-0.15 0.055-0.053 0.043-0.107 0.103-0.137 0.173-0.031 0.071-0.064 0.216-0.052 0.354 0.009 0.141 0.070 0.268 0.167 0.291 0.099 0.017 0.199-0.077 0.259-0.204 0.061-0.124 0.086-0.269 0.086-0.345s-0.026-0.155-0.057-0.214c-0.032-0.057-0.069-0.104-0.116-0.111zM4.795 20.424c-0.054-0.054-0.128-0.092-0.191-0.111-0.063-0.018-0.122-0.025-0.161 0.003-0.021 0.012-0.035 0.032-0.045 0.058-0.011 0.024-0.018 0.054-0.022 0.087-0.006 0.069-0.003 0.147 0.025 0.219 0.027 0.071 0.108 0.2 0.214 0.288 0.053 0.045 0.113 0.082 0.17 0.099 0.057 0.016 0.112 0.014 0.154-0.012 0.082-0.057 0.087-0.195 0.040-0.327-0.044-0.131-0.129-0.251-0.183-0.305zM5.476 19.699c-0.124-0.061-0.269-0.086-0.345-0.086s-0.155 0.026-0.214 0.057c-0.057 0.032-0.104 0.069-0.111 0.116-0.012 0.046 0.016 0.098 0.055 0.15 0.043 0.053 0.103 0.107 0.173 0.137 0.071 0.031 0.216 0.064 0.354 0.052 0.141-0.009 0.268-0.069 0.291-0.167 0.016-0.099-0.077-0.2-0.204-0.259zM4.745 19.2c0.024 0.011 0.054 0.018 0.088 0.022 0.069 0.006 0.147 0.003 0.219-0.025s0.2-0.108 0.288-0.214c0.045-0.053 0.082-0.113 0.099-0.17 0.016-0.057 0.014-0.112-0.012-0.154-0.057-0.082-0.195-0.087-0.327-0.040-0.131 0.044-0.251 0.129-0.305 0.183s-0.091 0.128-0.111 0.191c-0.018 0.063-0.025 0.122 0.003 0.161 0.012 0.021 0.032 0.035 0.058 0.045zM4.445 18.564c0.031-0.071 0.064-0.216 0.052-0.354-0.009-0.141-0.069-0.268-0.167-0.291-0.099-0.017-0.199 0.077-0.259 0.204-0.061 0.124-0.086 0.269-0.086 0.345s0.026 0.155 0.057 0.214c0.032 0.057 0.069 0.104 0.116 0.111 0.046 0.012 0.098-0.016 0.15-0.055 0.053-0.043 0.107-0.103 0.137-0.173zM3.571 18.852c0.011-0.024 0.018-0.054 0.022-0.087 0.006-0.069 0.003-0.147-0.025-0.219-0.027-0.071-0.108-0.2-0.214-0.288-0.053-0.045-0.113-0.082-0.17-0.099-0.057-0.016-0.112-0.014-0.154 0.012-0.082 0.057-0.087 0.195-0.040 0.327 0.044 0.131 0.129 0.251 0.183 0.305s0.128 0.092 0.191 0.111c0.063 0.018 0.122 0.025 0.161-0.003 0.021-0.012 0.035-0.032 0.045-0.059zM3.052 19.556c0.057-0.032 0.104-0.069 0.111-0.116 0.012-0.046-0.016-0.098-0.055-0.15-0.043-0.053-0.103-0.107-0.173-0.137-0.071-0.031-0.216-0.064-0.354-0.052-0.141 0.009-0.268 0.069-0.292 0.167-0.017 0.099 0.077 0.199 0.204 0.259 0.124 0.061 0.269 0.086 0.345 0.086s0.155-0.025 0.214-0.057z"></path>
<path fill="#4217a6" d="M3.585 19.634c0 0.213 0.173 0.386 0.386 0.386s0.386-0.173 0.386-0.386v0c0-0.213-0.173-0.386-0.386-0.386s-0.386 0.173-0.386 0.386v0z"></path>
<path fill="#fc09b2" d="M27.95 14.746c-0.258 0-0.466 0.209-0.466 0.466v0c0 0.258 0.209 0.466 0.466 0.466s0.466-0.209 0.466-0.466v0c0-0.258-0.209-0.466-0.466-0.466v0zM1.129 23.546c-0.258 0-0.466 0.209-0.466 0.466v0c0 0.258 0.209 0.466 0.466 0.466s0.466-0.209 0.466-0.466v0c-0-0.258-0.209-0.466-0.466-0.466v0zM22.021 2.43c-0.258 0-0.466 0.209-0.466 0.466v0c0 0.258 0.209 0.466 0.466 0.466v0c0.258 0 0.466-0.209 0.466-0.466v0c0-0.258-0.209-0.466-0.466-0.466v0zM2.060 11.477c-0.258 0-0.466 0.209-0.466 0.466s0.209 0.466 0.466 0.466v0c0.258 0 0.466-0.209 0.466-0.466s-0.209-0.466-0.466-0.466v0z"></path>
<path fill="#fc09b2" d="M27.686 27.763c0 0.258-0.209 0.466-0.466 0.466s-0.466-0.209-0.466-0.466c0-0.258 0.209-0.466 0.466-0.466s0.466 0.209 0.466 0.466z"></path>
</svg>
