<!-- Generated by IcoMoon.io -->
<svg version="1.1" xmlns="http://www.w3.org/2000/svg" width="32" height="32" viewBox="0 0 32 32">
<title>envelope</title>
<path d="M3.071 11.179c0.405 0.286 1.625 1.134 3.661 2.545s3.595 2.497 4.679 3.259c0.119 0.084 0.372 0.265 0.759 0.545s0.708 0.506 0.964 0.679c0.256 0.172 0.565 0.366 0.929 0.58s0.705 0.375 1.027 0.482c0.322 0.107 0.619 0.161 0.893 0.161h0.036c0.274 0 0.572-0.053 0.893-0.161s0.664-0.268 1.027-0.482c0.363-0.214 0.672-0.408 0.928-0.58s0.577-0.399 0.964-0.679c0.387-0.28 0.64-0.461 0.759-0.545 1.095-0.762 3.881-2.696 8.357-5.804 0.869-0.607 1.595-1.339 2.178-2.196s0.875-1.756 0.875-2.696c0-0.786-0.283-1.459-0.848-2.018s-1.235-0.839-2.009-0.839h-26.286c-0.917 0-1.622 0.309-2.116 0.928s-0.741 1.393-0.741 2.321c0 0.75 0.328 1.563 0.982 2.438s1.351 1.563 2.089 2.063z"></path>
<path d="M30.214 13.089c-3.904 2.643-6.869 4.696-8.893 6.161-0.679 0.5-1.229 0.89-1.652 1.17s-0.985 0.565-1.688 0.857c-0.702 0.292-1.357 0.438-1.964 0.438h-0.036c-0.607 0-1.262-0.146-1.964-0.438s-1.265-0.577-1.688-0.857c-0.422-0.28-0.973-0.67-1.652-1.17-1.607-1.178-4.566-3.232-8.875-6.161-0.679-0.452-1.28-0.97-1.804-1.554v14.178c0 0.786 0.28 1.459 0.839 2.018s1.232 0.84 2.018 0.84h26.286c0.786 0 1.458-0.28 2.018-0.84s0.839-1.232 0.839-2.018v-14.178c-0.512 0.571-1.107 1.089-1.786 1.554z"></path>
</svg>
