<!-- Generated by IcoMoon.io -->
<svg version="1.1" xmlns="http://www.w3.org/2000/svg" width="32" height="32" viewBox="0 0 32 32">
<title>facebook</title>
<path fill="#039be5" d="M16.001 3.334c-6.996 0-12.667 5.671-12.667 12.667s5.671 12.667 12.667 12.667v0c6.996 0 12.667-5.671 12.667-12.667s-5.671-12.667-12.667-12.667v0z"></path>
<path fill="#fff" d="M17.716 19.358h3.278l0.515-3.33h-3.794v-1.82c0-1.383 0.452-2.61 1.746-2.61h2.079v-2.906c-0.365-0.049-1.138-0.157-2.598-0.157-3.049 0-4.836 1.61-4.836 5.278v2.215h-3.134v3.33h3.134v9.153c0.621 0.093 1.249 0.157 1.895 0.157 0.583 0 1.153-0.053 1.715-0.129v-9.181z"></path>
</svg>
