<!-- Generated by IcoMoon.io -->
<svg version="1.1" xmlns="http://www.w3.org/2000/svg" width="32" height="32" viewBox="0 0 32 32">
<title>girl</title>
<path fill="#ffbbec" d="M25.407 21.138c0 0.011 0 0.023-0.001 0.034-0 1.655-0.88 2.176-2.034 1.65-1.398-0.638-3.778-2.913-4.82-4.513-0.392-0.601-0.595-1.107-0.486-1.394 0.053-0.139 0.144-0.188 0.291-0.169 1.766 0.228 6.273 4.173 5.875 3.693-0.045-0.055-0.976-0.763-1.091-0.878-0.157-0.157 0.512 0.002 1.705-0.811 0.052-0.035 0.099-0.093 0.136-0.015 0.205 0.425 0.456 1.761 0.425 2.404zM16.342 17.248c-0.074 0.318-0.262 0.691-0.522 1.087-0.941 1.438-2.839 3.199-3.806 3.884-2.035 1.443-3.064 0.728-3.053-1.097 0.002-0.507 0.087-1.1 0.251-1.757 0.060-0.239 0.113-0.419 0.173-0.597l-0.016 0.056c0.030-0.092 0.062-0.155 0.14-0.098 1.068 0.778 1.889 0.682 1.747 0.828-0.047 0.050 0.001 0.007-1.051 0.835-0.083 0.067-0.034 0.091-0.009 0.073 1.056-0.794 4.269-3.481 5.846-3.718 0.294-0.045 0.346 0.302 0.3 0.503zM20.23 12.493c-0.030 0.1-0.074 0.229-0.127 0.377-0.683 0.381-1.731 0.625-2.906 0.625-1.181-0-2.235-0.247-2.917-0.632-0.042-0.124-0.081-0.247-0.12-0.368-0.052-0.165-0.052-0.167 0.114-0.22 0.643-0.208 1.316-0.37 1.984-0.413 1.4-0.092 2.531-0.033 3.871 0.421 0.174 0.059 0.152 0.050 0.103 0.211z"></path>
<path fill="#915efd" d="M13.312 28.402c-0.77-0.26-1.791-0.752-2.263-1.416-0.652-0.918 0.371-1.251 1.107-4.017 0.222-0.835 0.099-0.863 0.302-1.017 1.241-0.939 2.807-2.595 3.654-3.983 0.116-0.191 0.194-0.424 0.215-0.467 0.057-0.118 1.643-0.040 1.689-0.037 0.055 0.003 0.057 0.056 0.071 0.094 0.463 1.241 2.656 3.505 3.904 4.442 0.134 0.101 0.048 0.37 0.355 1.37 0.528 1.721 1.16 2.497 1.194 2.932 0.061 0.786-0.811 1.323-1.408 1.633-2.291 1.189-5.453 1.601-8.819 0.465zM12.932 18.246c0.017 0.065-0.024 0.098-0.079 0.136-1.672 1.149-1.309 1.095-1.627 1.036-0.595-0.112-1.134-0.358-1.631-0.699-0.407-0.279-0.816-0.583-1.042-1.019-0.067-0.129-0.068-0.255 0.027-0.375 1.669-2.115 2.761-4.057 5.336-4.977 0.188-0.067-0.003 0.131 0.9 2.197 0.954 2.183 1.301 2.103 1.009 2.178-0.808 0.207-1.964 0.967-2.655 1.438-0.089 0.061-0.116 0.095-0.162 0.067-0.038-0.023-0.034-0.066-0.033-0.104 0.015-1.56 0.493-2.247 0.437-2.281-0.022-0.014-0.035 0.007-0.042 0.022-0.403 0.804-0.488 2.197-0.439 2.381zM25.834 17.701c-0.196 0.388-0.614 0.724-0.972 0.971-0.542 0.374-1.045 0.629-1.799 0.769-0.052 0.010-0.091 0-0.132-0.031-1.396-1.080-1.504-1.043-1.479-1.144 0.058-0.225-0.058-1.424-0.27-1.997-0.049-0.134-0.107-0.265-0.162-0.397-0.009-0.022-0.028-0.050-0.049-0.040-0.051 0.023 0.135 0.203 0.299 1.002 0.087 0.421 0.14 0.846 0.128 1.277-0.009 0.284 0.003 0.102-1.428-0.742-1.408-0.83-1.642-0.548-1.449-0.825 0.69-0.989 1.421-2.788 1.78-3.92 0.080-0.251 0.061-0.316 0.187-0.27 1.453 0.527 2.539 1.433 3.512 2.632 0.2 0.246 1.787 2.297 1.858 2.43 0.052 0.096 0.024 0.192-0.024 0.287z"></path>
<path fill="#4217a6" opacity="0.5" d="M21.346 22.506c0.047-0.069 0.076-0.154 0.076-0.247 0-0.243-0.197-0.44-0.44-0.44-0.147 0-0.277 0.072-0.357 0.183l-0.001 0.001c-0.047 0.069-0.076 0.154-0.076 0.247 0 0.243 0.197 0.44 0.44 0.44 0.147 0 0.277-0.072 0.357-0.183l0.001-0.001zM21.346 25.085c0.051-0.071 0.081-0.159 0.081-0.254 0-0.243-0.197-0.44-0.44-0.44-0.15 0-0.283 0.075-0.362 0.19l-0.001 0.001c-0.048 0.070-0.077 0.156-0.077 0.248 0 0.243 0.197 0.44 0.44 0.44 0.148 0 0.279-0.073 0.358-0.184l0.001-0.001zM22.023 24.55c0.070 0.049 0.157 0.079 0.251 0.079 0.149 0 0.281-0.074 0.36-0.187l0.001-0.001c0.020-0.029 0.037-0.063 0.050-0.098l0.001-0.003c-0.042-0.093-0.109-0.27-0.172-0.448l-0.026-0.085c-0.195-0.109-0.444-0.056-0.575 0.131-0.049 0.070-0.079 0.157-0.079 0.251 0 0.149 0.074 0.281 0.187 0.36l0.001 0.001zM21.236 23.183c-0.070-0.050-0.158-0.080-0.253-0.080-0.243 0-0.44 0.197-0.44 0.44 0 0.15 0.075 0.282 0.189 0.361l0.001 0.001c0.070 0.049 0.156 0.078 0.25 0.078 0.243 0 0.44-0.197 0.44-0.44 0-0.148-0.073-0.28-0.186-0.359l-0.001-0.001zM22.023 23.261c0.094 0.066 0.205 0.088 0.311 0.073-0.115-0.381-0.173-0.652-0.208-0.848-0.088 0.032-0.161 0.088-0.212 0.161l-0.001 0.001c-0.049 0.070-0.079 0.157-0.079 0.251 0 0.149 0.074 0.281 0.187 0.36l0.001 0.001zM23.202 27.161c-0.008 0.011-0.013 0.023-0.019 0.035 0.034-0.037 0.067-0.076 0.099-0.117l0.003-0.004c-0.030 0.025-0.059 0.053-0.082 0.087zM22.131 27.936c0.171-0.088 0.304-0.164 0.434-0.245l-0.027 0.015c-0.005-0.003-0.008-0.008-0.013-0.011-0.070-0.049-0.157-0.079-0.251-0.079-0.149 0-0.281 0.074-0.36 0.187l-0.001 0.001c-0.059 0.084-0.082 0.181-0.076 0.276 0.152-0.071 0.249-0.119 0.344-0.169l-0.050 0.024zM23.202 25.871c-0.049 0.070-0.079 0.157-0.079 0.251 0 0.149 0.074 0.281 0.187 0.36l0.001 0.001c0.065 0.045 0.138 0.069 0.212 0.075 0.015-0.082 0.021-0.167 0.015-0.256-0.011-0.142-0.087-0.322-0.201-0.558-0.054 0.032-0.099 0.075-0.135 0.124l-0.001 0.001zM22.023 27.129c0.070 0.049 0.157 0.079 0.251 0.079 0.243 0 0.44-0.197 0.44-0.44 0-0.149-0.074-0.281-0.187-0.36l-0.001-0.001c-0.070-0.049-0.157-0.079-0.251-0.079-0.243 0-0.44 0.197-0.44 0.44 0 0.149 0.074 0.281 0.187 0.36l0.001 0.001zM21.236 25.761c-0.070-0.049-0.157-0.079-0.251-0.079-0.243 0-0.44 0.197-0.44 0.44 0 0.149 0.074 0.281 0.187 0.36l0.001 0.001c0.070 0.049 0.157 0.079 0.251 0.079 0.243 0 0.44-0.197 0.44-0.44 0-0.149-0.074-0.281-0.187-0.36l-0.001-0.001zM22.023 25.839c0.070 0.049 0.157 0.079 0.251 0.079 0.243 0 0.44-0.197 0.44-0.44 0-0.149-0.074-0.281-0.187-0.36l-0.001-0.001c-0.070-0.049-0.157-0.079-0.251-0.079-0.243 0-0.44 0.197-0.44 0.44 0 0.149 0.074 0.281 0.187 0.36l0.001 0.001zM20.623 28.45c-0.028 0.041-0.047 0.085-0.060 0.13 0.298-0.093 0.522-0.173 0.742-0.262l-0.067 0.024c-0.001-0-0.001-0.001-0.002-0.002-0.070-0.049-0.157-0.079-0.251-0.079-0.149 0-0.281 0.074-0.36 0.187l-0.001 0.001zM19.734 19.884c-0.152-0.013-0.306 0.051-0.399 0.185-0.049 0.070-0.079 0.157-0.079 0.251 0 0.243 0.197 0.44 0.44 0.44 0.149 0 0.281-0.074 0.36-0.187l0.001-0.001c0.049-0.069 0.078-0.156 0.078-0.249 0-0.004-0-0.008-0-0.011v0.001c-0.127-0.131-0.257-0.271-0.386-0.412l-0.015-0.016zM19.947 22.538c-0.069-0.047-0.154-0.076-0.247-0.076-0.243 0-0.44 0.197-0.44 0.44 0 0.147 0.072 0.277 0.183 0.357l0.001 0.001c0.070 0.049 0.157 0.079 0.251 0.079 0.243 0 0.44-0.197 0.44-0.44 0-0.149-0.074-0.281-0.187-0.36l-0.001-0.001zM18.658 21.893c-0.070-0.050-0.158-0.080-0.253-0.080-0.243 0-0.44 0.197-0.44 0.44 0 0.15 0.075 0.282 0.189 0.361l0.001 0.001c0.070 0.049 0.156 0.078 0.25 0.078 0.243 0 0.44-0.197 0.44-0.44 0-0.148-0.073-0.28-0.186-0.359l-0.001-0.001zM20.591 20.773c-0.094 0.192-0.038 0.428 0.143 0.554 0.144 0.1 0.326 0.101 0.468 0.020-0.22-0.198-0.419-0.385-0.614-0.577l0.003 0.003zM19.947 21.249c-0.070-0.049-0.157-0.079-0.251-0.079-0.149 0-0.281 0.074-0.36 0.187l-0.001 0.001c-0.049 0.070-0.079 0.157-0.079 0.251 0 0.243 0.197 0.44 0.44 0.44s0.44-0.197 0.44-0.44c0-0.149-0.074-0.281-0.187-0.36l-0.001-0.001zM18.658 20.604c-0.070-0.049-0.157-0.079-0.251-0.079-0.243 0-0.44 0.197-0.44 0.44 0 0.149 0.074 0.281 0.187 0.36l0.001 0.001c0.070 0.049 0.157 0.079 0.251 0.079 0.243 0 0.44-0.197 0.44-0.44 0-0.149-0.074-0.281-0.187-0.36l-0.001-0.001zM19.947 25.116c-0.069-0.047-0.154-0.076-0.247-0.076-0.243 0-0.44 0.197-0.44 0.44 0 0.147 0.072 0.277 0.183 0.357l0.001 0.001c0.069 0.047 0.154 0.076 0.247 0.076 0.243 0 0.44-0.197 0.44-0.44 0-0.147-0.072-0.277-0.183-0.357l-0.001-0.001zM18.658 24.472c-0.070-0.049-0.157-0.079-0.251-0.079-0.243 0-0.44 0.197-0.44 0.44 0 0.149 0.074 0.281 0.187 0.36l0.001 0.001c0.070 0.049 0.157 0.079 0.251 0.079 0.243 0 0.44-0.197 0.44-0.44 0-0.149-0.074-0.281-0.187-0.36l-0.001-0.001zM19.947 23.827c-0.071-0.051-0.159-0.081-0.254-0.081-0.243 0-0.44 0.197-0.44 0.44 0 0.15 0.075 0.283 0.19 0.362l0.001 0.001c0.070 0.048 0.156 0.077 0.248 0.077 0.243 0 0.44-0.197 0.44-0.44 0-0.148-0.073-0.279-0.184-0.358l-0.001-0.001zM18.658 23.182c-0.070-0.050-0.158-0.080-0.253-0.080-0.243 0-0.44 0.197-0.44 0.44 0 0.15 0.075 0.282 0.189 0.361l0.001 0.001c0.070 0.049 0.156 0.078 0.25 0.078 0.243 0 0.44-0.197 0.44-0.44 0-0.148-0.073-0.28-0.186-0.359l-0.001-0.001zM21.346 27.663c0.047-0.069 0.076-0.154 0.076-0.247 0-0.243-0.197-0.44-0.44-0.44-0.147 0-0.277 0.072-0.357 0.183l-0.001 0.001c-0.047 0.069-0.076 0.154-0.076 0.247 0 0.243 0.197 0.44 0.44 0.44 0.147 0 0.277-0.072 0.357-0.183l0.001-0.001zM19.947 27.695c-0.071-0.051-0.159-0.081-0.254-0.081-0.243 0-0.44 0.197-0.44 0.44 0 0.15 0.075 0.283 0.19 0.362l0.001 0.001c0.070 0.048 0.156 0.077 0.248 0.077 0.243 0 0.44-0.197 0.44-0.44 0-0.148-0.073-0.279-0.184-0.358l-0.001-0.001zM18.658 27.050c-0.069-0.047-0.154-0.076-0.247-0.076-0.243 0-0.44 0.197-0.44 0.44 0 0.147 0.072 0.277 0.183 0.357l0.001 0.001c0.070 0.049 0.157 0.079 0.251 0.079 0.149 0 0.281-0.074 0.36-0.187l0.001-0.001c0.049-0.070 0.079-0.157 0.079-0.251 0-0.149-0.074-0.281-0.187-0.36l-0.001-0.001zM19.947 26.406c-0.069-0.047-0.154-0.076-0.247-0.076-0.243 0-0.44 0.197-0.44 0.44 0 0.147 0.072 0.277 0.183 0.357l0.001 0.001c0.069 0.047 0.154 0.076 0.247 0.076 0.243 0 0.44-0.197 0.44-0.44 0-0.147-0.072-0.277-0.183-0.357l-0.001-0.001zM18.658 25.761c-0.071-0.051-0.159-0.081-0.254-0.081-0.243 0-0.44 0.197-0.44 0.44 0 0.15 0.075 0.283 0.19 0.362l0.001 0.001c0.070 0.048 0.156 0.077 0.248 0.077 0.243 0 0.44-0.197 0.44-0.44 0-0.148-0.073-0.279-0.184-0.358l-0.001-0.001zM18.657 28.34c-0.070-0.049-0.157-0.079-0.251-0.079-0.149 0-0.281 0.074-0.36 0.187l-0.001 0.001c-0.132 0.19-0.092 0.447 0.084 0.591 0.208-0.015 0.414-0.037 0.617-0.063 0.007-0.009 0.015-0.016 0.021-0.025 0.049-0.070 0.079-0.157 0.079-0.251 0-0.149-0.074-0.281-0.187-0.36l-0.001-0.001zM16.866 18.103c0.070 0.049 0.157 0.079 0.251 0.079 0.149 0 0.281-0.074 0.36-0.187l0.001-0.001c0.12-0.173 0.099-0.402-0.038-0.55-0.208-0.005-0.441-0.009-0.64-0.005-0.016 0.016-0.030 0.033-0.044 0.051l-0.001 0.001c-0.049 0.070-0.079 0.157-0.079 0.251 0 0.149 0.074 0.281 0.187 0.36l0.001 0.001zM18.155 20.037c0.070 0.049 0.157 0.079 0.251 0.079 0.243 0 0.44-0.197 0.44-0.44 0-0.149-0.074-0.281-0.187-0.36l-0.001-0.001c-0.070-0.049-0.157-0.079-0.251-0.079-0.243 0-0.44 0.197-0.44 0.44 0 0.149 0.074 0.281 0.187 0.36l0.001 0.001zM17.369 19.959c-0.069-0.047-0.154-0.076-0.247-0.076-0.243 0-0.44 0.197-0.44 0.44 0 0.147 0.072 0.277 0.183 0.357l0.001 0.001c0.069 0.047 0.154 0.076 0.247 0.076 0.243 0 0.44-0.197 0.44-0.44 0-0.147-0.072-0.277-0.183-0.357l-0.001-0.001zM18.046 18.135c-0.049 0.070-0.079 0.157-0.079 0.251 0 0.149 0.074 0.281 0.187 0.36l0.001 0.001c0.186 0.13 0.436 0.094 0.582-0.074-0.181-0.249-0.337-0.487-0.458-0.707-0.091 0.028-0.174 0.084-0.233 0.168zM17.369 18.67c-0.069-0.047-0.154-0.076-0.247-0.076-0.243 0-0.44 0.197-0.44 0.44 0 0.147 0.072 0.277 0.183 0.357l0.001 0.001c0.069 0.047 0.154 0.076 0.247 0.076 0.243 0 0.44-0.197 0.44-0.44 0-0.147-0.072-0.277-0.183-0.357l-0.001-0.001zM16.080 18.025c-0.001-0.001-0.002-0.001-0.003-0.002-0.147 0.237-0.313 0.48-0.495 0.727 0.068 0.046 0.153 0.073 0.243 0.073 0.243 0 0.44-0.197 0.44-0.44 0-0.147-0.072-0.277-0.183-0.357l-0.001-0.001zM17.369 22.538c-0.069-0.047-0.154-0.076-0.247-0.076-0.243 0-0.44 0.197-0.44 0.44 0 0.147 0.072 0.277 0.183 0.357l0.001 0.001c0.069 0.047 0.154 0.076 0.247 0.076 0.243 0 0.44-0.197 0.44-0.44 0-0.147-0.072-0.277-0.183-0.357l-0.001-0.001zM16.079 21.893c-0.069-0.047-0.155-0.076-0.246-0.076-0.243 0-0.44 0.197-0.44 0.44 0 0.147 0.072 0.277 0.183 0.357l0.001 0.001c0.069 0.047 0.155 0.076 0.246 0.076 0.243 0 0.44-0.197 0.44-0.44 0-0.147-0.072-0.277-0.183-0.357l-0.001-0.001zM17.369 21.248c-0.072-0.053-0.162-0.084-0.259-0.084-0.243 0-0.44 0.197-0.44 0.44 0 0.152 0.077 0.287 0.195 0.366l0.002 0.001c0.069 0.046 0.153 0.074 0.244 0.074 0.243 0 0.44-0.197 0.44-0.44 0-0.146-0.071-0.275-0.18-0.355l-0.001-0.001zM16.079 20.604c-0.069-0.047-0.155-0.076-0.246-0.076-0.243 0-0.44 0.197-0.44 0.44 0 0.147 0.072 0.277 0.183 0.357l0.001 0.001c0.069 0.047 0.155 0.076 0.246 0.076 0.243 0 0.44-0.197 0.44-0.44 0-0.147-0.072-0.277-0.183-0.357l-0.001-0.001zM17.368 25.116c-0.070-0.049-0.157-0.079-0.251-0.079-0.243 0-0.44 0.197-0.44 0.44 0 0.149 0.074 0.281 0.187 0.36l0.001 0.001c0.070 0.049 0.157 0.079 0.251 0.079 0.243 0 0.44-0.197 0.44-0.44 0-0.149-0.074-0.281-0.187-0.36l-0.001-0.001zM16.079 24.472c-0.070-0.049-0.157-0.079-0.251-0.079-0.243 0-0.44 0.197-0.44 0.44 0 0.149 0.074 0.281 0.187 0.36l0.001 0.001c0.070 0.049 0.157 0.079 0.251 0.079 0.243 0 0.44-0.197 0.44-0.44 0-0.149-0.074-0.281-0.187-0.36l-0.001-0.001zM17.369 23.827c-0.071-0.051-0.159-0.081-0.254-0.081-0.243 0-0.44 0.197-0.44 0.44 0 0.15 0.075 0.283 0.19 0.362l0.001 0.001c0.070 0.048 0.156 0.077 0.248 0.077 0.243 0 0.44-0.197 0.44-0.44 0-0.148-0.073-0.279-0.184-0.358l-0.001-0.001zM16.079 23.182c-0.070-0.049-0.157-0.079-0.251-0.079-0.149 0-0.281 0.074-0.36 0.187l-0.001 0.001c-0.049 0.070-0.079 0.157-0.079 0.251 0 0.243 0.197 0.44 0.44 0.44s0.44-0.197 0.44-0.44c0-0.149-0.074-0.281-0.187-0.36l-0.001-0.001zM17.368 27.695c-0.071-0.051-0.159-0.081-0.254-0.081-0.243 0-0.44 0.197-0.44 0.44 0 0.15 0.075 0.283 0.19 0.362l0.001 0.001c0.070 0.048 0.156 0.077 0.248 0.077 0.243 0 0.44-0.197 0.44-0.44 0-0.148-0.073-0.279-0.184-0.358l-0.001-0.001zM16.079 27.050c-0.070-0.049-0.157-0.079-0.251-0.079-0.243 0-0.44 0.197-0.44 0.44 0 0.149 0.074 0.281 0.187 0.36l0.001 0.001c0.070 0.049 0.157 0.079 0.251 0.079 0.243 0 0.44-0.197 0.44-0.44 0-0.149-0.074-0.281-0.187-0.36l-0.001-0.001zM17.368 26.406c-0.069-0.047-0.154-0.076-0.247-0.076-0.243 0-0.44 0.197-0.44 0.44 0 0.147 0.072 0.277 0.183 0.357l0.001 0.001c0.069 0.047 0.154 0.076 0.247 0.076 0.243 0 0.44-0.197 0.44-0.44 0-0.147-0.072-0.277-0.183-0.357l-0.001-0.001zM16.079 25.761c-0.070-0.049-0.157-0.079-0.251-0.079-0.243 0-0.44 0.197-0.44 0.44 0 0.149 0.074 0.281 0.187 0.36l0.001 0.001c0.070 0.049 0.157 0.079 0.251 0.079 0.243 0 0.44-0.197 0.44-0.44 0-0.149-0.074-0.281-0.187-0.36l-0.001-0.001zM17.368 28.984c-0.187-0.13-0.438-0.093-0.583 0.075 0.226 0.010 0.45 0.013 0.672 0.010-0.025-0.031-0.054-0.061-0.089-0.085zM16.079 28.339c-0.070-0.049-0.157-0.079-0.251-0.079-0.149 0-0.281 0.074-0.36 0.187l-0.001 0.001c-0.102 0.147-0.102 0.334-0.015 0.478 0.163 0.028 0.397 0.059 0.634 0.082l0.051 0.004c0.019-0.019 0.037-0.039 0.052-0.060l0.001-0.001c0.049-0.070 0.079-0.157 0.079-0.251 0-0.149-0.074-0.281-0.187-0.36l-0.001-0.001zM15.577 20.037c0.069 0.047 0.155 0.076 0.246 0.076 0.243 0 0.44-0.197 0.44-0.44 0-0.147-0.072-0.277-0.183-0.357l-0.001-0.001c-0.069-0.047-0.155-0.076-0.246-0.076-0.243 0-0.44 0.197-0.44 0.44 0 0.147 0.072 0.277 0.183 0.357l0.001 0.001zM14.79 19.959c-0.042-0.029-0.090-0.051-0.143-0.064l-0.003-0.001c-0.182 0.203-0.353 0.386-0.527 0.565l0.004-0.004c0.028 0.089 0.084 0.169 0.166 0.227 0.069 0.047 0.155 0.076 0.246 0.076 0.243 0 0.44-0.197 0.44-0.44 0-0.147-0.072-0.277-0.183-0.357l-0.001-0.001zM14.79 22.538c-0.069-0.047-0.155-0.076-0.246-0.076-0.243 0-0.44 0.197-0.44 0.44 0 0.147 0.072 0.277 0.183 0.357l0.001 0.001c0.069 0.047 0.155 0.076 0.246 0.076 0.243 0 0.44-0.197 0.44-0.44 0-0.147-0.072-0.277-0.183-0.357l-0.001-0.001zM14.79 21.248c-0.070-0.049-0.157-0.079-0.251-0.079-0.243 0-0.44 0.197-0.44 0.44 0 0.149 0.074 0.281 0.187 0.36l0.001 0.001c0.070 0.049 0.157 0.079 0.251 0.079 0.243 0 0.44-0.197 0.44-0.44 0-0.149-0.074-0.281-0.187-0.36l-0.001-0.001zM14.79 25.116c-0.069-0.047-0.155-0.076-0.246-0.076-0.243 0-0.44 0.197-0.44 0.44 0 0.147 0.072 0.277 0.183 0.357l0.001 0.001c0.070 0.049 0.157 0.079 0.251 0.079 0.243 0 0.44-0.197 0.44-0.44 0-0.149-0.074-0.281-0.187-0.36l-0.001-0.001zM14.79 23.827c-0.071-0.051-0.159-0.081-0.254-0.081-0.243 0-0.44 0.197-0.44 0.44 0 0.15 0.075 0.283 0.19 0.362l0.001 0.001c0.070 0.048 0.156 0.077 0.248 0.077 0.243 0 0.44-0.197 0.44-0.44 0-0.148-0.073-0.279-0.184-0.358l-0.001-0.001zM12.888 23.292c-0.049 0.070-0.079 0.157-0.079 0.251 0 0.243 0.197 0.44 0.44 0.44 0.149 0 0.281-0.074 0.36-0.187l0.001-0.001c0.049-0.070 0.079-0.157 0.079-0.251 0-0.243-0.197-0.44-0.44-0.44-0.149 0-0.281 0.074-0.36 0.187l-0.001 0.001zM14.79 27.695c-0.070-0.049-0.157-0.079-0.251-0.079-0.243 0-0.44 0.197-0.44 0.44s0.197 0.44 0.44 0.44c0.149 0 0.281-0.074 0.36-0.187l0.001-0.001c0.049-0.070 0.079-0.157 0.079-0.251 0-0.149-0.074-0.281-0.187-0.36l-0.001-0.001zM14.79 26.405c-0.069-0.047-0.155-0.076-0.246-0.076-0.243 0-0.44 0.197-0.44 0.44 0 0.147 0.072 0.277 0.183 0.357l0.001 0.001c0.069 0.047 0.155 0.076 0.246 0.076 0.243 0 0.44-0.197 0.44-0.44 0-0.147-0.072-0.277-0.183-0.357l-0.001-0.001zM12.888 25.87c-0.049 0.070-0.079 0.157-0.079 0.251 0 0.243 0.197 0.44 0.44 0.44 0.149 0 0.281-0.074 0.36-0.187l0.001-0.001c0.049-0.070 0.079-0.157 0.079-0.251 0-0.243-0.197-0.44-0.44-0.44-0.149 0-0.281 0.074-0.36 0.187l-0.001 0.001zM13.5 28.339c-0.137-0.095-0.308-0.1-0.447-0.031 0.034 0.016 0.12 0.047 0.206 0.077l0.052 0.016c0.111 0.037 0.221 0.073 0.331 0.107-0.032-0.065-0.078-0.125-0.142-0.169zM12.998 22.615c0.069 0.047 0.155 0.076 0.246 0.076 0.243 0 0.44-0.197 0.44-0.44 0-0.147-0.072-0.277-0.183-0.357l-0.001-0.001c-0.069-0.047-0.155-0.076-0.246-0.076-0.243 0-0.44 0.197-0.44 0.44 0 0.147 0.072 0.277 0.183 0.357l0.001 0.001zM12.25 22.57c-0.037 0.181-0.069 0.315-0.106 0.447l0.011-0.049c-0.054 0.211-0.089 0.331-0.125 0.45l0.024-0.091c0.105-0.023 0.201-0.082 0.267-0.177 0.129-0.185 0.094-0.434-0.071-0.58zM13.611 21.216c0.049-0.070 0.079-0.157 0.079-0.25 0-0.026-0.002-0.052-0.007-0.076l0 0.003c-0.168 0.161-0.344 0.324-0.524 0.483l-0.018 0.015c0.173 0.044 0.362-0.019 0.47-0.174zM12.998 25.194c0.069 0.047 0.155 0.076 0.246 0.076 0.243 0 0.44-0.197 0.44-0.44 0-0.147-0.072-0.277-0.183-0.357l-0.001-0.001c-0.069-0.047-0.155-0.076-0.246-0.076-0.243 0-0.44 0.197-0.44 0.44 0 0.147 0.072 0.277 0.183 0.357l0.001 0.001zM12.211 25.116c-0.070-0.049-0.157-0.079-0.251-0.079-0.243 0-0.44 0.197-0.44 0.44 0 0.149 0.074 0.281 0.187 0.36l0.001 0.001c0.070 0.049 0.157 0.079 0.251 0.079 0.243 0 0.44-0.197 0.44-0.44 0-0.149-0.074-0.281-0.187-0.36l-0.001-0.001zM12.321 24.439c0.049-0.070 0.079-0.157 0.079-0.251 0-0.149-0.074-0.281-0.187-0.36l-0.001-0.001c-0.089-0.062-0.192-0.084-0.292-0.075-0.109 0.327-0.204 0.572-0.306 0.812l0.027-0.072c0.080 0.084 0.193 0.137 0.319 0.137 0.149 0 0.281-0.074 0.36-0.187l0.001-0.001zM12.998 27.773c0.071 0.051 0.159 0.081 0.254 0.081 0.243 0 0.44-0.197 0.44-0.44 0-0.15-0.075-0.283-0.19-0.362l-0.001-0.001c-0.070-0.048-0.156-0.077-0.248-0.077-0.243 0-0.44 0.197-0.44 0.44 0 0.148 0.073 0.279 0.184 0.358l0.001 0.001zM12.211 27.695c-0.134-0.093-0.3-0.1-0.438-0.035 0.196 0.134 0.408 0.255 0.623 0.362-0.010-0.127-0.073-0.249-0.185-0.327zM12.321 27.018c0.049-0.070 0.079-0.157 0.079-0.251 0-0.243-0.197-0.44-0.44-0.44-0.149 0-0.281 0.074-0.36 0.187l-0.001 0.001c-0.049 0.070-0.079 0.157-0.079 0.251 0 0.243 0.197 0.44 0.44 0.44 0.149 0 0.281-0.074 0.36-0.187l0.001-0.001zM10.848 26.523c0.075-0.033 0.138-0.084 0.183-0.149l0.001-0.001c0.117-0.168 0.099-0.389-0.029-0.537-0.12 0.264-0.184 0.474-0.155 0.687zM14.178 13.622c-0.049 0.070-0.079 0.157-0.079 0.251 0 0.149 0.074 0.281 0.187 0.36l0.001 0.001c0.070 0.049 0.157 0.079 0.251 0.079 0.059 0 0.116-0.012 0.167-0.033l-0.003 0.001c-0.136-0.32-0.243-0.59-0.328-0.816-0.081 0.033-0.148 0.087-0.196 0.155l-0.001 0.001zM12.889 12.977c-0.049 0.070-0.079 0.157-0.079 0.251 0 0.243 0.197 0.44 0.44 0.44 0.149 0 0.281-0.074 0.36-0.187l0.001-0.001c0.049-0.070 0.079-0.157 0.079-0.251 0-0.243-0.197-0.44-0.44-0.44-0.149 0-0.281 0.074-0.36 0.187l-0.001 0.001zM15.926 16.668c-0.029-0.007-0.063-0.011-0.097-0.011-0.146 0-0.276 0.071-0.356 0.181l-0.001 0.001c0.123-0.048 0.242-0.088 0.354-0.116 0.066-0.017 0.099-0.026 0.1-0.055zM14.178 17.49c-0.006 0.009-0.010 0.018-0.015 0.027 0.058-0.038 0.176-0.109 0.296-0.178l0.067-0.036c-0.134 0.004-0.265 0.068-0.348 0.187zM15.577 16.169c0.025 0.017 0.051 0.032 0.078 0.043-0.066-0.106-0.153-0.257-0.236-0.41l-0.025-0.051c-0.020 0.158 0.044 0.321 0.183 0.418zM14.791 16.091c-0.069-0.047-0.155-0.076-0.246-0.076-0.243 0-0.44 0.197-0.44 0.44 0 0.147 0.072 0.277 0.183 0.357l0.001 0.001c0.069 0.047 0.155 0.076 0.246 0.076 0.243 0 0.44-0.197 0.44-0.44 0-0.147-0.072-0.277-0.183-0.357l-0.001-0.001zM13.501 15.446c-0.069-0.047-0.155-0.075-0.246-0.075-0.243 0-0.44 0.197-0.44 0.44 0 0.147 0.072 0.277 0.183 0.357l0.001 0.001c0.067 0.047 0.142 0.070 0.218 0.076 0.045-0.135 0.097-0.263 0.155-0.379 0.008-0.015 0.020-0.036 0.042-0.022 0.024 0.015-0.046 0.145-0.136 0.402 0.129-0.008 0.254-0.071 0.334-0.186 0.049-0.070 0.079-0.157 0.079-0.251 0-0.149-0.074-0.281-0.187-0.36l-0.001-0.001zM14.288 15.524c0.071 0.051 0.159 0.081 0.254 0.081 0.243 0 0.44-0.197 0.44-0.44 0-0.15-0.075-0.283-0.19-0.362l-0.001-0.001c-0.070-0.048-0.156-0.077-0.248-0.077-0.243 0-0.44 0.197-0.44 0.44 0 0.148 0.073 0.278 0.184 0.358l0.001 0.001zM12.979 18.042c-0.001 0.028-0.002 0.054-0.002 0.083-0 0.038-0.004 0.081 0.033 0.104 0.045 0.028 0.073-0.006 0.162-0.067-0.027 0.015 0.057-0.043 0.142-0.101l0.117-0.075c-0.15-0.068-0.325-0.045-0.452 0.056zM13.611 14.77c0.047-0.069 0.075-0.155 0.075-0.246 0-0.243-0.197-0.44-0.44-0.44-0.147 0-0.277 0.072-0.357 0.183l-0.001 0.001c-0.049 0.070-0.079 0.157-0.079 0.251 0 0.243 0.197 0.44 0.44 0.44 0.149 0 0.281-0.074 0.36-0.187l0.001-0.001zM11.709 14.235c0.069 0.047 0.155 0.075 0.246 0.075 0.243 0 0.44-0.197 0.44-0.44 0-0.147-0.072-0.277-0.183-0.357l-0.001-0.001c-0.084-0.058-0.181-0.082-0.276-0.076-0.152 0.119-0.283 0.229-0.411 0.343l0.007-0.006c-0.040 0.171 0.024 0.356 0.176 0.462zM12.888 16.845c-0.13 0.187-0.093 0.438 0.076 0.583 0.028-0.232 0.070-0.489 0.129-0.743-0.084 0.033-0.154 0.088-0.203 0.158l-0.001 0.001zM13.611 17.348c0.049-0.070 0.079-0.157 0.079-0.251 0-0.149-0.074-0.281-0.187-0.36l-0.001-0.001c-0.106-0.074-0.233-0.093-0.35-0.066-0.055 0.218-0.104 0.483-0.137 0.797 0.198 0.126 0.462 0.076 0.597-0.118zM10.923 16.735c-0.071-0.051-0.159-0.081-0.254-0.081-0.243 0-0.44 0.197-0.44 0.44 0 0.15 0.075 0.283 0.19 0.362l0.001 0.001c0.070 0.048 0.156 0.077 0.248 0.077 0.243 0 0.44-0.197 0.44-0.44 0-0.148-0.073-0.279-0.184-0.358l-0.001-0.001zM11.709 16.813c0.069 0.047 0.155 0.076 0.246 0.076 0.243 0 0.44-0.197 0.44-0.44 0-0.147-0.072-0.277-0.183-0.357l-0.001-0.001c-0.069-0.047-0.155-0.076-0.246-0.076-0.243 0-0.44 0.197-0.44 0.44 0 0.147 0.072 0.277 0.183 0.357l0.001 0.001zM11.709 15.524c0.071 0.051 0.159 0.081 0.254 0.081 0.243 0 0.44-0.197 0.44-0.44 0-0.15-0.075-0.283-0.19-0.362l-0.001-0.001c-0.070-0.048-0.156-0.077-0.248-0.077-0.243 0-0.44 0.197-0.44 0.44 0 0.148 0.073 0.278 0.184 0.358l0.001 0.001zM10.98 19.363c-0.017-0.018-0.036-0.034-0.056-0.048l-0.001-0.001c-0.070-0.049-0.157-0.079-0.251-0.079-0.028 0-0.055 0.003-0.082 0.008l0.003-0c0.099 0.039 0.228 0.080 0.36 0.115l0.028 0.006zM12.932 18.246c-0.007-0.026-0.011-0.078-0.012-0.149-0.011 0.012-0.022 0.023-0.032 0.037-0.059 0.084-0.082 0.181-0.076 0.276l0.041-0.028c0.055-0.038 0.096-0.071 0.079-0.136zM12.212 18.669c-0.070-0.049-0.157-0.079-0.251-0.079-0.149 0-0.281 0.074-0.36 0.187l-0.001 0.001c-0.111 0.16-0.1 0.366 0.010 0.514 0.128-0.102 0.336-0.267 0.7-0.528-0.027-0.036-0.058-0.069-0.097-0.096zM10.922 18.025c-0.069-0.047-0.155-0.076-0.246-0.076-0.243 0-0.44 0.197-0.44 0.44 0 0.147 0.072 0.277 0.183 0.357l0.001 0.001c0.069 0.047 0.155 0.076 0.246 0.076 0.243 0 0.44-0.197 0.44-0.44 0-0.147-0.072-0.277-0.183-0.357l-0.001-0.001zM11.709 18.103c0.070 0.049 0.157 0.079 0.251 0.079 0.149 0 0.281-0.074 0.36-0.187l0.001-0.001c0.049-0.070 0.079-0.157 0.079-0.251 0-0.243-0.197-0.44-0.44-0.44s-0.44 0.197-0.44 0.44c0 0.149 0.074 0.281 0.187 0.36l0.001 0.001zM10.458 14.901c0.195 0.109 0.444 0.056 0.574-0.131 0.109-0.157 0.101-0.359-0.005-0.507-0.196 0.204-0.385 0.417-0.57 0.638zM10.42 16.169c0.070 0.049 0.157 0.079 0.251 0.079 0.243 0 0.44-0.197 0.44-0.44 0-0.149-0.074-0.281-0.187-0.36l-0.001-0.001c-0.070-0.049-0.157-0.079-0.251-0.079-0.243 0-0.44 0.197-0.44 0.44 0 0.149 0.074 0.281 0.187 0.36l0.001 0.001zM9.13 16.813c0.070 0.049 0.158 0.079 0.252 0.079 0.243 0 0.44-0.197 0.44-0.44 0-0.18-0.108-0.335-0.263-0.403l-0.003-0.001c-0.169 0.223-0.339 0.45-0.514 0.68 0.025 0.031 0.054 0.061 0.089 0.085zM9.633 18.669c-0.067-0.047-0.142-0.070-0.218-0.076 0.060 0.043 0.12 0.085 0.18 0.126s0.119 0.080 0.18 0.118c-0.032-0.065-0.078-0.124-0.142-0.168zM9.13 18.102c0.070 0.049 0.157 0.079 0.251 0.079 0.149 0 0.281-0.074 0.36-0.187l0.001-0.001c0.049-0.070 0.079-0.157 0.079-0.251 0-0.243-0.197-0.44-0.44-0.44s-0.44 0.197-0.44 0.44c0 0.149 0.074 0.281 0.187 0.36l0.001 0.001zM25.869 17.44c-0.003-0.009-0.007-0.017-0.011-0.026-0.011-0.021-0.060-0.089-0.134-0.19 0.027 0.087 0.078 0.161 0.145 0.215l0.001 0.001zM24.492 16.202c-0.047 0.069-0.076 0.154-0.076 0.247 0 0.243 0.197 0.44 0.44 0.44 0.147 0 0.277-0.072 0.357-0.183l0.001-0.001c0.020-0.029 0.035-0.059 0.047-0.090-0.435-0.58-0.585-0.774-0.736-0.968l0.278 0.372c-0.121 0.014-0.237 0.076-0.312 0.184zM23.816 15.447c-0.070-0.049-0.157-0.079-0.251-0.079-0.243 0-0.44 0.197-0.44 0.44 0 0.149 0.074 0.281 0.187 0.36l0.001 0.001c0.070 0.049 0.157 0.079 0.251 0.079 0.243 0 0.44-0.197 0.44-0.44 0-0.149-0.074-0.281-0.187-0.36l-0.001-0.001zM23.217 19.408c0.203-0.044 0.372-0.092 0.538-0.15l-0.031 0.009c-0.047-0.019-0.102-0.030-0.16-0.030-0.141 0-0.266 0.066-0.346 0.169l-0.001 0.001zM24.492 18.78c-0.034 0.048-0.058 0.105-0.070 0.167l-0 0.003c0.177-0.102 0.32-0.194 0.46-0.291l-0.019 0.013c0.031-0.021 0.063-0.044 0.095-0.067-0.171-0.041-0.358 0.022-0.465 0.175zM23.816 18.026c-0.069-0.047-0.154-0.076-0.247-0.076-0.243 0-0.44 0.197-0.44 0.44 0 0.147 0.072 0.277 0.183 0.357l0.001 0.001c0.069 0.047 0.154 0.076 0.247 0.076 0.243 0 0.44-0.197 0.44-0.44 0-0.147-0.072-0.277-0.183-0.357l-0.001-0.001zM24.602 18.104c0.072 0.053 0.162 0.084 0.259 0.084 0.243 0 0.44-0.197 0.44-0.44 0-0.152-0.077-0.287-0.195-0.366l-0.002-0.001c-0.069-0.046-0.153-0.074-0.244-0.074-0.243 0-0.44 0.197-0.44 0.44 0 0.146 0.071 0.275 0.18 0.355l0.001 0.001zM23.313 14.88c0.177 0.123 0.412 0.098 0.56-0.048-0.198-0.236-0.39-0.448-0.59-0.652l0.002 0.002c-0.030 0.025-0.058 0.052-0.081 0.086-0.049 0.070-0.079 0.157-0.079 0.251 0 0.149 0.074 0.281 0.187 0.36l0.001 0.001zM22.024 14.236c0.070 0.049 0.157 0.079 0.251 0.079 0.149 0 0.281-0.074 0.36-0.187l0.001-0.001c0.049-0.070 0.079-0.157 0.079-0.251 0-0.243-0.197-0.44-0.44-0.44s-0.44 0.197-0.44 0.44c0 0.149 0.074 0.281 0.187 0.36l0.001 0.001zM20.625 12.978c-0.049 0.070-0.079 0.157-0.079 0.251 0 0.243 0.197 0.44 0.44 0.44 0.149 0 0.281-0.074 0.36-0.187l0.001-0.001c0.049-0.070 0.079-0.157 0.079-0.251 0-0.243-0.197-0.44-0.44-0.44-0.149 0-0.281 0.074-0.36 0.187l-0.001 0.001zM23.925 17.349c0.049-0.070 0.079-0.157 0.079-0.251 0-0.243-0.197-0.44-0.44-0.44-0.149 0-0.281 0.074-0.36 0.187l-0.001 0.001c-0.049 0.070-0.079 0.157-0.079 0.251 0 0.243 0.197 0.44 0.44 0.44 0.149 0 0.281-0.074 0.36-0.187l0.001-0.001zM21.399 17.244c0.016-0.044 0.025-0.094 0.025-0.147 0-0.104-0.036-0.199-0.096-0.274l0.001 0.001c0.027 0.137 0.050 0.279 0.070 0.419zM22.024 16.814c0.070 0.049 0.157 0.079 0.251 0.079 0.243 0 0.44-0.197 0.44-0.44 0-0.149-0.074-0.281-0.187-0.36l-0.001-0.001c-0.070-0.049-0.157-0.079-0.251-0.079-0.243 0-0.44 0.197-0.44 0.44 0 0.149 0.074 0.281 0.187 0.36l0.001 0.001zM22.024 15.525c0.070 0.049 0.157 0.079 0.251 0.079 0.243 0 0.44-0.197 0.44-0.44 0-0.149-0.074-0.281-0.187-0.36l-0.001-0.001c-0.070-0.049-0.157-0.079-0.251-0.079-0.243 0-0.44 0.197-0.44 0.44 0 0.149 0.074 0.281 0.187 0.36l0.001 0.001zM22.526 18.67c-0.169-0.118-0.392-0.099-0.54 0.031 0.314 0.226 0.539 0.393 0.761 0.564l-0.071-0.053c0.086-0.19 0.028-0.419-0.149-0.542zM22.023 18.103c0.070 0.049 0.157 0.079 0.251 0.079 0.243 0 0.44-0.197 0.44-0.44 0-0.149-0.074-0.281-0.187-0.36l-0.001-0.001c-0.070-0.049-0.157-0.079-0.251-0.079-0.243 0-0.44 0.197-0.44 0.44 0 0.149 0.074 0.281 0.187 0.36l0.001 0.001zM20.734 14.88c0.069 0.047 0.154 0.075 0.247 0.075 0.243 0 0.44-0.197 0.44-0.44 0-0.147-0.072-0.277-0.183-0.357l-0.001-0.001c-0.069-0.047-0.154-0.075-0.247-0.075-0.243 0-0.44 0.197-0.44 0.44 0 0.147 0.072 0.277 0.183 0.357l0.001 0.001zM19.948 14.802c-0.070-0.049-0.157-0.079-0.251-0.079-0.085 0-0.164 0.024-0.232 0.066l0.002-0.001c-0.112 0.257-0.181 0.402-0.252 0.546l0.047-0.105c0.018 0.123 0.086 0.227 0.181 0.295l0.001 0.001c0.070 0.049 0.156 0.078 0.25 0.078 0.243 0 0.44-0.197 0.44-0.44 0-0.148-0.073-0.28-0.186-0.359l-0.001-0.001zM20.058 14.125c0.13-0.187 0.093-0.439-0.077-0.585-0.151 0.411-0.255 0.666-0.363 0.918l0.056-0.146c0.147 0.007 0.294-0.057 0.384-0.187zM20.734 17.459c0.070 0.049 0.157 0.079 0.251 0.079 0.149 0 0.281-0.074 0.36-0.187l0.001-0.001c0.003-0.004 0.004-0.009 0.007-0.013-0.022-0.168-0.049-0.336-0.083-0.503-0.006-0.029-0.012-0.056-0.018-0.084-0.005-0.004-0.010-0.009-0.015-0.013-0.070-0.049-0.157-0.079-0.251-0.079-0.149 0-0.281 0.074-0.36 0.187l-0.001 0.001c-0.049 0.070-0.079 0.157-0.079 0.251 0 0.149 0.074 0.281 0.187 0.36l0.001 0.001zM18.464 16.663c0.011 0.034 0.078 0.051 0.224 0.099-0.010-0.008-0.019-0.018-0.030-0.025-0.060-0.042-0.127-0.064-0.194-0.073zM20.624 15.557c-0.049 0.070-0.079 0.157-0.079 0.251 0 0.149 0.074 0.281 0.187 0.36l0.001 0.001c0.114 0.079 0.252 0.095 0.376 0.059-0.101-0.294-0.173-0.381-0.139-0.397 0.021-0.010 0.040 0.018 0.049 0.040 0.047 0.113 0.095 0.226 0.14 0.34 0.077-0.033 0.14-0.085 0.186-0.15l0.001-0.001c0.047-0.069 0.076-0.155 0.076-0.247 0-0.243-0.197-0.44-0.44-0.44-0.147 0-0.277 0.072-0.357 0.183l-0.001 0.001zM19.948 16.091c-0.071-0.051-0.159-0.081-0.254-0.081-0.243 0-0.44 0.197-0.44 0.44 0 0.15 0.075 0.283 0.19 0.362l0.001 0.001c0.070 0.048 0.156 0.077 0.248 0.077 0.243 0 0.44-0.197 0.44-0.44 0-0.148-0.073-0.279-0.184-0.358l-0.001-0.001zM21.388 18.213c-0.033-0.077-0.085-0.14-0.15-0.186l-0.001-0.001c-0.070-0.049-0.157-0.079-0.251-0.079-0.028 0-0.055 0.003-0.081 0.007l0.003-0c0.37 0.247 0.458 0.323 0.481 0.259z"></path>
<path fill="#4217a6" d="M12.852 26.92c2.395 1.271 6.188 1.353 8.682-0.006 1.105-0.583 1.22-1.011 1.366-0.847 0.034 0.038 0.033 0.097-0.002 0.134-2.717 2.891-8.989 2.712-11.4-0.008-0.078-0.088 0.047-0.21 0.133-0.13-0 0 0.76 0.619 1.221 0.857zM19.011 21.741c-0.83 1.509-2.428 2.907-4.087 3.517-0.113 0.042-0.188-0.117-0.085-0.179 3.41-2.030 3.899-3.661 4.149-3.455 0.021 0.017 0.034 0.043 0.034 0.072 0 0.016-0.004 0.032-0.012 0.045l0-0z"></path>
<path fill="#4217a6" d="M19.365 24.356c-0.743 0.931-2.119 1.631-3.354 1.654-0.001 0-0.001 0-0.002 0-0.054 0-0.099-0.044-0.1-0.098v-0c-0.003-0.135 0.123-0.078 0.944-0.379 1.985-0.739 2.358-1.505 2.514-1.291 0.011 0.015 0.018 0.035 0.018 0.055 0 0.022-0.008 0.043-0.020 0.059l0-0zM25.124 17.056c-0.161 0.232-0.357 0.44-0.57 0.627-0.615 0.542-1.495 0.955-2.294 1.025-0.113 0.010-0.153-0.149-0.046-0.192 0.253-0.103 0.5-0.205 0.743-0.316 0.539-0.252 0.928-0.476 1.384-0.789 0.637-0.441 0.69-0.58 0.78-0.465 0.026 0.033 0.026 0.079 0.003 0.112zM9.409 16.927c1.998 1.555 2.889 1.476 2.776 1.73-0.016 0.035-0.051 0.059-0.092 0.059-0.004 0-0.008-0-0.012-0.001l0 0c-1.022-0.122-2.219-0.798-2.809-1.662-0.060-0.088 0.051-0.193 0.135-0.127l0.001 0z"></path>
<path fill="#000e3f" opacity="0.25" d="M20.304 20.526c0.030-0.013 0.070 0.034 0.111 0.075 1.521 1.512 1.617 1.326 1.647 1.524 0.215 1.453 0.762 2.576 1.356 3.777 0.817 1.651-2.713 2.75-4.529 3.038-1.222 0.194-2.159 0.289-4.15-0.147-0.954-0.209-2.198-0.605-2.971-1.151-0.043-0.031-0.044-0.051-0.005-0.093 2.342-2.535 8.015 1.465 8.736-3.152 0.222-1.423-0.295-3.826-0.195-3.871zM20.288 17.486c0.080-0.437 0.361-1.419 0.595-1.667 0.059-0.062 0.128-0.079 0.208-0.049 0.692 0.257 1.142 1.164 1.507 1.621 0.471 0.589 1.107 1.086 1.858 1.191 0.135 0.019 0.272 0.053 0.412 0.026 0.024-0.005 0.042 0.027 0.014 0.047-0.54 0.375-1.030 0.639-1.794 0.781-0.183 0.034-0.058-0.010-1.599-1.089-0.095-0.067 0.029-0.089-0.030-0.454-0.026-0.16 0.030-0.266-0.151-1.16-0.026-0.128-0.235-0.921-0.339-0.898-0.059 0.013 0.204 0.256 0.377 1.427 0.061 0.41 0.062 0.814 0.052 0.926-0.007 0.076-0.069 0.053-0.131 0.009-0.48-0.34-0.75-0.494-0.945-0.62-0.032-0.021-0.044-0.049-0.033-0.091zM11.35 19.442c-0.089-0.017-0.178-0.032-0.266-0.052-0.866-0.2-1.753-0.794-1.562-0.782 0.429 0.027 1.028-0.125 1.578-0.534 0.722-0.537 0.961-1.137 1.417-1.688 0.211-0.254 0.517-0.541 0.833-0.627 0.043-0.012 0.086-0 0.103 0.049 0.001 0.004-0.011 0.017-0.018 0.017-0.053 0.004-0.068 0.046-0.086 0.085-0.388 0.863-0.464 2.17-0.415 2.342 0.018 0.063-0.029 0.097-0.083 0.134-0.791 0.543-1.338 0.988-1.418 1.039-0.025 0.015-0.052 0.023-0.082 0.018z"></path>
<path fill="#ffcf00" d="M20.102 12.87c-0.357 0.932-1.164 2.734-1.697 3.436-0.046 0.060-0.090 0.103-0.18 0.111-0.135 0.012-0.22 0.099-0.263 0.218-0.104 0.29 0.053 0.362-0.068 0.503-0.15 0.177-0.172 0.295-0.513 0.609-0.16 0.148-0.211 0.141-0.321 0.047-0.268-0.227-0.392-0.423-0.584-0.675-0.033-0.043-0.046-0.075-0.020-0.194 0.043-0.197-0.413-0.541-0.446-0.584-0.768-1.038-1.306-2.271-1.732-3.478 0.683 0.362 1.736 0.594 2.917 0.594 1.175 0 2.223-0.229 2.906-0.587z"></path>
<path fill="#fc09b2" opacity="0.35" d="M15.82 18.335c-0.941 1.438-2.839 3.199-3.806 3.884-2.035 1.443-3.064 0.728-3.053-1.097 0.248-0.092 0.554-0.035 0.829-0.009 0.703 0.068 1.413-0.127 2.044-0.456 0.63-0.33 1.189-0.79 1.716-1.278 0.322-0.297 0.639-0.611 1.015-0.833 0.376-0.221 0.827-0.345 1.245-0.231l0.008 0.019zM25.407 21.138c0 0.011 0 0.023-0.001 0.034-0 1.655-0.88 2.176-2.034 1.65-1.398-0.638-3.778-2.913-4.82-4.513 0.409-0.099 0.846 0.024 1.214 0.239 0.376 0.222 0.693 0.535 1.015 0.833 0.527 0.488 1.086 0.948 1.716 1.278 0.631 0.329 1.341 0.524 2.044 0.456 0.288-0.028 0.612-0.089 0.867 0.024z"></path>
<path fill="#000e3f" d="M22.313 22.322c0.013 0.012 0.025 0.023 0.038 0.032 0.31 0.216 0.616 0.423 0.958 0.578 0.629 0.285 1.169 0.287 1.562 0.007 0.512-0.365 0.748-1.189 0.647-2.261-0.111-1.196-0.283-1.635-0.366-1.845-0.061-0.157-0.061-0.157 0.088-0.283 0.145-0.121 0.276-0.243 0.401-0.371l0.001-0.001c0.113-0.114 0.2-0.245 0.278-0.369 0.128-0.207 0.116-0.401-0.038-0.592-0.293-0.366-0.57-0.735-0.839-1.092-1.376-1.833-2.677-3.563-5.716-4.266-1.171-0.27-2.702-0.23-3.445-0.137-1.328 0.166-2.605 0.628-3.596 1.299-1.231 0.835-2.059 1.928-2.935 3.086l-0.087 0.115c-0.214 0.283-0.361 0.472-0.511 0.66l0.060-0.078c-0.377 0.479-0.49 0.623-0.43 0.807 0.146 0.44 0.51 0.732 0.831 0.99l0.035 0.028c0.037 0.030 0.039 0.031-0.021 0.215-0.015 0.046-0.034 0.104-0.056 0.175-0.041 0.121-0.090 0.301-0.134 0.483l-0.011 0.054c-0.283 1.24-0.313 2.877 0.536 3.411 0.846 0.533 1.953-0.254 2.426-0.59 0.075-0.053 0.136-0.096 0.175-0.12 0.034 0.154-0.311 1.587-1.013 2.988-0.062 0.123-0.115 0.227-0.161 0.317-0.208 0.405-0.271 0.528-0.277 0.8-0.007 0.309 0.136 0.628 0.413 0.921 0.651 0.69 1.622 1.059 2.575 1.355 1.243 0.387 2.359 0.579 3.478 0.579 0.958 0 1.919-0.14 2.965-0.419 0.782-0.209 1.787-0.522 2.617-1.092 0.939-0.646 0.984-1.257 0.856-1.656-0.040-0.123-0.116-0.271-0.222-0.476-0.165-0.32-0.391-0.758-0.653-1.434-0.329-0.851-0.531-1.74-0.518-1.866 0.035-0.003 0.059 0.020 0.086 0.045zM20.398 12.548c0.019-0.069 0.033-0.118 0.048-0.125 0.008-0.004 0.029 0.003 0.044 0.009 2.126 0.837 2.988 1.969 4.295 3.684 0.104 0.136 0.21 0.276 0.32 0.419 0.191 0.25 0.305 0.396 0.421 0.542l-0.071-0.093c0.366 0.466 0.396 0.504 0.323 0.66-0.384 0.817-1.81 1.548-2.663 1.714-0.107 0.021-0.115 0.017-0.381-0.188-0.199-0.154-0.532-0.41-1.15-0.84-0.054-0.037-0.054-0.063-0.050-0.194 0.007-0.183 0.020-0.522-0.127-1.281-0.080-0.419-0.189-0.764-0.325-1.025-0.020-0.040-0.055-0.070-0.090-0.078-0.006-0.002-0.013-0.003-0.021-0.003-0.018 0-0.035 0.006-0.048 0.016l0-0c-0.068 0.049-0.033 0.124 0.001 0.197 0.297 0.622 0.419 1.632 0.411 2.15-0.001 0.027-0.003 0.035-0 0.035h-0.001c-0.018 0-0.090-0.049-0.188-0.117-0.036-0.025-0.078-0.054-0.126-0.086-1.53-1.045-2.196-1.223-2.415-1.282-0.028-0.007-0.048-0.013-0.060-0.018-0-0-0-0-0.001-0 0.006-0.012 0.023-0.036 0.043-0.066 0.093-0.137 0.342-0.5 0.814-1.473 0.258-0.532 0.651-1.474 0.946-2.38 0.023-0.072 0.039-0.129 0.052-0.174zM14.279 12.296c0.736-0.238 1.383-0.373 1.979-0.412 1.317-0.087 2.477-0.049 3.867 0.421 0.128 0.043 0.128 0.043 0.099 0.133-0.005 0.014-0.010 0.030-0.015 0.048-0.044 0.145-0.075 0.235-0.107 0.324l0.017-0.053c-0.011 0.002-0.022 0.005-0.032 0.010-0.706 0.394-1.759 0.619-2.89 0.619-1.138-0-2.196-0.228-2.9-0.626-0.010-0.005-0.020-0.007-0.030-0.010-0.029-0.088-0.059-0.178-0.086-0.263-0.046-0.145-0.046-0.145 0.099-0.191zM9.010 18.174c-0.175-0.157-0.277-0.308-0.394-0.514-0.057-0.099-0.050-0.191 0.019-0.282 0.173-0.226 0.349-0.462 0.52-0.69 1.327-1.774 2.699-3.609 4.778-4.267 0.009-0.003 0.011-0.003 0.011-0.003 0.010 0.006 0.028 0.066 0.053 0.148 0.064 0.211 0.196 0.649 0.573 1.585 0.383 0.951 0.796 1.764 1.227 2.419 0.019 0.029 0.036 0.054 0.039 0.062-0.006 0.012-0.066 0.032-0.13 0.052-0.286 0.094-1.046 0.343-2.591 1.43-0.040 0.028-0.053 0.030-0.053 0.033 0-0-0.001-0.002-0.001-0.008-0.013-0.484 0.098-1.267 0.252-1.784 0.021-0.072 0.069-0.209 0.178-0.452l0.005-0.013c0.022-0.061-0.006-0.113-0.045-0.133-0.034-0.017-0.089-0.015-0.131 0.047-0.284 0.422-0.54 2.037-0.469 2.436 0.009 0.049 0.009 0.049-0.136 0.149-0.065 0.045-0.154 0.106-0.279 0.198-0.494 0.358-0.701 0.512-0.907 0.668l0.272-0.196c-0.425 0.317-0.426 0.317-0.485 0.303l-0.008-0.002c-0.049-0.012-0.098-0.023-0.146-0.034-0.084-0.019-0.171-0.040-0.255-0.062-0.619-0.169-1.327-0.577-1.895-1.091zM11.226 22.633c-0.579 0.316-1.082 0.392-1.454 0.221-0.327-0.151-0.555-0.494-0.66-0.991-0.051-0.244-0.072-0.47-0.064-0.691 0.011-0.388 0.038-0.732 0.082-1.050 0.068-0.492 0.258-1.15 0.32-1.296 0.009-0.020 0.015-0.026 0.018-0.027 0.001-0 0.002-0 0.003-0v0c0.018 0 0.063 0.030 0.119 0.068 0.054 0.036 0.128 0.086 0.229 0.146 0.598 0.35 1.007 0.445 1.203 0.491 0.062 0.015 0.121 0.028 0.129 0.037l0.002 0.005c-0.014 0.017-0.082 0.070-0.233 0.189-0.147 0.115-0.393 0.308-0.78 0.617-0.032 0.025-0.051 0.047-0.061 0.070-0.014 0.032-0.009 0.063 0.013 0.092 0.037 0.047 0.091 0.051 0.145 0.011 0.082-0.062 0.215-0.166 0.383-0.298 1.082-0.851 3.956-3.11 5.326-3.395 0.141-0.029 0.244-0.027 0.292 0.072 0.466 0.97-3.181 4.731-5.013 5.73zM22.626 24.39c0.27 0.655 0.472 1.043 0.605 1.299 0.191 0.366 0.255 0.49 0.228 0.794-0.024 0.276-0.189 0.545-0.503 0.823-0.195 0.173-0.43 0.334-0.717 0.494-1.598 0.888-4.406 1.542-7.077 1.001-1.292-0.262-2.628-0.617-3.65-1.436-0.36-0.289-0.554-0.586-0.592-0.907-0.030-0.248 0.050-0.404 0.243-0.782 0.023-0.034 0.098-0.181 0.171-0.328l0.053-0.118c0.686-1.422 0.965-2.632 0.992-2.995 0.001-0.009 0.003-0.017 0.005-0.026 0.024-0.127 0.024-0.127 0.126-0.206 0.741-0.571 1.405-1.198 2.152-2.030 0.588-0.655 2.26-2.537 1.715-3.227-0.063-0.080-0.145-0.123-0.238-0.126-0.053-0.002-0.080-0.026-0.108-0.066-0.772-1.111-1.29-2.402-1.665-3.508 0.73 0.359 1.746 0.565 2.832 0.565 1.075 0 2.083-0.202 2.813-0.555-0.143 0.384-1.382 3.528-1.786 3.568-0.258 0.024-0.347 0.329-0.311 0.583 0.051 0.353 0.259 0.689 0.441 0.989 0.204 0.336 0.434 0.656 0.676 0.966 0.509 0.651 1.075 1.26 1.673 1.83 0.369 0.352 0.751 0.694 1.16 1 0.010 0.008 0.020 0.014 0.030 0.021 0.051 0.035 0.092 0.063 0.108 0.175 0.096 0.705 0.384 1.613 0.627 2.201zM20.031 20.028c-1.685-1.793-2.297-3.213-1.705-3.212 0.546 0 1.874 0.747 3.759 2.115 1.003 0.727 1.522 1.155 1.8 1.385 0.28 0.231 0.33 0.272 0.392 0.215 0.024-0.023 0.036-0.046 0.034-0.072-0.004-0.069-0.097-0.14-0.323-0.312-0.168-0.128-0.42-0.319-0.75-0.601 0.031-0.012 0.081-0.025 0.144-0.041 0.263-0.069 0.753-0.197 1.376-0.61 0.016-0.011 0.031-0.022 0.047-0.033 0.038-0.027 0.073-0.053 0.115-0.068 0.098 0.155 0.387 1.256 0.396 1.89v0c0 0.014 0.003 0.040 0.006 0.075 0.021 0.217 0.077 0.795-0.121 1.372-0.122 0.358-0.317 0.601-0.576 0.721-0.3 0.139-0.687 0.117-1.15-0.066-0.793-0.311-2.209-1.446-3.442-2.758z"></path>
<path fill="#ffbbec" d="M18.849 18.191c0.465-0.074 0.569-0.096 0.638-0.349 0.285-1.044-0.563-2.363-1.257-3.199-0.123-0.148-0.399-0.441-0.585-0.496-0.117-0.035-0.126 0.157-0.117 0.279 0.010 0.132 0.049 0.258 0.083 0.386 0.071 0.27 0.208 0.247 0.644 0.779 0.004 0.004-0 0.020-0.005 0.025s-0.021 0.007-0.025 0.004c-0.317-0.319-1.385-1.462-1.922-1.749-0.148-0.079-0.222-0.049-0.278 0.107-0.014 0.037-0.023 0.080-0.023 0.125 0 0.022 0.002 0.043 0.006 0.063l-0-0.002c0.039 0.235 0.037 0.237 0.222 0.388 0.392 0.32 1.312 1.202 1.385 1.282 0.011 0.012-0.016 0.027-0.023 0.024-0.121-0.037-1.538-1.572-2.164-1.769-0.104-0.033-0.156-0.001-0.181 0.106-0.039 0.162 0.027 0.326 0.095 0.495 0.015 0.038 0.043 0.062 0.077 0.085 0.563 0.389 0.996 0.78 1.689 1.379 0.017 0.014 0.058 0.049 0.047 0.067-0.047 0.079-1.309-1.179-1.894-1.466-0.101-0.050-0.175-0.031-0.166 0.121 0.025 0.399 0.385 0.749 0.698 1.007 0.848 0.7 0.909 0.683 0.908 0.76-0.044 0.004-0.026 0.017-0.423-0.3-0.135-0.108-0.923-0.542-1.136-0.507-0.139 0.023-0.196 0.141-0.119 0.26 0.053 0.082 0.113 0.161 0.189 0.223 0.145 0.118 0.541 0.555 1.368 1.144 0.219 0.156 0.452 0.287 0.68 0.429 0.282 0.175 0.589 0.28 0.904 0.368 0.105 0.029 0.55-0.043 0.69-0.066z"></path>
<path fill="#000e3f" d="M19.666 17.328c-0.023-0.689-0.363-1.363-0.645-1.808-0.193-0.305-0.69-1.050-1.14-1.393-0.121-0.092-0.248-0.129-0.34-0.099-0.062 0.021-0.107 0.071-0.128 0.146-0.038 0.134-0.019 0.255-0.005 0.344 0.006 0.037 0.011 0.071 0.011 0.097-0.051-0.045-0.093-0.083-0.136-0.123l0.004 0.004c-0.471-0.432-0.934-0.827-1.135-0.804-0.244 0.030-0.26 0.245-0.27 0.374-0.003 0.036-0.007 0.090-0.017 0.096 0-0-0.005 0.001-0.020-0.008-0.177-0.109-0.397-0.244-0.558-0.199-0.059 0.017-0.106 0.056-0.138 0.119-0.085 0.165-0.042 0.32-0.013 0.423 0.010 0.035 0.019 0.067 0.016 0.082-0.001 0.008-0.005 0.011-0.032 0.015-0.014 0.002-0.029 0.005-0.042 0.012-0.048 0.026-0.080 0.070-0.095 0.129-0.101 0.411 0.241 0.772 0.405 0.945 0.030 0.032 0.061 0.064 0.076 0.084-0.017-0.003-0.050-0.011-0.109-0.031-0.175-0.059-0.338-0.033-0.438 0.071-0.070 0.074-0.091 0.172-0.056 0.264 0.052 0.135 0.149 0.238 0.236 0.324 0.762 0.755 2.236 2.027 3.546 2.068l0.11 0.005-0.118-0.181c-0.020-0.030-0.052-0.050-0.089-0.052l-0-0c-1.184-0.091-2.596-1.343-3.12-1.821-0.089-0.081-0.153-0.14-0.191-0.17-0.045-0.036-0.082-0.087-0.118-0.136l-0.020-0.027c-0.038-0.051-0.055-0.092-0.027-0.136 0.087-0.133 0.574 0.126 0.808 0.25 0.032 0.017 0.061 0.032 0.086 0.045 0.22 0.114 0.382 0.249 0.5 0.348 0.14 0.117 0.232 0.194 0.3 0.122 0.021-0.023 0.032-0.047 0.030-0.073-0.003-0.037-0.030-0.075-0.082-0.116 0.031 0.021-0.038-0.032-0.106-0.085l-0.104-0.077c-0.598-0.459-1.275-0.98-1.33-1.424l-0.002-0.017c-0.005-0.039-0.012-0.083 0.012-0.101 0.048-0.037 0.374 0.156 1.651 1.275 0.073 0.064 0.128 0.113 0.158 0.138l0.008 0.007c0.059 0.050 0.139 0.119 0.211 0.047 0.020-0.020 0.029-0.040 0.028-0.062-0.002-0.055-0.066-0.108-0.218-0.236-0.125-0.104-0.231-0.196-0.336-0.29l0.009 0.008c-0.595-0.538-0.935-0.777-1.118-0.905-0.094-0.066-0.145-0.102-0.16-0.129-0.069-0.131-0.105-0.269-0.107-0.411-0.001-0.076 0.028-0.088 0.038-0.093 0.225-0.098 1.293 0.912 1.806 1.398 0.218 0.206 0.362 0.342 0.407 0.37 0.037 0.022 0.089 0.012 0.121-0.023 0.025-0.028 0.038-0.075 0-0.122-0.039-0.050-0.897-0.848-0.939-0.887-0.12-0.111-0.251-0.226-0.384-0.338l-0.017-0.014c-0.183-0.153-0.226-0.19-0.241-0.306-0.002-0.013-0.004-0.024-0.007-0.035l0.001 0.003c-0.012-0.053-0.030-0.134 0.012-0.244 0.013-0.034 0.028-0.054 0.046-0.061 0.019-0.008 0.046-0.003 0.083 0.014 0.42 0.197 1.23 1.029 1.665 1.475 0.126 0.13 0.226 0.232 0.279 0.281 0.036 0.033 0.087 0.032 0.123-0.003 0.015-0.014 0.032-0.034 0.033-0.063 0.001-0.062-0.074-0.139-0.297-0.365-0.075-0.076-0.154-0.157-0.233-0.239l-0.010-0.011-0.013-0.013c-0.029-0.030-0.056-0.057-0.068-0.095-0.107-0.335-0.146-0.609-0.092-0.652 0.016-0.013 0.045-0 0.067 0.012 0.475 0.28 1.64 1.741 1.764 2.915 0.004 0.041 0.028 0.076 0.065 0.094l0.15 0.074z"></path>
<path fill="#ffbbec" d="M15.66 18.223c-0.457-0.11-0.675-0.183-0.724-0.441-0.202-1.063 0.748-2.312 1.506-3.090 0.134-0.137 0.432-0.408 0.623-0.448 0.12-0.025 0.113 0.167 0.095 0.287-0.020 0.131-0.069 0.254-0.113 0.378-0.092 0.264-0.227 0.23-0.703 0.726-0.004 0.004-0.002 0.020 0.003 0.025s0.021 0.009 0.025 0.005c0.341-0.293 1.496-1.348 2.054-1.592 0.154-0.067 0.225-0.032 0.269 0.128 0.009 0.029 0.014 0.063 0.014 0.098 0 0.031-0.004 0.062-0.012 0.091l0.001-0.002c-0.058 0.231-0.055 0.233-0.252 0.369-0.416 0.288-1.402 1.095-1.481 1.169-0.012 0.011 0.014 0.028 0.021 0.026 0.123-0.028 1.657-1.446 2.297-1.593 0.106-0.024 0.155 0.011 0.173 0.12 0.026 0.164-0.053 0.323-0.134 0.486-0.018 0.037-0.048 0.058-0.083 0.078-0.592 0.344-1.055 0.699-1.792 1.242-0.018 0.013-0.062 0.044-0.052 0.063 0.041 0.083 1.397-1.072 2.004-1.313 0.105-0.041 0.177-0.017 0.156 0.133-0.056 0.396-0.443 0.716-0.775 0.949-0.9 0.631-0.96 0.609-0.965 0.686 0.044 0.007 0.024 0.019 0.445-0.265 0.143-0.097 0.963-0.468 1.172-0.416 0.137 0.034 0.184 0.156 0.098 0.268-0.059 0.077-0.125 0.151-0.206 0.207-0.154 0.106-0.583 0.51-1.454 1.033-0.23 0.138-0.473 0.251-0.711 0.374-0.295 0.153-0.609 0.233-0.93 0.296-0.107 0.021-0.43-0.044-0.568-0.077z"></path>
<path fill="#000e3f" d="M19.652 16.11c-0.091-0.111-0.251-0.15-0.43-0.105-0.061 0.015-0.094 0.021-0.111 0.023 0.017-0.019 0.050-0.049 0.082-0.078 0.178-0.16 0.547-0.492 0.479-0.91-0.010-0.061-0.038-0.105-0.084-0.136-0.013-0.008-0.028-0.012-0.041-0.015-0.026-0.006-0.030-0.009-0.030-0.017-0.001-0.014 0.010-0.046 0.023-0.080 0.037-0.1 0.092-0.252 0.020-0.422-0.027-0.065-0.070-0.108-0.128-0.129-0.157-0.058-0.387 0.060-0.572 0.155-0.015 0.008-0.021 0.007-0.021 0.007-0.009-0.007-0.009-0.061-0.009-0.097 0-0.129 0.001-0.345-0.24-0.394-0.198-0.040-0.691 0.318-1.195 0.712-0.056 0.043-0.109 0.085-0.14 0.108 0.002-0.026 0.010-0.059 0.018-0.096 0.021-0.087 0.049-0.207 0.022-0.344-0.015-0.076-0.056-0.13-0.116-0.156-0.089-0.038-0.219-0.011-0.347 0.072-0.476 0.306-1.030 1.010-1.246 1.299-0.316 0.421-0.708 1.067-0.785 1.751l-0.004 0.038 0.216-0.087 0.002-0.013c0.179-1.174 1.498-2.61 2.003-2.856 0.023-0.011 0.053-0.021 0.067-0.007 0.050 0.047-0.010 0.318-0.143 0.643-0.015 0.036-0.044 0.062-0.076 0.089l-0.014 0.012c-0.045 0.041-0.131 0.116-0.217 0.191l-0.046 0.039c-0.24 0.209-0.321 0.279-0.325 0.341-0.002 0.029 0.014 0.050 0.027 0.066 0.034 0.038 0.084 0.043 0.123 0.013 0.057-0.044 0.164-0.139 0.3-0.258 0.469-0.411 1.341-1.176 1.776-1.339 0.038-0.014 0.066-0.017 0.084-0.008s0.031 0.030 0.041 0.065c0.034 0.113 0.009 0.192-0.007 0.245-0.003 0.008-0.006 0.018-0.008 0.029l-0.001 0.003c-0.024 0.115-0.071 0.148-0.265 0.286-0.1 0.071-0.237 0.169-0.427 0.318-0.047 0.037-0.964 0.764-1.006 0.81-0.041 0.045-0.032 0.092-0.010 0.122 0.029 0.038 0.080 0.052 0.119 0.033 0.047-0.024 0.202-0.148 0.435-0.337 0.55-0.444 1.693-1.368 1.91-1.251 0.009 0.005 0.038 0.020 0.030 0.095-0.013 0.141-0.060 0.276-0.139 0.401-0.016 0.026-0.071 0.058-0.169 0.116-0.192 0.114-0.55 0.325-1.186 0.814-0.087 0.068-0.2 0.152-0.315 0.234l-0.032 0.022c-0.162 0.116-0.23 0.163-0.236 0.218-0.003 0.021 0.005 0.042 0.023 0.064 0.065 0.077 0.151 0.015 0.214-0.031l0.008-0.006c0.032-0.023 0.090-0.067 0.168-0.125 1.362-1.016 1.702-1.182 1.747-1.142 0.023 0.020 0.013 0.063 0.004 0.102l-0.004 0.017c-0.090 0.438-0.807 0.904-1.439 1.315-0.229 0.144-0.301 0.191-0.373 0.239l0.151-0.095c-0.055 0.037-0.085 0.072-0.091 0.109-0.004 0.026 0.004 0.051 0.024 0.076 0.062 0.077 0.16 0.007 0.308-0.098 0.125-0.089 0.297-0.211 0.526-0.308 0.026-0.011 0.056-0.024 0.089-0.038 0.243-0.105 0.748-0.325 0.825-0.186 0.025 0.046 0.005 0.085-0.037 0.133l-0.022 0.025c-0.039 0.046-0.080 0.094-0.128 0.126-0.041 0.027-0.109 0.081-0.204 0.155-0.569 0.442-2.080 1.615-3.277 1.577l-0.014-0-0.007 0.013c-0.044 0.087-0.074 0.142-0.105 0.196l0.015-0.029-0.018 0.032 0.036 0.002c0.034 0.002 0.068 0.002 0.102 0.002 1.287 0 2.798-1.111 3.596-1.785 0.093-0.079 0.198-0.174 0.261-0.304 0.043-0.088 0.030-0.188-0.035-0.267z"></path>
<path fill="#ffbbec" d="M15.652 12.511c0.122-0.591 0.193-1.063 0.233-1.418 0.053-0.459 0.058-0.725 0.067-0.802 0.002-0.015-0.017-1.509 0.809-2.049 0.815-0.533 1.669 0.54 1.67 2.046 0 0.237 0.024 0.52 0.061 0.811 0.062 0.499 0.161 1.028 0.238 1.411z"></path>
<path fill="#fc09b2" opacity="0.35" d="M18.492 11.101c-0.32 0.452-0.784 0.737-1.302 0.737-0.52-0-0.985-0.287-1.305-0.744 0.053-0.459 0.058-0.725 0.067-0.802 0.002-0.015-0.017-1.509 0.809-2.049 0.815-0.533 1.669 0.54 1.67 2.046-0 0.237 0.024 0.52 0.061 0.811z"></path>
<path fill="#000e3f" d="M15.652 12.624c-0.062 0-0.113-0.050-0.113-0.113 0-0.008 0.001-0.016 0.002-0.023l-0 0.001c0.105-0.512 0.183-0.985 0.232-1.408 0.037-0.321 0.050-0.546 0.058-0.679 0.003-0.058 0.006-0.099 0.009-0.123 0.005-0.372 0.083-1.623 0.86-2.13 0.29-0.19 0.611-0.207 0.905-0.049 0.561 0.303 0.939 1.183 0.94 2.19 0 0.217 0.020 0.485 0.060 0.797 0.049 0.392 0.126 0.85 0.236 1.403 0.001 0.007 0.002 0.014 0.002 0.022 0 0.054-0.039 0.1-0.090 0.11l-0.001 0c-0.007 0.001-0.014 0.002-0.022 0.002-0.054 0-0.1-0.039-0.111-0.090l-0-0.001c-0.112-0.558-0.19-1.022-0.239-1.419-0.041-0.321-0.062-0.599-0.062-0.825-0.001-0.912-0.338-1.73-0.821-1.991-0.223-0.121-0.45-0.107-0.674 0.039-0.701 0.458-0.754 1.7-0.758 1.944-0 0.010-0.001 0.019-0.002 0.029l0-0.001c-0.002 0.017-0.004 0.054-0.007 0.106-0.008 0.136-0.021 0.364-0.059 0.692-0.049 0.429-0.128 0.909-0.235 1.427-0.011 0.052-0.056 0.090-0.11 0.090v0z"></path>
<path fill="#ffbbec" d="M19.8 7.338c-0 0.435-0.105 0.915 0.302 0.915 1.207 0 1.385-1.703 0.434-1.703-0.407 0-0.736 0.353-0.736 0.788zM14.583 7.338c-0 0.435 0.104 0.915-0.302 0.915-1.207-0-1.385-1.703-0.434-1.703 0.407 0 0.736 0.353 0.736 0.788z"></path>
<path fill="#fc09b2" opacity="0.35" d="M20.558 7.58c-0.212 0.134-0.28 0.042-0.237-0.021 0.071-0.105 0.162-0.181 0.302-0.367 0.071-0.096 0.107-0.197 0.169-0.153 0.082 0.057 0.030 0.371-0.234 0.541zM13.76 7.192c0.1 0.133 0.153 0.184 0.194 0.233 0.087 0.098 0.116 0.145 0.108 0.134 0.030 0.045-0.009 0.104-0.062 0.093-0.261-0.051-0.492-0.341-0.431-0.583 0.011-0.044 0.069-0.054 0.094-0.017-0-0 0.067 0.101 0.096 0.14z"></path>
<path fill="#000e3f" d="M20.102 8.366c-0.125 0-0.225-0.038-0.296-0.112-0.147-0.153-0.136-0.415-0.125-0.694 0.003-0.065 0.006-0.142 0.006-0.22v-0.002c0-0.497 0.381-0.9 0.849-0.9 0.226 0 0.414 0.084 0.544 0.243 0.114 0.139 0.177 0.331 0.177 0.542 0 0.562-0.432 1.144-1.155 1.143zM20.536 6.663c-0.344-0-0.624 0.303-0.624 0.675 0 0.077-0.003 0.155-0.006 0.231-0.009 0.219-0.018 0.445 0.062 0.528 0.010 0.011 0.041 0.043 0.134 0.043 0.604 0 0.93-0.473 0.93-0.918 0-0.159-0.045-0.3-0.125-0.399-0.087-0.106-0.212-0.16-0.37-0.161zM14.281 8.366c-0.723-0-1.155-0.582-1.155-1.144 0-0.211 0.063-0.403 0.177-0.542 0.13-0.159 0.319-0.243 0.544-0.243 0.468 0 0.849 0.404 0.849 0.901 0 0.074 0.003 0.149 0.006 0.222 0.011 0.278 0.022 0.541-0.125 0.693-0.072 0.075-0.171 0.112-0.296 0.112zM13.847 6.662c-0.158 0-0.283 0.054-0.37 0.16-0.081 0.099-0.126 0.24-0.126 0.399-0 0.445 0.326 0.918 0.93 0.918 0.092 0 0.123-0.032 0.134-0.043 0.080-0.084 0.071-0.31 0.062-0.528-0.003-0.077-0.006-0.155-0.006-0.231-0-0.372-0.28-0.675-0.624-0.675z"></path>
<path fill="#ffbbec" d="M19.658 9.44c-0.385 0.625-1.294 1.52-2.456 1.533h-0.022c-1.162-0.014-2.071-0.908-2.456-1.534-0.704-1.145-0.544-3.418-0.026-4.506 0.501-1.052 1.405-1.61 2.482-1.634 0.004-0.001 0.008-0.001 0.012-0.001 0.003 0 0.007 0 0.011 0.001 1.078 0.024 1.981 0.582 2.482 1.634 0.518 1.089 0.677 3.361-0.027 4.506z"></path>
<path fill="#fc09b2" opacity="0.35" d="M18.894 7.616c-0.394-0-0.715 0.262-0.715 0.584s0.321 0.585 0.715 0.585c0.394 0 0.715-0.262 0.715-0.585s-0.321-0.585-0.715-0.585zM15.498 7.616c-0.394-0-0.715 0.262-0.715 0.584s0.321 0.585 0.715 0.585c0.394 0 0.715-0.262 0.715-0.585s-0.321-0.585-0.715-0.585z"></path>
<path fill="#000e3f" d="M19.787 4.885c-0.509-1.068-1.424-1.671-2.577-1.698-0.013-0.002-0.021-0.002-0.040 0-1.152 0.028-2.065 0.631-2.573 1.698-0.499 1.048-0.735 3.367 0.032 4.614 0.358 0.583 1.299 1.573 2.552 1.587h0.024c1.252-0.014 2.192-1.004 2.55-1.587 0.767-1.247 0.532-3.566 0.033-4.614zM19.562 9.381c-0.334 0.543-1.207 1.466-2.36 1.48h-0.021c-1.154-0.014-2.027-0.937-2.361-1.48-0.66-1.074-0.551-3.284-0.021-4.399 0.471-0.989 1.317-1.546 2.383-1.57 0.003-0 0.006-0 0.009-0.001s0.006 0 0.009 0.001c1.066 0.023 1.912 0.581 2.383 1.57 0.53 1.114 0.639 3.325-0.021 4.399z"></path>
<path fill="#000e3f" d="M18.029 5.845c-0.001 0.436 1.071 0.687 1.185 0.233 0.134-0.535-1.183-0.802-1.185-0.233zM16.354 5.845c-0.002-0.569-1.319-0.301-1.185 0.233 0.114 0.454 1.186 0.203 1.185-0.233zM18.946 6.599c-0.062 0-0.113 0.050-0.113 0.113 0 0.255-0.156 0.383-0.302 0.394-0.135 0.009-0.311-0.079-0.353-0.364-0.008-0.055-0.055-0.096-0.111-0.096-0.062 0-0.113 0.050-0.113 0.113 0 0.006 0 0.012 0.001 0.017l-0-0.001c0.058 0.389 0.314 0.557 0.555 0.557 0.013 0 0.026-0 0.038-0.001 0.253-0.019 0.51-0.237 0.51-0.619-0-0.062-0.050-0.113-0.113-0.113v0zM16.333 6.646c-0.005-0.001-0.011-0.001-0.017-0.001-0.056 0-0.103 0.041-0.111 0.095l-0 0.001c-0.043 0.285-0.217 0.374-0.354 0.364-0.145-0.011-0.302-0.139-0.302-0.394 0-0.062-0.050-0.113-0.113-0.113s-0.113 0.050-0.113 0.113v0c0 0.381 0.257 0.6 0.51 0.619 0.013 0.001 0.026 0.001 0.038 0.001 0.24 0 0.496-0.168 0.555-0.557 0.001-0.005 0.001-0.011 0.001-0.017 0-0.056-0.041-0.103-0.095-0.111l-0.001-0zM17.923 8.399c-0.006-0.001-0.014-0.002-0.022-0.002-0.055 0-0.1 0.039-0.11 0.090l-0 0.001c-0.055 0.281-0.306 0.485-0.599 0.485h-0.003c-0.291-0.002-0.541-0.205-0.596-0.485-0.010-0.052-0.056-0.091-0.11-0.091-0.008 0-0.015 0.001-0.023 0.002l0.001-0c-0.052 0.010-0.091 0.056-0.091 0.111 0 0.008 0.001 0.015 0.002 0.022l-0-0.001c0.075 0.384 0.418 0.665 0.816 0.667h0.005c0.4 0 0.745-0.28 0.82-0.667 0.001-0.006 0.002-0.014 0.002-0.021 0-0.055-0.039-0.1-0.090-0.111l-0.001-0zM17.279 8.176c0.062-0 0.112-0.052 0.113-0.114-0-0.062-0.052-0.112-0.113-0.113-0.114 0.001-0.363-0.057-0.425-0.151-0.010-0.016-0.018-0.037-0.001-0.077 0.007-0.015 0.4-0.942 0.406-0.975 0.020-0.112-0.105-0.179-0.182-0.1-0.050 0.051-0.44 1.005-0.448 1.034-0.008 0.025-0.012 0.055-0.012 0.085 0 0.005 0 0.010 0 0.015l-0-0.001c0.003 0.051 0.020 0.101 0.050 0.144 0.137 0.209 0.518 0.252 0.612 0.253z"></path>
<path fill="#000e3f" d="M21.767 1.651c-0.849-0.767-2.149-0.318-2.708 0.592-0.425-0.148-0.89-0.165-1.357-0.006-0.587 0.2-0.395 0.261-0.774 0.090-0.522-0.236-1.096-0.227-1.618-0.045-0.546-0.936-1.87-1.41-2.731-0.632-1.227 1.109-0.57 2.986 0.89 3.189-0.040 0.58 0.075 1.147 0.309 1.603 0.156 0.303 0.48 0.313 0.73 0.139 0.824-0.575 1.948-1.896 2.547-3.1l0.002-0.004c-0.141 0.697 0 1.316 0.418 1.769 0.021 0.022 0.050 0.036 0.083 0.036 0.030 0 0.056-0.011 0.077-0.030l-0 0c0.022-0.021 0.036-0.050 0.036-0.083 0-0.030-0.011-0.056-0.030-0.077l0 0c-0.392-0.424-0.506-1.022-0.335-1.701 0.207 0.422 0.505 1.092 1.567 2.275 0.257 0.286 0.871 0.873 1.099 0.971 0.416 0.179 0.614-0.063 0.759-0.478 0.115-0.319 0.182-0.687 0.182-1.070 0-0.090-0.004-0.179-0.011-0.266l0.001 0.012c1.442-0.221 2.085-2.082 0.865-3.185z"></path>
<path fill="#ffcf00" d="M15.33 2.349c-0.24 0.135-0.461 0.286-0.659 0.462-0.198 0.176-0.377 0.373-0.523 0.588-0.151 0.213-0.27 0.45-0.364 0.695-0.093 0.247-0.151 0.505-0.182 0.776l-0 0.003c-0.006 0.054-0.052 0.096-0.107 0.096-0.052 0-0.095-0.037-0.106-0.086l-0-0.001c-0.061-0.295-0.045-0.607 0.031-0.902 0.074-0.295 0.205-0.576 0.379-0.826 0.177-0.25 0.393-0.469 0.643-0.64 0.248-0.173 0.529-0.301 0.822-0.356 0.006-0.001 0.012-0.002 0.019-0.002 0.050 0 0.091 0.035 0.1 0.082l0 0.001c0.001 0.006 0.002 0.012 0.002 0.019 0 0.038-0.021 0.071-0.051 0.089l-0.001 0-0.002 0.001zM19.082 2.16c0.294 0.056 0.574 0.184 0.822 0.357 0.25 0.171 0.466 0.391 0.643 0.64 0.174 0.251 0.305 0.531 0.379 0.827 0.075 0.294 0.092 0.606 0.031 0.902-0.010 0.050-0.054 0.087-0.106 0.087-0.056 0-0.101-0.042-0.107-0.096l-0-0-0-0.003c-0.031-0.271-0.089-0.529-0.182-0.776-0.094-0.245-0.213-0.482-0.364-0.695-0.147-0.215-0.326-0.412-0.523-0.588-0.199-0.176-0.419-0.328-0.659-0.462l-0.002-0.001c-0.031-0.018-0.052-0.051-0.052-0.089 0-0.056 0.046-0.102 0.102-0.102 0.007 0 0.013 0.001 0.020 0.002l-0.001-0z"></path>
<path fill="#4217a6" d="M16.304 2.811c-0.008-0.003-0.018-0.005-0.027-0.005-0.037 0-0.068 0.024-0.080 0.057l-0 0.001c-0.185 0.532-0.479 1.002-0.846 1.418-0.365 0.418-0.795 0.778-1.257 1.11-0.023 0.017-0.038 0.043-0.038 0.074 0 0.012 0.002 0.023 0.006 0.033l-0-0.001c0.013 0.034 0.046 0.058 0.084 0.058 0.012 0 0.023-0.002 0.033-0.006l-0.001 0c0.277-0.107 0.537-0.255 0.779-0.43s0.464-0.378 0.662-0.603c0.196-0.228 0.369-0.478 0.499-0.751 0.131-0.272 0.221-0.567 0.243-0.867 0-0.002 0-0.004 0-0.006 0-0.037-0.024-0.068-0.057-0.080l-0.001-0zM14.359 4.29c0.116-0.037 0.22-0.095 0.317-0.162s0.186-0.147 0.268-0.234c0.158-0.176 0.292-0.385 0.338-0.627 0.001-0.005 0.002-0.011 0.002-0.016 0-0.049-0.039-0.088-0.088-0.088-0.023 0-0.044 0.009-0.060 0.024l0-0-0.002 0.002c-0.166 0.156-0.303 0.31-0.45 0.464-0.143 0.157-0.292 0.307-0.428 0.493-0.011 0.016-0.018 0.035-0.018 0.056 0 0.010 0.002 0.020 0.004 0.029l-0-0.001c0.012 0.038 0.048 0.066 0.089 0.066 0.010 0 0.020-0.002 0.029-0.005l-0.001 0zM13.072 3.916c-0.122-0.195-0.216-0.382-0.295-0.588-0.081-0.204-0.14-0.415-0.207-0.643l-0.001-0.003c-0.011-0.036-0.044-0.063-0.084-0.063s-0.071 0.025-0.083 0.059l-0 0.001c-0.042 0.127-0.052 0.26-0.042 0.391 0.008 0.132 0.039 0.261 0.085 0.385 0.049 0.123 0.112 0.242 0.198 0.346 0.085 0.104 0.19 0.197 0.316 0.252 0.011 0.005 0.024 0.008 0.037 0.008 0.051 0 0.093-0.041 0.093-0.093 0-0.018-0.005-0.035-0.014-0.050l0 0-0.002-0.004zM13.872 1.647c-0.236-0.060-0.492-0.048-0.705 0.064-0.030 0.016-0.050 0.047-0.050 0.083 0 0.046 0.034 0.085 0.078 0.092l0.001 0 0.003 0.001c0.213 0.035 0.4 0.056 0.584 0.105 0.185 0.045 0.355 0.113 0.554 0.195l0.004 0.002c0.010 0.004 0.021 0.006 0.033 0.006 0.049 0 0.088-0.039 0.088-0.088 0-0.016-0.004-0.031-0.012-0.044l0 0c-0.121-0.211-0.343-0.352-0.578-0.415zM13.295 2.328c-0.075-0.041-0.152-0.079-0.233-0.109s-0.165-0.055-0.258-0.064c-0.003-0-0.006-0-0.009-0-0.054 0-0.097 0.044-0.097 0.097 0 0.022 0.007 0.043 0.020 0.059l-0-0c0.056 0.074 0.122 0.133 0.19 0.186s0.141 0.099 0.215 0.141c0.151 0.080 0.309 0.148 0.494 0.168 0.003 0 0.006 0.001 0.010 0.001 0.050 0 0.091-0.041 0.091-0.091 0-0.021-0.007-0.041-0.019-0.056l0 0c-0.114-0.147-0.255-0.245-0.403-0.332zM20.252 5.392c-0.462-0.332-0.892-0.692-1.257-1.11-0.367-0.416-0.661-0.886-0.845-1.418-0.012-0.034-0.043-0.057-0.080-0.057-0.002 0-0.004 0-0.006 0l0-0c-0.044 0.003-0.078 0.040-0.078 0.084 0 0.002 0 0.004 0 0.007l-0-0c0.022 0.3 0.113 0.595 0.243 0.867 0.13 0.274 0.303 0.524 0.498 0.751 0.198 0.226 0.42 0.429 0.662 0.603s0.502 0.324 0.779 0.43c0.010 0.004 0.021 0.006 0.032 0.006 0.050 0 0.090-0.040 0.090-0.090 0-0.030-0.015-0.057-0.038-0.073l-0-0zM19.402 3.894c0.082 0.087 0.17 0.167 0.268 0.234s0.201 0.126 0.317 0.162c0.027 0.008 0.059 0.004 0.084-0.014 0.042-0.031 0.051-0.090 0.020-0.131-0.136-0.186-0.285-0.336-0.428-0.493-0.147-0.154-0.285-0.308-0.45-0.464l-0.002-0.002c-0.016-0.015-0.037-0.023-0.060-0.023-0.049 0-0.088 0.039-0.088 0.088 0 0.006 0.001 0.011 0.002 0.017l-0-0.001c0.046 0.242 0.179 0.451 0.337 0.627zM21.985 3.071c0.009-0.131 0-0.265-0.042-0.391-0.012-0.035-0.045-0.060-0.083-0.060-0.040 0-0.073 0.026-0.084 0.062l-0 0.001-0.001 0.003c-0.067 0.229-0.125 0.439-0.207 0.643-0.079 0.206-0.173 0.393-0.295 0.588l-0.003 0.004c-0.009 0.014-0.014 0.031-0.014 0.049 0 0.051 0.041 0.093 0.093 0.093 0.014 0 0.026-0.003 0.038-0.008l-0.001 0c0.126-0.055 0.231-0.147 0.316-0.252 0.086-0.104 0.149-0.223 0.198-0.346 0.045-0.124 0.076-0.254 0.085-0.385zM20.005 2.188l0.003-0.001c0.199-0.082 0.369-0.151 0.554-0.195 0.184-0.049 0.371-0.070 0.584-0.104l0.004-0.001c0.045-0.008 0.078-0.046 0.078-0.092 0-0.036-0.020-0.067-0.050-0.083l-0-0c-0.213-0.112-0.469-0.124-0.705-0.064-0.234 0.063-0.457 0.205-0.578 0.415-0.007 0.013-0.012 0.028-0.012 0.044 0 0.049 0.039 0.088 0.088 0.088 0.012 0 0.023-0.002 0.034-0.007l-0.001 0zM21.649 2.244c-0.005-0.050-0.047-0.088-0.097-0.088-0.003 0-0.006 0-0.010 0l0-0c-0.093 0.009-0.177 0.034-0.258 0.064-0.082 0.029-0.158 0.068-0.233 0.109-0.148 0.087-0.289 0.185-0.403 0.332-0.012 0.015-0.019 0.035-0.019 0.056 0 0.050 0.041 0.091 0.091 0.091 0.003 0 0.007-0 0.010-0.001l-0 0c0.185-0.020 0.343-0.088 0.494-0.168 0.074-0.043 0.147-0.087 0.215-0.141s0.134-0.112 0.19-0.186c0.014-0.019 0.022-0.043 0.019-0.068z"></path>
<path fill="#000e3f" d="M6.866 13.177c-0.134-0.106-0.6-0.481-0.703-0.563-0.159 0.151-0.2 0.164-0.232 0.198 0.304 0.77 0.747 1.529 0.773 1.594 0.003 0 0.003 0 0.005-0.001 0.176-0.142 0.257-0.19 0.274-0.213 0.002-0.001 0.002-0.005 0.004-0.007-0.023-0.121-0.141-0.283-0.171-0.393 0.058-0.046 0.048-0.051 0.122-0.093 0.095 0.048 0.245 0.186 0.342 0.245l0.002-0.001c0.097-0.048 0.201-0.121 0.267-0.198l-0.002-0.002-0.683-0.566zM6.623 13.573c-0.26-0.442-0.463-0.724 0.144-0.114-0.049 0.038-0.098 0.080-0.144 0.114zM8.021 13.402c-0.633-0.879-0.738-1.027-0.756-1.071-0.001-0.002-0.001-0.005-0.002-0.008l0.002-0.001 0.004-0.003c0.124-0.095 0.191-0.147 0.249-0.172-0.053-0.108-0.142-0.236-0.21-0.322-0.3 0.163-0.597 0.383-0.873 0.577 0.002 0.002 0.003 0.001 0.005 0.002 0.079 0.136 0.205 0.301 0.23 0.314 0.040-0.012 0.176-0.134 0.261-0.145l0.004 0.001c0.558 0.738 0.743 1.056 0.766 1.077 0.087-0.084 0.236-0.16 0.324-0.246l-0.001-0.002-0.002-0.002zM9.623 12.105c-0.006-0.017-0.016-0.034-0.024-0.049-0.065 0.047-0.523 0.247-0.57 0.296l-0.001-0.002c-0.198-0.377-0.451-0.793-0.646-1.175-0.102 0.010-0.306 0.128-0.351 0.184 0.343 0.606 0.479 0.828 0.81 1.495l0.021 0.039c0.706-0.373 0.793-0.446 0.858-0.473 0.061-0.033 0.073-0.026-0.052-0.229-0.015-0.023-0.031-0.057-0.044-0.086zM10.245 11.209c-0.106-0.134-0.474-0.605-0.555-0.709-0.189 0.11-0.232 0.113-0.271 0.14 0.12 0.82 0.377 1.66 0.388 1.729 0.004 0.001 0.004 0.001 0.006 0 0.204-0.098 0.294-0.126 0.316-0.144 0.002-0.001 0.004-0.004 0.006-0.005 0.006-0.123-0.073-0.308-0.076-0.421 0.067-0.031 0.059-0.038 0.14-0.063 0.081 0.069 0.196 0.237 0.277 0.317l0.002-0.001c0.106-0.025 0.224-0.072 0.305-0.131l-0.001-0.002-0.535-0.708zM9.918 11.54c-0.152-0.49-0.285-0.811 0.166-0.078-0.056 0.026-0.113 0.056-0.166 0.078zM11.472 10.785c-0.141-0.097-0.323-0.133-0.494-0.087-0.068 0.016-0.135 0.023-0.189-0.041-0.010-0.020-0.023-0.039-0.024-0.063-0.042-0.183 0.283-0.238 0.311-0.055 0.12-0.012 0.246-0.072 0.347-0.132l0.002-0.001c-0.046-0.248-0.199-0.361-0.377-0.38-0.174-0.009-0.397 0.053-0.523 0.174-0.248 0.237-0.225 0.713 0.164 0.873 0.058 0.020 0.121 0.030 0.188 0.017 0.139-0.025 0.33-0.075 0.406 0.066 0.12 0.201-0.219 0.327-0.307 0.135-0.103 0.043-0.25 0.081-0.353 0.14l0.003 0.007 0.003 0.007c0.095 0.301 0.456 0.36 0.729 0.262 0.192-0.067 0.342-0.221 0.343-0.439 0.012-0.188-0.068-0.386-0.23-0.482zM12.659 11.236l-0.001-0.002c-0.333-1.032-0.387-1.204-0.392-1.252-0-0.002 0.001-0.005 0-0.008l0.002-0.001 0.005-0.002c0.147-0.052 0.227-0.082 0.29-0.088-0.018-0.119-0.063-0.268-0.102-0.371-0.336 0.063-0.686 0.182-1.008 0.282 0.001 0.002 0.003 0.002 0.004 0.004 0.034 0.153 0.103 0.35 0.122 0.37 0.042 0 0.208-0.073 0.294-0.058l0.003 0.002c0.306 0.874 0.384 1.234 0.399 1.26 0.108-0.053 0.274-0.080 0.384-0.134l-0.001-0.002zM5.825 10.789c0.287-0.141 0.412-0.519 0.261-0.799-0.012-0.021-0.024-0.038-0.036-0.055l0.001 0.001-0.001-0.002c-0.351-0.44-0.926-0.094-1.195 0.232 0.336 0.436 0.711 1 1.006 1.38 0.098-0.055 0.271-0.175 0.331-0.249 0.002-0.001 0.002-0.005 0.004-0.006l-0.001-0.002c-0.289-0.384-0.31-0.43-0.37-0.5zM5.59 10.525l-0.006 0.004c-0.084-0.062-0.159-0.197-0.234-0.29 0.001-0.003 0.003-0.005 0.005-0.006 0.071-0.084 0.176-0.138 0.281-0.131 0.101-0.008 0.18 0.082 0.179 0.174-0.018 0.111-0.144 0.182-0.224 0.248zM7.698 10.345c-0.028-0.099-0.090-0.201-0.152-0.288l-0.003-0.004c-0.189 0.123-0.375 0.213-0.562 0.326l-0.003-0.001c-0.047-0.064-0.125-0.173-0.16-0.265 0.015-0.041 0.169-0.103 0.242-0.179-0.065-0.103-0.11-0.206-0.183-0.292l-0.001-0.002c-0.088 0.051-0.176 0.107-0.265 0.152l-0.003-0.001c-0.065-0.065-0.1-0.165-0.152-0.247l0.001-0.003 0.006-0.004c0.176-0.13 0.384-0.213 0.54-0.362l-0.001-0.002c-0.060-0.1-0.107-0.21-0.182-0.301-0.008-0.013-0.551 0.329-0.87 0.545 0.267 0.502 0.579 0.959 0.877 1.451 0.288-0.143 0.582-0.35 0.872-0.523zM7.8 10.293c0.199-0.106 0.289-0.138 0.309-0.157 0.002-0.001 0.003-0.004 0.006-0.006 0.001-0.123-0.085-0.305-0.093-0.418 0.066-0.034 0.057-0.041 0.137-0.068 0.084 0.065 0.205 0.229 0.289 0.305l0.002-0.001c0.105-0.029 0.22-0.081 0.3-0.144l-0.001-0.002-0.564-0.685c-0.111-0.129-0.498-0.585-0.584-0.686-0.185 0.118-0.227 0.123-0.265 0.151 0.153 0.814 0.445 1.642 0.458 1.711 0.003 0.001 0.003 0.001 0.005-0zM8.035 9.376c-0.055 0.028-0.111 0.060-0.163 0.084-0.172-0.483-0.318-0.798 0.163-0.084zM8.189 8.596c0.208 0.493 0.313 0.726 0.42 0.939 0.137 0.243 0.445 0.2 0.648 0.076 0.328-0.152 0.392-0.586 0.153-0.855-0.097 0.013-0.219 0.093-0.31 0.12 0.017 0.082 0.072 0.152 0.069 0.238-0.003 0.074-0.057 0.128-0.126 0.15-0.1 0.014-0.173-0.067-0.221-0.152-0.109-0.199-0.277-0.631-0.275-0.651-0.001-0.008-0.003-0.026 0.001-0.035 0.014-0.036 0.062-0.062 0.098-0.086 0.174-0.084 0.22 0.12 0.291 0.232 0.125-0.030 0.235-0.062 0.335-0.136-0.039-0.484-0.637-0.676-0.993-0.357-0.038 0.030-0.070 0.063-0.093 0.103-0.034 0.077-0.046 0.161-0.038 0.252 0.002 0.053 0.012 0.114 0.042 0.163zM10.882 8.951c-0.007-0.103-0.047-0.215-0.089-0.313l-0.002-0.005c-0.21 0.082-0.411 0.132-0.617 0.204l-0.003-0.001c-0.033-0.072-0.087-0.195-0.103-0.292 0.024-0.037 0.187-0.066 0.274-0.126-0.043-0.114-0.066-0.224-0.119-0.323l-0.001-0.002c-0.097 0.031-0.194 0.068-0.29 0.094l-0.003-0.002c-0.051-0.077-0.064-0.182-0.099-0.273l0.002-0.003 0.007-0.002c0.199-0.091 0.42-0.13 0.602-0.244l-0.001-0.003c-0.039-0.11-0.062-0.228-0.117-0.332-0.005-0.014-0.607 0.209-0.963 0.355 0.158 0.546 0.37 1.058 0.561 1.6 0.311-0.081 0.641-0.223 0.96-0.333z"></path>
<path fill="#915efd" d="M10.696 30.681c-0.002 0.015-0.003 0.032-0.003 0.050 0 0.254 0.206 0.46 0.46 0.46s0.46-0.206 0.46-0.46c0-0.236-0.178-0.431-0.408-0.457l-0.002-0c-0.015-0.002-0.032-0.003-0.050-0.003-0.236 0-0.431 0.178-0.457 0.408l-0 0.002zM3.702 6.807c-0.002 0.016-0.003 0.035-0.003 0.055 0 0.254 0.206 0.46 0.46 0.46 0.238 0 0.434-0.181 0.457-0.412l0-0.002c0.001-0.014 0.002-0.029 0.002-0.045 0-0.254-0.206-0.46-0.46-0.46-0.235 0-0.428 0.176-0.456 0.403l-0 0.002zM16.176 0.41c-0.002 0.016-0.003 0.035-0.003 0.055 0 0.254 0.206 0.46 0.46 0.46 0.238 0 0.434-0.181 0.457-0.412l0-0.002c0.001-0.014 0.002-0.029 0.002-0.045 0-0.254-0.206-0.46-0.46-0.46-0.235 0-0.428 0.176-0.456 0.403l-0 0.002zM27.312 15.882c-0.001 0.012-0.002 0.027-0.002 0.042 0 0.254 0.206 0.46 0.46 0.46 0.233 0 0.426-0.174 0.456-0.399l0-0.002c0.001-0.014 0.002-0.030 0.002-0.046 0-0.254-0.206-0.46-0.46-0.46-0.235 0-0.429 0.176-0.456 0.404l-0 0.002z"></path>
<path fill="#fd8a02" d="M5.058 17.185c-0.093 0.221-0.258 0.335-0.478 0.376-0.26 0.048-0.408-0.076-0.409 0.101-0.002 0.235 0.076 0.445 0.216 0.629 0.125 0.164 0.13 0.154 0.258 0.013 0.187-0.207 0.423-0.289 0.701-0.251 0.3 0.041 0.473 0.424 0.219 0.669-0.438 0.423-0.98-0.006-0.793 0.409 0.129 0.286 0.486 0.415 0.355 0.585-0.060 0.077-0.182 0.061-0.249 0.007-0.265-0.212-0.453-0.471-0.463-0.824-0.003-0.111-0.040-0.186-0.119-0.26-0.262-0.245-0.397-0.554-0.425-0.909-0.023-0.292 0.097-0.314-0.060-0.497-0.243-0.283-0.296-0.765 0.022-1.098 0.169-0.177 0.323-0.040 0.263 0.056-0.089 0.142-0.332 0.369-0.098 0.808 0.048 0.090 0.115-0.026 0.236-0.113 0.258-0.187 0.627-0.222 0.804 0.044 0.055 0.083 0.048 0.175 0.019 0.256zM5.315 18.366c-0.212-0.091-0.517 0.14-0.475 0.229 0.032 0.068 0.34 0.072 0.499-0.083 0.046-0.045 0.032-0.122-0.024-0.146zM4.383 17.257c0.194 0.091 0.483-0.165 0.342-0.207-0.187-0.055-0.464 0.149-0.342 0.207zM23.939 5.74c0.177-0.161 0.375-0.196 0.592-0.141 0.256 0.065 0.338 0.24 0.414 0.080 0.1-0.212 0.117-0.436 0.067-0.661-0.045-0.202-0.054-0.194-0.229-0.12-0.256 0.11-0.505 0.085-0.742-0.066-0.135-0.086-0.188-0.219-0.178-0.364 0.027-0.414 0.555-0.454 0.935-0.252 0.169 0.089 0.215 0.064 0.216-0.122 0.002-0.197-0.123-0.431-0.141-0.529-0.035-0.192 0.209-0.223 0.294-0.053 0.151 0.304 0.214 0.618 0.074 0.942-0.044 0.102-0.042 0.186-0.001 0.286 0.217 0.535 0.010 1.083-0.098 1.203-0.205 0.228 0.177 0.438-0.18 0.994-0.103 0.16-0.358 0.327-0.525 0.285-0.088-0.022-0.104-0.136-0.043-0.175 0.141-0.092 0.456-0.196 0.428-0.693-0.006-0.102-0.115-0.025-0.262 0.004-0.313 0.061-0.662-0.061-0.711-0.377-0.015-0.099 0.030-0.179 0.090-0.24zM24.2 4.561c0.099 0.111 0.318 0.133 0.488 0.048 0.161-0.081-0.203-0.277-0.449-0.19-0.061 0.021-0.080 0.097-0.039 0.143zM24.581 5.958c-0.138-0.164-0.508-0.053-0.397 0.044 0.095 0.083 0.484 0.059 0.397-0.044zM18.801 31.74c-0.185-0.152-0.248-0.343-0.225-0.565 0.027-0.263 0.189-0.369 0.019-0.421-0.224-0.068-0.449-0.053-0.664 0.029-0.193 0.073-0.185 0.081-0.085 0.244 0.146 0.238 0.157 0.488 0.042 0.744-0.066 0.146-0.189 0.218-0.335 0.229-0.415 0.033-0.529-0.485-0.385-0.889 0.064-0.18 0.032-0.222-0.152-0.197-0.311 0.043-0.536 0.348-0.662 0.175-0.057-0.079-0.007-0.192 0.064-0.241 0.279-0.194 0.581-0.301 0.921-0.21 0.108 0.029 0.19 0.015 0.283-0.040 0.309-0.182 0.644-0.224 0.993-0.15 0.287 0.061 0.274 0.182 0.493 0.083 0.515-0.231 1.12 0.159 1.086 0.501-0.009 0.090-0.12 0.122-0.167 0.068-0.111-0.125-0.26-0.422-0.747-0.323-0.172 0.035 0.254 0.333 0.017 0.819-0.052 0.106-0.139 0.165-0.245 0.198-0.095 0.029-0.181-0.004-0.251-0.054zM17.596 31.652c0.095-0.114 0.086-0.334-0.023-0.49-0.104-0.148-0.244 0.242-0.123 0.472 0.030 0.057 0.108 0.065 0.147 0.018zM18.923 31.073c-0.142 0.16 0.021 0.51 0.101 0.386 0.106-0.163-0.012-0.488-0.101-0.386zM28.22 22.603c-0.219 0.097-0.418 0.067-0.606-0.054-0.222-0.143-0.244-0.335-0.367-0.207-0.163 0.169-0.25 0.377-0.274 0.606-0.022 0.205-0.011 0.201 0.179 0.186 0.278-0.023 0.506 0.080 0.682 0.298 0.101 0.125 0.109 0.267 0.053 0.402-0.158 0.385-0.672 0.252-0.967-0.058-0.132-0.138-0.183-0.129-0.244 0.047-0.103 0.297 0.069 0.635-0.143 0.669-0.096 0.015-0.174-0.081-0.186-0.166-0.047-0.336-0.007-0.654 0.229-0.917 0.074-0.083 0.099-0.163 0.092-0.271-0.023-0.358 0.091-0.675 0.314-0.954 0.184-0.229 0.286-0.163 0.297-0.402 0.026-0.564 0.648-0.928 0.938-0.743 0.077 0.049 0.055 0.162-0.015 0.18-0.162 0.042-0.494 0.041-0.625 0.521-0.046 0.169 0.412-0.076 0.739 0.355 0.071 0.094 0.084 0.199 0.066 0.308-0.017 0.098-0.085 0.16-0.162 0.199zM27.598 23.638c-0.059-0.136-0.259-0.228-0.448-0.2-0.179 0.026 0.105 0.327 0.365 0.323 0.064-0.001 0.107-0.066 0.082-0.123zM27.681 22.192c0.079 0.199 0.465 0.212 0.39 0.084-0.098-0.168-0.44-0.21-0.39-0.084z"></path>
<path fill="#fc09b2" d="M10.080 1.51c-0.108-0.108-0.336-0.084-0.429-0.069-0.224 0.041-0.4 0.082-0.574 0.129l0.051-0.012c0.126-0.124 0.246-0.251 0.362-0.382l0.007-0.008c0.089-0.105 0.225-0.303 0.135-0.453-0.048-0.080-0.112-0.101-0.157-0.105-0.15-0.012-0.311 0.153-0.371 0.225-0.004 0.004-0.166 0.201-0.324 0.428 0.026-0.276 0.030-0.53 0.030-0.536 0-0.138-0.025-0.377-0.19-0.433-0.088-0.030-0.151-0.005-0.188 0.021-0.125 0.089-0.138 0.318-0.138 0.412 0 0.005 0.003 0.224 0.024 0.476-0.090-0.141-0.187-0.281-0.272-0.391h-0c-0.084-0.109-0.25-0.283-0.415-0.226-0.088 0.030-0.122 0.088-0.135 0.132-0.044 0.147 0.085 0.336 0.143 0.41 0.096 0.124 0.226 0.272 0.355 0.408-0.178-0.057-0.368-0.109-0.521-0.142-0.135-0.029-0.374-0.054-0.463 0.096-0.048 0.080-0.036 0.146-0.018 0.188 0.061 0.14 0.282 0.201 0.374 0.22 0.154 0.033 0.348 0.062 0.534 0.082-0.173 0.071-0.351 0.154-0.49 0.229-0.121 0.065-0.32 0.2-0.291 0.372 0.015 0.092 0.067 0.135 0.108 0.155 0.034 0.017 0.072 0.023 0.111 0.023 0.121 0 0.254-0.063 0.317-0.097 0.138-0.074 0.305-0.178 0.46-0.283-0.062 0.117-0.138 0.279-0.207 0.443l-0.018 0.047c-0.050 0.128-0.115 0.36 0.018 0.472 0.049 0.042 0.097 0.054 0.136 0.054 0.017 0 0.033-0.002 0.046-0.006 0.148-0.038 0.244-0.245 0.279-0.333 0.057-0.146 0.118-0.332 0.168-0.512 0.064 0.27 0.144 0.513 0.146 0.519 0.044 0.13 0.145 0.349 0.319 0.349h0c0.093-0 0.144-0.044 0.171-0.081 0.089-0.125 0.028-0.345-0.002-0.434-0.078-0.217-0.146-0.381-0.219-0.542l0.018 0.045c0.121 0.090 0.266 0.189 0.415 0.282l0.030 0.018v0c0.080 0.048 0.206 0.11 0.32 0.11 0.054 0 0.106-0.014 0.149-0.050 0.071-0.060 0.081-0.127 0.078-0.172-0.013-0.153-0.202-0.281-0.283-0.33-0.005-0.003-0.225-0.131-0.475-0.249 0.209-0.015 0.392-0.036 0.573-0.064l-0.040 0.005c0.136-0.022 0.368-0.086 0.396-0.258 0.015-0.092-0.020-0.15-0.052-0.182z"></path>
<path fill="#fff" d="M8.194 1.905c-0 0.002-0 0.004-0 0.007 0 0.197 0.16 0.357 0.357 0.357s0.357-0.16 0.357-0.357c0-0.002-0-0.005-0-0.007v0c-0.004-0.194-0.162-0.35-0.357-0.35s-0.353 0.156-0.357 0.35v0z"></path>
<path fill="#fc09b2" d="M27.658 28.745c-0.108-0.108-0.336-0.084-0.429-0.069-0.224 0.041-0.401 0.082-0.574 0.129l0.051-0.012c0.126-0.124 0.246-0.251 0.362-0.382l0.007-0.008c0.089-0.105 0.225-0.303 0.135-0.453-0.048-0.080-0.112-0.101-0.157-0.105-0.15-0.012-0.311 0.153-0.372 0.225-0.101 0.123-0.208 0.262-0.309 0.405l-0.015 0.023c0.026-0.276 0.030-0.53 0.030-0.536 0-0.138-0.025-0.377-0.19-0.433-0.088-0.030-0.151-0.005-0.188 0.021-0.125 0.089-0.138 0.318-0.138 0.412 0 0.005 0.003 0.224 0.024 0.476-0.090-0.141-0.186-0.281-0.272-0.391h-0c-0.084-0.109-0.25-0.283-0.415-0.226-0.088 0.030-0.122 0.088-0.135 0.132-0.044 0.147 0.085 0.336 0.143 0.41 0.096 0.124 0.226 0.272 0.355 0.408-0.178-0.057-0.368-0.109-0.521-0.142-0.135-0.029-0.374-0.054-0.463 0.096-0.048 0.080-0.036 0.146-0.018 0.188 0.061 0.14 0.282 0.201 0.374 0.22 0.154 0.033 0.348 0.062 0.534 0.082-0.173 0.071-0.351 0.154-0.49 0.229-0.121 0.065-0.32 0.2-0.291 0.372 0.015 0.092 0.067 0.135 0.108 0.155 0.034 0.017 0.072 0.023 0.111 0.023 0.121 0 0.254-0.063 0.317-0.097 0.138-0.074 0.305-0.178 0.46-0.283-0.062 0.117-0.138 0.279-0.207 0.443l-0.018 0.047c-0.050 0.128-0.115 0.36 0.018 0.472 0.049 0.042 0.097 0.054 0.136 0.054 0.017 0 0.033-0.002 0.046-0.006 0.148-0.038 0.244-0.245 0.279-0.333 0.057-0.146 0.118-0.332 0.168-0.512 0.054 0.225 0.104 0.399 0.16 0.569l-0.015-0.051c0.044 0.13 0.145 0.348 0.319 0.349h0c0.093-0 0.144-0.044 0.171-0.081 0.089-0.125 0.028-0.345-0.003-0.434-0.078-0.217-0.146-0.381-0.219-0.542l0.018 0.045c0.121 0.090 0.266 0.189 0.415 0.282l0.030 0.018v0c0.080 0.048 0.206 0.11 0.32 0.11 0.054 0 0.106-0.014 0.149-0.050 0.071-0.060 0.081-0.127 0.078-0.172-0.013-0.153-0.202-0.281-0.282-0.33-0.005-0.003-0.225-0.131-0.475-0.249 0.209-0.015 0.392-0.036 0.573-0.064l-0.040 0.005c0.136-0.023 0.368-0.086 0.396-0.258 0.015-0.092-0.020-0.149-0.052-0.181z"></path>
<path fill="#fff" d="M25.771 29.14c0 0.197 0.16 0.357 0.357 0.357s0.357-0.16 0.357-0.357v0c0-0.197-0.16-0.357-0.357-0.357s-0.357 0.16-0.357 0.357v0z"></path>
<path fill="#fc09b2" d="M26.093 11.014c-0.108-0.108-0.336-0.084-0.429-0.069-0.224 0.041-0.401 0.082-0.574 0.129l0.051-0.012c0.126-0.124 0.246-0.251 0.362-0.382l0.007-0.008c0.089-0.105 0.225-0.303 0.135-0.453-0.048-0.080-0.112-0.101-0.157-0.105-0.15-0.012-0.311 0.153-0.372 0.225-0.101 0.123-0.208 0.262-0.309 0.405l-0.015 0.023c0.026-0.276 0.030-0.53 0.030-0.536 0-0.138-0.025-0.377-0.19-0.433-0.088-0.030-0.151-0.005-0.188 0.021-0.125 0.089-0.138 0.318-0.138 0.412 0 0.005 0.003 0.224 0.024 0.476-0.090-0.141-0.186-0.281-0.272-0.391h-0c-0.084-0.109-0.25-0.283-0.415-0.226-0.088 0.030-0.122 0.088-0.135 0.132-0.044 0.147 0.085 0.336 0.143 0.41 0.096 0.124 0.226 0.272 0.355 0.408-0.178-0.057-0.368-0.109-0.521-0.142-0.135-0.029-0.374-0.054-0.463 0.096-0.048 0.080-0.036 0.146-0.018 0.188 0.061 0.14 0.282 0.201 0.374 0.22 0.154 0.033 0.348 0.062 0.534 0.082-0.173 0.071-0.351 0.154-0.49 0.229-0.121 0.065-0.32 0.2-0.291 0.372 0.015 0.092 0.067 0.135 0.108 0.155 0.034 0.017 0.072 0.023 0.111 0.023 0.121 0 0.254-0.063 0.317-0.097 0.138-0.074 0.305-0.178 0.46-0.283-0.062 0.117-0.138 0.279-0.207 0.443l-0.018 0.047c-0.050 0.128-0.115 0.36 0.018 0.472 0.049 0.042 0.097 0.054 0.136 0.054 0.016 0 0.032-0.002 0.048-0.006l-0.001 0c0.148-0.037 0.244-0.245 0.279-0.333 0.057-0.146 0.118-0.332 0.168-0.512 0.054 0.225 0.104 0.399 0.16 0.569l-0.015-0.051c0.044 0.13 0.145 0.348 0.319 0.348h0c0.093-0 0.144-0.044 0.171-0.081 0.089-0.125 0.028-0.345-0.003-0.434-0.078-0.217-0.146-0.381-0.219-0.542l0.018 0.045c0.121 0.090 0.266 0.189 0.415 0.282l0.030 0.018v0c0.080 0.048 0.206 0.11 0.32 0.11 0.054 0 0.106-0.014 0.149-0.050 0.071-0.060 0.081-0.127 0.078-0.172-0.013-0.153-0.202-0.281-0.283-0.33-0.005-0.003-0.225-0.131-0.475-0.249 0.209-0.015 0.392-0.036 0.573-0.064l-0.040 0.005c0.136-0.023 0.368-0.086 0.396-0.258 0.015-0.092-0.020-0.149-0.052-0.181z"></path>
<path fill="#fff" d="M24.207 11.409c0 0.197 0.16 0.357 0.357 0.357s0.357-0.16 0.357-0.357v0c0-0.197-0.16-0.357-0.357-0.357s-0.357 0.16-0.357 0.357v0z"></path>
<path fill="#fc09b2" d="M8.45 25.499c-0.108-0.108-0.336-0.084-0.429-0.069-0.224 0.041-0.401 0.082-0.574 0.129l0.051-0.012c0.126-0.124 0.246-0.251 0.362-0.382l0.007-0.008c0.089-0.105 0.225-0.303 0.135-0.453-0.048-0.080-0.112-0.101-0.157-0.105-0.15-0.012-0.311 0.153-0.372 0.225-0.004 0.004-0.166 0.201-0.324 0.428 0.026-0.276 0.030-0.53 0.030-0.536 0-0.138-0.025-0.377-0.19-0.433-0.088-0.030-0.151-0.005-0.188 0.021-0.125 0.089-0.138 0.318-0.138 0.412 0 0.005 0.003 0.224 0.024 0.476-0.090-0.141-0.186-0.281-0.272-0.391h-0c-0.084-0.109-0.25-0.283-0.415-0.226-0.088 0.030-0.122 0.088-0.135 0.132-0.044 0.147 0.085 0.336 0.143 0.41 0.096 0.124 0.226 0.272 0.355 0.408-0.178-0.057-0.368-0.109-0.521-0.142-0.135-0.029-0.374-0.054-0.463 0.096-0.048 0.080-0.036 0.146-0.018 0.188 0.061 0.14 0.282 0.201 0.374 0.22 0.154 0.033 0.348 0.062 0.534 0.082-0.173 0.071-0.351 0.154-0.49 0.229-0.121 0.065-0.32 0.2-0.291 0.372 0.015 0.092 0.067 0.135 0.108 0.155 0.034 0.017 0.072 0.023 0.111 0.023 0.121 0 0.254-0.063 0.317-0.097 0.138-0.074 0.305-0.178 0.46-0.283-0.062 0.117-0.138 0.279-0.207 0.443l-0.018 0.047c-0.050 0.128-0.115 0.36 0.018 0.472 0.049 0.042 0.097 0.054 0.136 0.054 0.017 0 0.033-0.002 0.046-0.006 0.148-0.038 0.244-0.245 0.279-0.333 0.057-0.146 0.118-0.332 0.168-0.512 0.054 0.226 0.104 0.399 0.16 0.57l-0.015-0.051c0.045 0.13 0.145 0.348 0.319 0.349h0c0.093-0 0.144-0.044 0.17-0.081 0.089-0.125 0.028-0.345-0.003-0.434-0.078-0.217-0.146-0.381-0.219-0.542l0.018 0.045c0.121 0.090 0.266 0.189 0.415 0.282l0.030 0.018v0c0.080 0.048 0.206 0.11 0.32 0.11 0.054 0 0.106-0.014 0.149-0.050 0.071-0.060 0.081-0.127 0.078-0.172-0.013-0.153-0.202-0.281-0.283-0.33-0.005-0.003-0.225-0.131-0.475-0.249 0.276-0.019 0.528-0.058 0.533-0.059 0.136-0.023 0.368-0.086 0.396-0.258 0.015-0.092-0.020-0.149-0.052-0.181z"></path>
<path fill="#fff" d="M6.563 25.895c0 0.197 0.16 0.357 0.357 0.357s0.357-0.16 0.357-0.357v0c0-0.197-0.16-0.357-0.357-0.357s-0.357 0.16-0.357 0.357v0z"></path>
</svg>
