<!-- Generated by IcoMoon.io -->
<svg version="1.1" xmlns="http://www.w3.org/2000/svg" width="32" height="32" viewBox="0 0 32 32">
<title>google</title>
<path fill="#f4511e" d="M16.001 2.667c-7.364 0-13.334 5.97-13.334 13.334s5.97 13.334 13.334 13.334v0c7.364 0 13.334-5.97 13.334-13.334s-5.97-13.334-13.334-13.334v0z"></path>
<path fill="#fff" d="M22.668 12.667h1.333v5.334h-1.333z"></path>
<path fill="#fff" d="M20.668 14.668h5.334v1.333h-5.334zM18.544 14.801l-0.033-0.133h-5.844v2h3.94c-0.327 1.906-1.968 3.339-3.943 3.339-2.208 0-3.998-1.79-3.998-3.998 0-0.003 0-0.006 0-0.008v0c0-2.209 1.791-4 4-4v0c1 0 1.912 0.369 2.614 0.977l1.434-1.404c-1.063-0.974-2.486-1.571-4.048-1.571-3.313 0-5.999 2.685-6 5.998v0c0 3.314 2.686 6 6 6s6-2.686 6-6c0-0.411-0.044-0.812-0.123-1.2z"></path>
</svg>
