<!-- Generated by IcoMoon.io -->
<svg version="1.1" xmlns="http://www.w3.org/2000/svg" width="32" height="32" viewBox="0 0 32 32">
<title>map</title>
<path d="M23.542 3.125c-2.083-2.084-4.597-3.125-7.542-3.125s-5.459 1.042-7.542 3.125c-2.083 2.083-3.125 4.597-3.125 7.542 0 1.514 0.229 2.757 0.687 3.729l7.604 16.126c0.208 0.458 0.531 0.819 0.969 1.083s0.906 0.396 1.406 0.396c0.5 0 0.969-0.132 1.406-0.396s0.767-0.625 0.989-1.083l7.583-16.126c0.458-0.972 0.688-2.215 0.688-3.729 0-2.945-1.041-5.458-3.125-7.542zM19.771 14.438c-1.042 1.041-2.298 1.562-3.771 1.562s-2.729-0.521-3.771-1.562c-1.042-1.042-1.563-2.299-1.563-3.771s0.521-2.729 1.563-3.771c1.042-1.042 2.299-1.563 3.771-1.563s2.729 0.521 3.771 1.563c1.042 1.041 1.563 2.299 1.563 3.771s-0.521 2.729-1.563 3.771z"></path>
</svg>
