<!-- Generated by IcoMoon.io -->
<svg version="1.1" xmlns="http://www.w3.org/2000/svg" width="32" height="32" viewBox="0 0 32 32">
<title>menu</title>
<path d="M9.5 12c0-0.276 0.224-0.5 0.5-0.5v0h12c0.276 0 0.5 0.224 0.5 0.5s-0.224 0.5-0.5 0.5v0h-12c-0.276 0-0.5-0.224-0.5-0.5v0zM22 15.5h-12c-0.276 0-0.5 0.224-0.5 0.5s0.224 0.5 0.5 0.5v0h12c0.276 0 0.5-0.224 0.5-0.5s-0.224-0.5-0.5-0.5v0zM22 19.5h-12c-0.276 0-0.5 0.224-0.5 0.5s0.224 0.5 0.5 0.5v0h12c0.276 0 0.5-0.224 0.5-0.5s-0.224-0.5-0.5-0.5v0z"></path>
</svg>
