<!-- Generated by IcoMoon.io -->
<svg version="1.1" xmlns="http://www.w3.org/2000/svg" width="32" height="32" viewBox="0 0 32 32">
<title>miss</title>
<path fill="#db5e43" d="M11.421 10.75c0.022 0.015 0.046 0.031 0.063 0.051 0.392 0.465 0.495 0.614 0.553 0.645 0.026 0.013 0.044 0.004 0.073-0.013 0.148-0.080 1.111-0.871 2.31-1.803 0.336-0.261 0.672-0.508 0.997-0.762 0.762-0.596 1.461-1.224 1.926-2.14 0.139-0.274 0.102-0.086 0.11-3.324 0-0.049-0.032-0.078-0.074-0.096 0.136-0.11 0.106-0.199 0.104-0.729 0-0.173-0.068-0.215-0.176-0.165-0.836 0.391-0.974 2.862-1.129 3.377-0.19 0.633-0.642 1.2-1.28 1.398-0.633 0.197-1.246 0.399-1.862 0.644-0.761 0.305-1.52 0.637-2.226 1.054-0.48 0.283-0.991 0.672-1.156 1.207-0.081 0.262-0.123 0.529-0.103 0.802 0 0.103-0.008 0.208 0.002 0.309 0.249 2.451 3.133 8.114 3.522 8.586 0.017 0.020 0.058 0.015 0.071-0.009s0.026-0.054 0.037-0.084l0.001-0.004c0.703-2.040 0.097-0.265 1.469-4.004 0.029-0.079 0.020-0.147-0.022-0.217-1.427-2.332-2.278-3.507-2.746-4.102-0.399-0.507-0.522-0.593-0.489-0.612 0.009-0.005 0.022-0.013 0.027-0.010zM24.725 9.281c-0.622-0.513-1.401-0.857-2.135-1.175-2.77-1.2-3.057-0.75-3.658-1.963-0.158-0.319-0.241-0.66-0.273-1.012-0.025-0.263-0.068-0.522-0.113-0.781-0.066-0.382-0.17-0.754-0.301-1.118-0.083-0.235-0.21-0.443-0.358-0.642-0.053-0.073-0.123-0.124-0.205-0.161-0.078-0.036-0.153-0.002-0.154 0.078-0.004 0.219-0.003 0.438-0.003 0.659 0 0.055 0.033 0.099 0.062 0.143-0.035 0.029-0.059 0.065-0.062 0.111-0.003 0.036-0.005 0.078-0.005 0.12 0 0.004 0 0.008 0 0.012v-0.001c0 3.049-0.032 2.909 0.087 3.148 0.445 0.893 1.166 1.559 1.94 2.169 0.411 0.326 0.838 0.635 1.246 0.956 1.592 1.252 1.981 1.583 2.099 1.635 0.047 0.021 0.052-0.002 0.074-0.029 0.002-0.003 0.005-0.006 0.008-0.010 0.099-0.124 0.436-0.564 0.557-0.662 0.035-0.028 0.054 0.012 0.039 0.031-0.114 0.136-0.261 0.317-0.405 0.501l-0.043 0.056c-1.062 1.361-2.116 2.969-2.776 4.113-0.047 0.082-0.061 0.156-0.027 0.246 0.067 0.175 0.379 1.079 0.592 1.62 0.751 1.908 0.834 2.295 0.891 2.429 0.025 0.061 0.073 0.069 0.109 0.017 0.51-0.723 2.444-4.703 3.072-6.759 0.42-1.372 0.855-2.811-0.259-3.73zM18.701 14.364c-0.001-1.368-0.844-2.343-1.648-1.859-0.815 0.49-0.796 1.848-0.798 1.861-0.013 0.105-0.014 0.491-0.142 1.24-0.299 1.011-0.479 1.325-0.442 2.388 0.065 1.843 3.595 1.784 3.628-0.046 0.030-1.691-0.598-2.013-0.598-3.583z"></path>
<path fill="#ffbbec" d="M12.011 30.029c-0.524-0.54 0.292-0.866 1.099-3.768 0.404-1.455 0.063-2.43-0.136-3.895-0.283-2.089 0.645-3.487 1.74-6.666 0.031-0.091 0.080-0.141 0.179-0.163 0.329-0.073 0.658-0.138 0.995-0.158 0.043-0.002 0.086-0.014 0.129-0.017 0.047-0.003 0.083 0.038 0.074 0.086-0.057 0.303-0.688 1.749-0.445 2.81 0.334 1.464 3.098 1.567 3.614 0.201 0.198-0.524 0.121-1.234-0.019-1.779-0.285-1.107-0.482-1.34-0.272-1.318 0.378 0.040 0.504 0.042 1.092 0.169 0.235 0.051 0.094 0.015 1.046 2.456 1.16 2.977 1.052 3.327 0.701 5.567-0.255 1.625-0.311 2.402 1.264 5.864 0.12 0.263 0.012 0.494-0.125 0.625-2.766 2.64-8.796 2.186-10.933-0.015z"></path>
<path fill="#fc09b2" opacity="0.35" d="M16.97 31.849c-0.986-0.028-2.466-0.5-2.463-0.574 0.003-0.081 0.542 0.102 1.559-0.227 1.499-0.485 2.671-1.506 3.298-3.22 0.855-2.333 0.39-5.163 2.468-7.411 0.040-0.043 0.080-0.031 0.094 0.027 0.031 0.132 0.106 0.528 0.107 0.723 0.015 3.348-1.32 3.183 1.036 8.253 0.122 0.262 0.013 0.494-0.125 0.625-0.876 0.829-3.377 1.652-4.592 1.779-0.27 0.028-1.192 0.031-1.382 0.026z"></path>
<path fill="#fc09b2" d="M15.43 15.798c-0.267 0.905-0.748 2.121-0.401 2.905 0.202 0.453 0.544 0.761 1.010 0.942 1.236 0.46 3.409 0.34 3.912-0.936 0.182-0.435 0.14-0.978 0.038-1.436-0.236-1.137-0.62-1.479-0.43-1.555 0.009-0.004 0.020-0.006 0.032-0.006 0.033 0 0.062 0.019 0.077 0.047l0 0.001c0.612 1.247 1.136 2.828 0.098 3.752-1.266 1.184-5.255 1.070-5.13-1.51 0.037-0.727 0.346-1.473 0.642-2.253 0.012-0.031 0.041-0.052 0.075-0.052 0.010 0 0.020 0.002 0.029 0.005l-0.001-0c0.039 0.015 0.060 0.058 0.049 0.098zM22.565 29.217c-1.995 1.46-3.476 1.871-5.082 1.876-1.992-0.030-3.708-0.745-5.076-1.892-0.019-0.016-0.030-0.039-0.030-0.065 0-0.021 0.008-0.040 0.020-0.055l-0 0c0.050-0.060 0.125-0.012 0.115-0.014 5.578 3.91 9.903-0.238 10.074 0.044 0.007 0.012 0.012 0.026 0.012 0.042 0 0.026-0.013 0.050-0.032 0.065l-0 0zM19.146 23.871c-0.709 1.829-2.553 3.397-4.354 4.175-0.098 0.042-0.168-0.097-0.078-0.152 1.691-1.013 3.334-2.365 4.286-4.091 0.048-0.087 0.181-0.026 0.145 0.067zM19.413 25.99c-0.627 0.984-1.772 1.927-2.91 2.308-0.008 0.003-0.017 0.004-0.027 0.004-0.038 0-0.070-0.024-0.081-0.058l-0-0.001c-0.037-0.109 0.061-0.087 0.806-0.594 1.73-1.187 2.052-1.913 2.202-1.759 0.026 0.027 0.030 0.069 0.010 0.1z"></path>
<path fill="#000e3f" opacity="0.25" d="M11.463 10.673c-0.053 0.014 0.083 0.308 0.22 0.446 0.078 0.078 0.146 0.177 0.223 0.263 0.308 0.154-0.13 0.326 2.985-2.034 0.059-0.045 0.301-0.213 0.305-0.294 0.008-0.164-0.372 0.085-0.426 0.116-1.223 0.704-2.409 1.269-3.306 1.502zM23.514 10.673c0.053 0.014-0.083 0.308-0.22 0.446-0.078 0.078-0.146 0.177-0.223 0.263-0.308 0.154 0.13 0.326-2.985-2.034-0.059-0.045-0.301-0.213-0.305-0.294-0.008-0.164 0.372 0.085 0.426 0.116 1.223 0.704 2.409 1.269 3.306 1.502zM18.761 15.101c-0.316 0.41-0.774 0.669-1.284 0.669-0.513 0-0.972-0.261-1.288-0.676 0.052-0.417 0.057-0.658 0.066-0.729 0.002-0.013-0.017-1.371 0.798-1.861 0.804-0.484 1.647 0.49 1.648 1.859-0 0.215 0.023 0.472 0.060 0.737z"></path>
<path fill="#000e3f" opacity="0.45" d="M22.184 13.238c0.091 0.156 0.34-0.145 0.394-0.207 0.048-0.056 0.465-0.588 0.221-0.565-0.073 0.007-0.721 0.597-0.615 0.772zM23.337 12.826c-0.105-0.054-0.802 0.757-0.544 0.868 0.127 0.055 0.36-0.354 0.414-0.439 0.039-0.061 0.251-0.366 0.13-0.429zM23.437 14.038c0.15-0 0.509-0.822 0.413-0.926-0.133-0.146-0.73 0.926-0.413 0.926zM24.097 14.287c0.119 0.013 0.176-0.211 0.203-0.292s0.192-0.658 0.088-0.683c-0.046-0.011-0.088 0.056-0.109 0.098-0.063 0.123-0.125 0.246-0.177 0.374-0.041 0.1-0.186 0.408-0.053 0.486 0.017 0.010 0.033 0.015 0.048 0.017zM22.828 11.754l-0.005-0.003c-0.074-0.050-0.164 0.041-0.111 0.114 0.395 0.55 1.286 1.123 2.199 1.22 0.003 0 0.006 0 0.009 0 0.034 0 0.063-0.020 0.078-0.048l0-0.001c0.099-0.205-0.435-0.097-2.169-1.282z"></path>
<path fill="#000e3f" d="M25.009 9.38c-0.033-0.031-0.066-0.063-0.099-0.093-0.498-0.442-1.129-0.763-1.682-1.029-1.243-0.598-2.036-0.853-2.615-1.041-0.744-0.238-1.083-0.348-1.477-0.921-0.285-0.412-0.345-0.904-0.403-1.379-0.023-0.175-0.045-0.358-0.078-0.534-0.253-1.333-0.694-2.129-1.178-2.129s-0.924 0.796-1.177 2.129c-0.033 0.175-0.055 0.358-0.078 0.534-0.058 0.475-0.118 0.967-0.403 1.379-0.394 0.573-0.733 0.682-1.477 0.921-0.579 0.187-1.372 0.442-2.615 1.041-0.553 0.265-1.184 0.586-1.682 1.029-0.034 0.031-0.068 0.063-0.099 0.093-0.46 0.454-0.639 1.175-0.504 2.033 0.31 1.979 1.654 4.804 2.375 6.323 0.555 1.166 0.87 1.684 1.039 1.963 0.147 0.243 0.169 0.28 0.135 0.396-0.342 1.168-0.196 2.048 0.005 3.267 0.024 0.147 0.048 0.298 0.073 0.456 0.213 1.343 0.054 2.108-0.406 3.421-0.256 0.735-0.49 1.243-0.66 1.615-0.304 0.66-0.417 0.907-0.108 1.24 0.129 0.138 0.282 0.247 0.415 0.337 0.778 0.52 1.696 0.855 2.409 1.087 1.009 0.33 1.886 0.483 2.76 0.483h0.030c0.861-0.003 1.727-0.157 2.724-0.483 0.714-0.232 1.633-0.567 2.411-1.087 0.133-0.090 0.286-0.199 0.414-0.337 0.31-0.333 0.196-0.58-0.106-1.24-0.169-0.372-0.403-0.88-0.66-1.615-0.46-1.312-0.619-2.078-0.406-3.421 0.024-0.157 0.049-0.309 0.073-0.456 0.201-1.219 0.346-2.099 0.003-3.267-0.033-0.115-0.011-0.153 0.136-0.396 0.169-0.279 0.483-0.796 1.038-1.963 0.361-0.759 0.877-1.846 1.342-2.988 0.465-1.144 0.879-2.345 1.035-3.335 0.135-0.858-0.045-1.579-0.504-2.033zM22.861 29.155c0.054 0.124 0.106 0.241 0.153 0.349 0.069 0.16 0.013 0.357-0.141 0.501-0.669 0.628-2.361 1.25-3.334 1.514-1.291 0.349-2.831 0.349-4.122 0-0.975-0.264-2.666-0.886-3.336-1.514-0.154-0.144-0.208-0.34-0.139-0.501 0.046-0.108 0.097-0.225 0.151-0.349 0.555-1.267 1.393-3.18 1.28-4.436-0.063-0.696-0.15-1.247-0.226-1.733-0.162-1.020-0.268-1.693-0.002-2.676 0.246-0.915 0.609-1.852 0.96-2.757 0.234-0.603 0.475-1.226 0.675-1.825 0.024-0.073 0.065-0.111 0.136-0.126 0.294-0.063 0.538-0.105 0.769-0.133l0.072-0.009c0.087-0.012 0.15-0.020 0.192-0.020 0.090 0 0.070 0.021-0.033 0.348-0.246 0.784-0.501 1.597-0.351 2.432 0.112 0.627 0.624 1.086 1.337 1.196 0.489 0.073 1.69 0.159 2.255-0.637 0.115-0.162 0.195-0.355 0.231-0.559 0.151-0.835-0.103-1.648-0.349-2.432-0.026-0.081-0.051-0.163-0.076-0.244-0.014-0.046-0.021-0.078-0.009-0.090 0.018-0.023 0.097-0.012 0.244 0.006l0.072 0.009c0.231 0.028 0.475 0.070 0.768 0.133 0.073 0.015 0.114 0.052 0.138 0.126 0.199 0.598 0.441 1.222 0.675 1.825 0.351 0.906 0.714 1.843 0.96 2.757 0.265 0.984 0.159 1.657-0.002 2.676-0.038 0.243-0.079 0.502-0.118 0.787-0.033 0.211-0.071 0.536-0.102 0.863l-0.006 0.083c-0.112 1.256 0.726 3.169 1.279 4.436zM16.341 14.38c0.047-0.599 0.137-1.204 0.573-1.639 0.242-0.242 0.58-0.345 0.894-0.177 0.474 0.253 0.754 0.977 0.793 1.801 0.038 0.814 0.095 1.009 0.253 1.508 0.063 0.198 0.124 0.396 0.18 0.598 0.15 0.54 0.249 1.099 0.157 1.696-0.108 0.715-0.844 1.053-1.481 1.065-0.042 0-0.085 0.002-0.129 0.002-0.652 0-1.396-0.099-1.708-0.711-0.056-0.108-0.085-0.22-0.112-0.355-0.090-0.595 0.009-1.155 0.157-1.694 0.342-1.243 0.308-0.632 0.422-2.093zM21.053 10.204c0.597 0.471 1.498 1.183 1.624 1.268 0.054 0.036 0.078 0.059 0.081 0.076 0.003 0.017-0.011 0.034-0.032 0.063l-0.003 0.005c-0.314 0.449-0.458 0.646-0.602 0.843l0.166-0.237c-0.514 0.715-0.514 0.715-0.865 1.253-0.081 0.123-0.181 0.274-0.309 0.471-0.361 0.55-0.588 0.934-0.738 1.187-0.057 0.096-0.1 0.171-0.135 0.226-0.005 0.008-0.009 0.014-0.012 0.020-0.030 0.049-0.030 0.049-0.222 0.011 0.012-0.001-0.093-0.022-0.199-0.042l-0.113-0.018c-0.261-0.048-0.535-0.084-0.816-0.111-0.006-0.045-0.012-0.088-0.018-0.13-0.039-0.283-0.058-0.528-0.058-0.724-0.002-0.892-0.361-1.685-0.897-1.972-0.292-0.156-0.613-0.145-0.906 0.030-0.763 0.46-0.84 1.595-0.844 1.931-0.003 0.023-0.006 0.060-0.009 0.112-0.008 0.121-0.021 0.325-0.057 0.618-0.006 0.045-0.012 0.091-0.018 0.138-0.298 0.028-0.573 0.065-0.811 0.108-0.139 0.025-0.24 0.045-0.313 0.060-0.19 0.039-0.19 0.039-0.22-0.011-0.003-0.006-0.008-0.012-0.012-0.020-0.019-0.028-0.064-0.101-0.108-0.175l-0.027-0.050c-0.15-0.255-0.376-0.639-0.738-1.189-0.129-0.196-0.228-0.348-0.309-0.471-0.351-0.538-0.351-0.538-0.865-1.253-0.117-0.16-0.259-0.358-0.438-0.606l-0.003-0.005c-0.020-0.028-0.033-0.046-0.031-0.063 0.005-0.018 0.027-0.040 0.082-0.076 0.126-0.085 1.032-0.801 1.63-1.274 0.253-0.199 0.454-0.358 0.537-0.421 2.278-1.769 2.423-2.017 2.775-2.613 0.033-0.056 0.066-0.112 0.103-0.174l0.005-0.006c0.070-0.118 0.114-0.189 0.148-0.195 0.036 0.006 0.079 0.076 0.15 0.195l0.005 0.006c0.038 0.061 0.070 0.118 0.103 0.174 0.352 0.597 0.498 0.844 2.775 2.613 0.083 0.064 0.287 0.225 0.543 0.427zM17.268 3.262c-0.262 0.22-0.388 0.664-0.447 1-0.058 0.333-0.052 0.672-0.048 1 0.002 0.061 0.003 0.123 0.003 0.184 0.002 0.069 0.027 0.151 0.097 0.153h0.003c0.023 0 0.041-0.008 0.055-0.021 0.048-0.048 0.045-0.169 0.041-0.369-0.006-0.291-0.017-0.732 0.133-1.273 0.054-0.193 0.187-0.444 0.234-0.436 0.009 0.002 0.018 0.021 0.020 0.072 0.002 0.090 0.002 0.528 0.002 1.035-0.002 0.66-0.002 1.408 0.003 1.682 0.005 0.276-0.178 0.565-0.324 0.796l-0.032 0.050c-0.456 0.724-1.153 1.274-2.036 1.972-0.078 0.063-0.159 0.126-0.24 0.19 0.655-0.494 0.319-0.228-0.016 0.038l-1.014 0.775c0.253-0.185-0.052 0.056-0.358 0.296l-0.579 0.439c0.013-0.004-0.194 0.158-0.402 0.319l-0.234 0.174c-0.009 0.008-0.018 0.015-0.024 0.021-0.018 0.015-0.028 0.023-0.037 0.021-0.024-0.002-0.068-0.057-0.174-0.19-0.061-0.076-0.144-0.18-0.256-0.318-0.034-0.042-0.073-0.082-0.112-0.121l-0.021-0.023c-0.037-0.037-0.084-0.054-0.127-0.043-0.034 0.009-0.062 0.034-0.070 0.067-0.009 0.027 0 0.057 0.023 0.079 0.972 1 3.224 4.529 3.272 4.76 0.012 0.057-0.015 0.114-0.045 0.175-0.012 0.025-0.025 0.051-0.034 0.078-0.355 1-0.472 1.298-0.607 1.642-0.106 0.274-0.229 0.585-0.496 1.316-0.101 0.276-0.166 0.474-0.214 0.618-0.054 0.16-0.088 0.267-0.108 0.27-0.002 0-0.005-0.002-0.014-0.014-0.607-0.822-3.573-7-3.483-8.822 0.037-0.735 0.178-1.172 0.877-1.669 0.6-0.426 1.298-0.744 1.909-1.008 0.864-0.375 1.655-0.669 2.417-0.898 0.774-0.232 1.259-0.738 1.486-1.543 0.036-0.132 0.069-0.354 0.111-0.637 0.13-0.88 0.328-2.212 0.909-2.574 0.008-0.005 0.018-0.005 0.029 0 0.009 0.003 0.017 0.010 0.018 0.017 0 0.006 0.002 0.010 0.005 0.014 0.002 0.005 0.003 0.007 0.003 0.009 0 0.1 0.002 0.183 0.003 0.253 0.004 0.333 0.006 0.36-0.096 0.444zM21.859 19.69c-0.020-0.003-0.055-0.109-0.108-0.27-0.048-0.144-0.114-0.342-0.216-0.618-0.267-0.732-0.388-1.042-0.496-1.316-0.135-0.345-0.25-0.642-0.606-1.642-0.009-0.027-0.023-0.053-0.035-0.078-0.030-0.062-0.058-0.118-0.045-0.175 0.048-0.231 2.3-3.76 3.271-4.76 0.023-0.023 0.030-0.053 0.023-0.079-0.009-0.033-0.038-0.058-0.072-0.067-0.008-0.002-0.016-0.003-0.025-0.003h-0c-0.035 0-0.070 0.017-0.1 0.046l-0.021 0.023c-0.038 0.039-0.078 0.078-0.112 0.121-0.065 0.077-0.149 0.18-0.231 0.285l-0.025 0.033c-0.106 0.133-0.15 0.189-0.174 0.19-0.009 0.002-0.020-0.006-0.038-0.021-0.008-0.006-0.015-0.014-0.024-0.021-0.199-0.153-0.397-0.307-0.594-0.46l-0.042-0.033c-0.309-0.24-0.621-0.486-0.924-0.724l-0.013-0.011c-0.343-0.27-0.687-0.541-1.030-0.813-0.082-0.064-0.162-0.127-0.24-0.189-0.883-0.697-1.58-1.249-2.036-1.973l-0.032-0.050c-0.145-0.231-0.328-0.52-0.324-0.796 0.005-0.274 0.005-1.023 0.003-1.682 0-0.507-0.002-0.945 0.002-1.035 0.002-0.066 0.017-0.072 0.020-0.072h0.002c0.048 0 0.18 0.246 0.232 0.436 0.15 0.541 0.139 0.982 0.133 1.273-0.006 0.199-0.008 0.321 0.041 0.369 0.014 0.013 0.033 0.021 0.055 0.021h0.003c0.069-0.002 0.096-0.082 0.098-0.153 0-0.061 0.001-0.123 0.001-0.184 0.006-0.328 0.012-0.667-0.046-1-0.060-0.336-0.184-0.78-0.448-1-0.1-0.084-0.1-0.112-0.095-0.444 0.002-0.070 0.003-0.153 0.003-0.253 0-0.002 0.002-0.005 0.003-0.009 0.002-0.003 0.005-0.007 0.005-0.012 0.002-0.007 0.009-0.015 0.018-0.018 0.011-0.005 0.021-0.005 0.029 0 0.58 0.363 0.777 1.694 0.907 2.574 0.042 0.283 0.075 0.505 0.112 0.637 0.226 0.805 0.712 1.31 1.486 1.543 0.762 0.229 1.552 0.523 2.417 0.898 0.61 0.264 1.309 0.582 1.909 1.008 0.699 0.496 0.84 0.934 0.876 1.669 0.002 0.027 0.002 0.057 0.002 0.085 0 1.922-2.885 7.927-3.483 8.737-0.009 0.012-0.014 0.014-0.014 0.014z"></path>
<path fill="#ffcf00" d="M15.357 23.775c-0.37 0-0.717-0.123-1.004-0.355-0.38-0.305-0.598-0.76-0.598-1.247 0-0.884 0.719-1.602 1.602-1.602 0.397 0 0.777 0.146 1.069 0.41 0.328 0.294 0.533 0.719 0.533 1.193v0c-0 0.883-0.719 1.601-1.602 1.601z"></path>
<path fill="#fd8a02" opacity="0.5" d="M16.863 22.174c0 0.831-0.674 1.504-1.505 1.504-0.001 0-0.001 0-0.002 0-0.358 0-0.686-0.126-0.944-0.335l0.003 0.002c1.951-0.262 2.028-1.63 1.947-2.292 0.308 0.275 0.501 0.674 0.501 1.118 0 0.001 0 0.002 0 0.003v-0z"></path>
<path fill="#fc09b2" d="M14.339 22.6c-0.133-0.067-0.162-0.19-0.101-0.278 0.177-0.259 0.732-0.143 0.633 0.143-0.048 0.139-0.318 0.241-0.531 0.135zM16.375 22.6c0.134-0.067 0.162-0.19 0.101-0.278-0.177-0.259-0.732-0.143-0.633 0.143 0.048 0.139 0.319 0.241 0.531 0.135z"></path>
<path fill="#000e3f" d="M16.491 20.908c-0.309-0.28-0.712-0.434-1.133-0.434-0.937 0-1.699 0.762-1.699 1.699 0 0.517 0.231 0.999 0.635 1.323 0.304 0.246 0.673 0.376 1.065 0.376 0.937 0 1.699-0.762 1.699-1.698-0-0.502-0.218-0.953-0.564-1.264l-0.002-0.001zM15.357 23.678c-0.001 0-0.001 0-0.002 0-0.358 0-0.686-0.126-0.944-0.335l0.003 0.002c-0.343-0.275-0.562-0.697-0.562-1.171 0-0.832 0.674-1.505 1.505-1.505 0.386 0 0.739 0.145 1.004 0.385 0.308 0.276 0.501 0.674 0.501 1.118 0 0.001 0 0.002 0 0.003v-0c0 0.831-0.674 1.504-1.505 1.504z"></path>
<path fill="#000e3f" d="M15.674 21.899c-0.048 0-0.087 0.039-0.087 0.087 0 0 0 0 0 0.001v-0c0.001 0.131-0.074 0.279-0.215 0.293-0.056 0.005-0.107-0.012-0.15-0.052-0.060-0.056-0.097-0.15-0.095-0.239 0-0.001 0-0.002 0-0.003 0-0.047-0.038-0.086-0.085-0.087h-0c-0.051-0.003-0.088 0.037-0.090 0.085-0.004 0.139 0.054 0.281 0.15 0.371 0.070 0.065 0.158 0.1 0.25 0.1 0.012 0 0.024-0.001 0.037-0.002 0.244-0.024 0.374-0.259 0.372-0.468-0.001-0.048-0.036-0.087-0.088-0.087zM16.322 21.615h-0.001c-0.048 0-0.087 0.039-0.087 0.087 0 0 0 0 0 0.001v-0c0.001 0.096-0.046 0.201-0.126 0.21-0.026 0.003-0.050-0.005-0.072-0.026-0.042-0.039-0.070-0.113-0.068-0.183 0-0.001 0-0.001 0-0.002 0-0.047-0.038-0.086-0.085-0.087h-0.002c-0.047 0-0.086 0.038-0.087 0.085-0.003 0.122 0.044 0.243 0.124 0.316 0.052 0.048 0.113 0.072 0.179 0.072 0.010 0 0.020-0.001 0.030-0.002 0.186-0.021 0.283-0.21 0.282-0.385-0-0.048-0.039-0.087-0.087-0.087v0zM14.834 21.615h-0.001c-0.048 0-0.087 0.039-0.087 0.087 0 0 0 0 0 0.001v-0c0.001 0.096-0.046 0.201-0.126 0.21-0.026 0.003-0.050-0.005-0.072-0.026-0.042-0.039-0.070-0.113-0.068-0.183 0-0.001 0-0.001 0-0.002 0-0.047-0.038-0.086-0.085-0.087h-0c-0.053-0.001-0.088 0.037-0.089 0.085-0.003 0.122 0.044 0.243 0.124 0.316 0.052 0.048 0.113 0.072 0.179 0.072 0.010 0 0.020-0.001 0.030-0.002 0.186-0.021 0.283-0.21 0.281-0.385-0-0.048-0.039-0.087-0.087-0.087v0z"></path>
<path fill="#000e3f" d="M21.708 13.873c0 0.759-0.625 1.375-1.395 1.375s-1.395-0.616-1.395-1.375c0-0.759 0.625-1.375 1.395-1.375s1.395 0.616 1.395 1.375z"></path>
<path fill="#4217a6" d="M20.4 12.927c-0.050 0.112 0.146 0.077 0.399 0.338 0.316 0.331 0.366 0.788 0.183 1.212l-0.001 0.002c-0.004 0.008-0.006 0.018-0.006 0.028 0 0.038 0.031 0.069 0.069 0.069 0.020 0 0.038-0.008 0.050-0.022l0-0c0.122-0.129 0.201-0.3 0.233-0.479 0.17-0.912-0.846-1.328-0.928-1.148zM20.118 13.334c-0.083 0.062 0.034 0.12 0.163 0.357 0.222 0.409 0.103 0.747 0.090 0.874-0.017 0.071 0.073 0.117 0.121 0.062 0.166-0.191 0.22-0.472 0.159-0.726-0.097-0.395-0.459-0.622-0.532-0.568zM19.831 13.941c-0.112 0.007-0.032 0.134-0.071 0.412-0.019 0.135-0.039 0.196-0.080 0.329-0.019 0.060 0.043 0.114 0.1 0.088 0.072-0.034 0.13-0.092 0.172-0.16 0.192-0.312-0-0.676-0.121-0.669z"></path>
<path fill="#db5e43" d="M19.739 11.935c0 0.374-0.090 0.788 0.26 0.788 1.039 0 1.192-1.466 0.374-1.466-0.35 0-0.634 0.304-0.634 0.678zM15.248 11.935c0 0.374 0.090 0.788-0.26 0.788-1.039 0-1.192-1.466-0.374-1.466 0.35 0 0.634 0.304 0.634 0.678z"></path>
<path fill="#000e3f" opacity="0.25" d="M20.391 12.143c-0.182 0.116-0.241 0.036-0.204-0.018 0.061-0.090 0.14-0.155 0.26-0.316 0.061-0.082 0.092-0.169 0.146-0.132 0.070 0.049 0.026 0.32-0.202 0.466zM14.54 11.809c0.086 0.114 0.132 0.158 0.167 0.201 0.075 0.085 0.1 0.125 0.093 0.115 0.026 0.038-0.007 0.089-0.053 0.080-0.225-0.044-0.423-0.294-0.371-0.502 0.010-0.038 0.059-0.046 0.081-0.015-0 0 0.058 0.087 0.083 0.121z"></path>
<path fill="#000e3f" d="M19.999 12.82c-0.108 0-0.193-0.033-0.255-0.097-0.126-0.132-0.117-0.358-0.107-0.597 0.003-0.063 0.005-0.128 0.005-0.191 0-0.427 0.328-0.775 0.731-0.775 0.194 0 0.356 0.072 0.469 0.209 0.098 0.12 0.152 0.285 0.152 0.466 0 0.484-0.372 0.985-0.994 0.985zM20.373 11.353c-0.296 0-0.537 0.261-0.537 0.581 0 0.066-0.003 0.133-0.005 0.199-0.008 0.188-0.016 0.383 0.053 0.455 0.009 0.009 0.036 0.037 0.115 0.037 0.52 0 0.8-0.407 0.8-0.79 0-0.136-0.038-0.258-0.108-0.344-0.075-0.092-0.182-0.138-0.319-0.138zM14.988 12.82c-0.622 0-0.994-0.501-0.994-0.984 0-0.181 0.054-0.347 0.152-0.466 0.112-0.137 0.274-0.209 0.469-0.209 0.403 0 0.731 0.348 0.731 0.775 0 0.063 0.003 0.128 0.005 0.191 0.010 0.239 0.019 0.465-0.107 0.597-0.062 0.064-0.147 0.097-0.255 0.097zM14.614 11.353c-0.136 0-0.243 0.046-0.319 0.138-0.070 0.085-0.108 0.207-0.108 0.344 0 0.383 0.28 0.79 0.8 0.79 0.079 0 0.106-0.028 0.115-0.037 0.069-0.072 0.061-0.266 0.053-0.455-0.003-0.066-0.005-0.133-0.005-0.199 0-0.32-0.241-0.581-0.537-0.581z"></path>
<path fill="#db5e43" d="M19.617 13.744c-0.331 0.538-1.113 1.308-2.114 1.32h-0.019c-1-0.012-1.783-0.782-2.114-1.32-0.606-0.986-0.469-2.942-0.023-3.879 0.431-0.906 1.209-1.386 2.137-1.406 0.004-0.001 0.006-0.001 0.010-0.001s0.006 0 0.009 0.001c0.928 0.020 1.706 0.501 2.137 1.406 0.446 0.937 0.583 2.893-0.023 3.879z"></path>
<path fill="#000e3f" opacity="0.25" d="M18.959 12.174c-0.339 0-0.615 0.226-0.615 0.503s0.276 0.503 0.615 0.503c0.339 0 0.616-0.226 0.616-0.503s-0.276-0.503-0.616-0.503zM16.036 12.174c-0.339 0-0.616 0.226-0.616 0.503s0.276 0.503 0.616 0.503c0.339 0 0.615-0.226 0.615-0.503s-0.276-0.503-0.615-0.503z"></path>
<path fill="#000e3f" d="M19.728 9.824c-0.438-0.92-1.225-1.439-2.218-1.462-0.012-0.001-0.018-0.002-0.035 0-0.991 0.024-1.777 0.543-2.215 1.462-0.429 0.902-0.632 2.898 0.028 3.971 0.308 0.502 1.118 1.354 2.196 1.366h0.020c1.078-0.013 1.887-0.865 2.195-1.366 0.66-1.073 0.457-3.069 0.028-3.971zM19.535 13.693c-0.288 0.468-1.039 1.262-2.031 1.274h-0.018c-0.993-0.012-1.745-0.806-2.032-1.274-0.568-0.924-0.475-2.827-0.018-3.786 0.405-0.851 1.134-1.331 2.051-1.351 0.003-0 0.005-0 0.008-0s0.005 0 0.008 0c0.918 0.020 1.646 0.5 2.051 1.351 0.457 0.959 0.55 2.862-0.018 3.786z"></path>
<path fill="#000e3f" d="M18.215 10.65c-0.001 0.375 0.922 0.591 1.020 0.201 0.115-0.46-1.018-0.69-1.020-0.201zM16.773 10.65c-0.002-0.489-1.135-0.259-1.020 0.201 0.098 0.391 1.021 0.175 1.020-0.201zM19.004 11.299c-0.054 0-0.097 0.043-0.097 0.097 0 0.22-0.135 0.33-0.26 0.339-0.118 0.009-0.267-0.068-0.304-0.314-0.008-0.046-0.048-0.081-0.096-0.081-0.054 0-0.097 0.043-0.097 0.097 0 0.004 0 0.009 0.001 0.013l-0-0.001c0.050 0.335 0.271 0.479 0.478 0.479 0.011 0 0.022-0 0.033-0.001 0.218-0.016 0.439-0.204 0.439-0.532 0-0 0-0 0-0 0-0.053-0.043-0.097-0.097-0.097-0 0-0 0-0 0v0zM16.755 11.339c-0.004-0.001-0.009-0.001-0.014-0.001-0.049 0-0.089 0.036-0.096 0.082l-0 0.001c-0.037 0.245-0.187 0.322-0.304 0.314-0.125-0.009-0.26-0.119-0.26-0.339 0-0.054-0.043-0.097-0.097-0.097s-0.097 0.043-0.097 0.097v0c0 0.328 0.221 0.516 0.439 0.532 0.011 0.001 0.022 0.001 0.033 0.001 0.207 0 0.427-0.145 0.478-0.479 0.001-0.004 0.001-0.009 0.001-0.014 0-0.048-0.036-0.089-0.082-0.096l-0.001-0zM18.123 12.848c-0.006-0.001-0.012-0.002-0.019-0.002-0.047 0-0.086 0.034-0.095 0.078l-0 0.001c-0.047 0.242-0.264 0.417-0.516 0.417h-0.003c-0.25-0.001-0.466-0.177-0.513-0.417-0.009-0.045-0.048-0.079-0.095-0.079-0.007 0-0.013 0.001-0.019 0.002l0.001-0c-0.045 0.009-0.078 0.048-0.078 0.095 0 0.007 0.001 0.013 0.002 0.019l-0-0.001c0.064 0.331 0.36 0.572 0.702 0.574h0.004c0.345 0 0.641-0.241 0.706-0.574 0.001-0.006 0.002-0.012 0.002-0.019 0-0.047-0.033-0.086-0.078-0.095l-0.001-0zM17.568 12.656c0.054 0 0.097-0.043 0.097-0.097s-0.044-0.097-0.097-0.097c-0.098 0-0.312-0.050-0.366-0.129-0.009-0.015-0.015-0.033-0.002-0.067 0.002-0.003 0.238-0.562 0.342-0.804 0.061-0.143-0.118-0.224-0.181-0.073-0.1 0.238-0.336 0.793-0.339 0.801-0.046 0.112-0.015 0.198 0.020 0.25 0.118 0.18 0.445 0.217 0.526 0.217z"></path>
<path fill="#000e3f" d="M20.691 8.826c-0.457-1.569-2.581-2.203-3.641-1.26-1.059-0.957-2.776 0.149-2.992 1.762-0.070 0.521 0.055 1.137 0.323 1.597 0.119 0.204 0.296 0.474 0.571 0.397 0.115-0.032 0.2-0.125 0.279-0.214 0.261-0.292 0.888-0.972 1.388-1.657 0.115 0.261 0.286 0.479 0.499 0.646l0.004 0.003c0.502 0.39 1.084 0.202 0.926-0.084-0.088-0.16-0.104-0.098-0.345-0.606-0.007-0.015-0.017-0.041-0.003-0.049 0.022-0.012 0.059 0.074 0.135 0.14 0.652 0.565 1.173 0.401 1.538 0.927 0.158 0.228 0.359 0.89 0.647 0.966 0.491 0.129 1.021-1.363 0.67-2.567z"></path>
<path fill="#4217a6" d="M16.614 8.493c-0.046 0.271-0.020 0.515 0.050 0.783l0 0.002c0.001 0.005 0.002 0.011 0.002 0.018 0 0.038-0.031 0.069-0.069 0.069-0.022 0-0.042-0.011-0.055-0.027l-0-0c-0.093-0.121-0.156-0.268-0.188-0.421-0.095-0.437 0.073-0.948 0.42-1.261 0.053-0.048 0.133 0.012 0.103 0.076 0-0-0.222 0.488-0.263 0.761zM17.268 8.748c0.009 0.149 0.041 0.293 0.079 0.435 0.088 0.337 0.249 0.462 0.135 0.514-0.008 0.004-0.018 0.006-0.029 0.006-0.019 0-0.036-0.008-0.048-0.020v0c-0.119-0.117-0.223-0.259-0.287-0.418-0.066-0.157-0.108-0.326-0.12-0.494s-0.005-0.337 0.026-0.501c0.031-0.164 0.077-0.322 0.157-0.473 0.033-0.063 0.13-0.033 0.121 0.038-0.036 0.304-0.062 0.605-0.033 0.913zM17.876 7.634c1.597-0.292 2.862 0.837 2.371 3.086-0.007 0.031-0.034 0.053-0.067 0.053-0.038 0-0.068-0.031-0.068-0.068 0-0.002 0-0.003 0-0.005v0l0-0.001c0.088-1.188-0.036-2.337-1.146-2.771-0.489-0.194-1.088-0.169-1.077-0.169-0 0-0.001 0-0.001 0-0.035 0-0.064-0.029-0.064-0.064 0-0.031 0.022-0.057 0.051-0.063l0-0z"></path>
<path fill="#4217a6" d="M17.73 8.37c0.39-0.085 0.864 0.013 1.244 0.333 0.171 0.146 0.311 0.33 0.4 0.535 0.091 0.204 0.132 0.429 0.116 0.646-0.003 0.036-0.032 0.064-0.069 0.064-0.033 0-0.060-0.023-0.067-0.054l-0-0-0-0.001c-0.041-0.196-0.104-0.38-0.198-0.546-0.519-0.916-1.593-0.86-1.417-0.849-0.034-0.002-0.060-0.030-0.060-0.065 0-0.031 0.022-0.057 0.050-0.063l0-0zM14.851 9.053c-0.221 0.573-0.125 1.135 0.135 1.685l0 0.001c0.004 0.008 0.006 0.018 0.006 0.029 0 0.038-0.031 0.068-0.068 0.068-0.023 0-0.043-0.011-0.055-0.028l-0-0c-0.182-0.257-0.322-0.556-0.373-0.88-0.16-0.975 0.514-1.905 1.365-2.365 0.069-0.037 0.131 0.058 0.070 0.106-0.056 0.054-0.794 0.601-1.080 1.384z"></path>
<path fill="#4217a6" d="M16.148 8.149c-0.412 0.58-0.465 0.901-0.537 1.124-0.063 0.49-0.047 0.497 0.056 0.946l0.002 0.010c0.001 0.005 0.002 0.010 0.002 0.015 0 0.032-0.022 0.059-0.052 0.066l-0 0c-0.14 0.032-0.599-0.873 0.028-1.802 0.115-0.17 0.248-0.324 0.412-0.45 0.058-0.045 0.134 0.028 0.092 0.088l-0.003 0.004z"></path>
<path fill="#000e3f" d="M7.25 6.222c-0.014 0.009-0.039 0.027-0.065 0.048-0.058 0.048-0.13 0.114-0.163 0.155 0.034 0.121 0.141 0.351 0.163 0.467-0.107-0.049-0.323-0.175-0.425-0.255-0.034 0.009-0.062 0.029-0.088 0.051-0.048 0.040-0.089 0.090-0.133 0.127 0.198 0.149 0.47 0.242 0.677 0.395l0.003 0.003c0.082 0.256 0.167 0.521 0.257 0.747l0.003-0.003c0.014-0.009 0.028-0.020 0.041-0.031 0.051-0.042 0.104-0.095 0.15-0.133 0.015-0.012 0.028-0.023 0.042-0.032-0.189-0.495-0.256-1.044-0.46-1.537l-0.001-0.002zM8.589 6.5c-0.076-0.127-0.163-0.235-0.243-0.364-0.039-0.059-0.079-0.116-0.125-0.17-0.031-0.033-0.064-0.065-0.104-0.088-0.041-0.030-0.091-0.050-0.145-0.056l-0.001-0c-0.207-0.008-0.426 0.14-0.526 0.323-0.008 0.017-0.015 0.037-0.018 0.058l-0 0.001c-0.014 0.132 0.046 0.258 0.118 0.364 0.117 0.192 0.26 0.365 0.394 0.542 0.050 0.067 0.104 0.13 0.178 0.164 0.107 0.063 0.214 0.019 0.316-0.040 0.072-0.043 0.136-0.093 0.187-0.157 0.058-0.070 0.104-0.149 0.105-0.233-0.006-0.098-0.047-0.196-0.1-0.282l-0.035-0.061zM8.426 6.794c-0.015 0.131-0.169 0.223-0.28 0.163-0.077-0.061-0.136-0.149-0.206-0.223-0.074-0.094-0.142-0.195-0.186-0.297-0.010-0.028-0.016-0.060-0.016-0.093 0-0.030 0.005-0.060 0.014-0.087l-0.001 0.002c0.017-0.054 0.058-0.106 0.119-0.12 0.073-0.012 0.145 0.024 0.195 0.085 0.030 0.039 0.076 0.093 0.077 0.095l0.087 0.116 0.059 0.084c0.004 0.005 0.029 0.045 0.060 0.093 0.063 0.107 0.080 0.095 0.077 0.183zM9.020 5.142c-0.079-0-0.207 0.107-0.272 0.153 0.16 0.289 0.347 0.598 0.508 0.9 0.042 0.126-0.115 0.241-0.221 0.142-0.18-0.253-0.362-0.545-0.526-0.847l-0.023-0.046-0.001-0.002c-0.085 0.023-0.189 0.099-0.265 0.144l-0.002 0.001 0.003 0.001c0.196 0.32 0.378 0.659 0.569 0.983 0.143 0.221 0.449 0.161 0.645 0.019 0.167-0.12 0.198-0.307 0.123-0.481-0.152-0.337-0.339-0.66-0.539-0.965zM10.766 5.86v0zM10.141 5.445l0.002-0.001 0.008-0.004c0.119-0.067 0.165-0.173 0.168-0.288 0.029-0.344-0.328-0.581-0.639-0.449-0.196 0.069-0.358 0.181-0.492 0.273 0.082 0.119 0.682 1.327 0.667 1.335 0.022-0.018 0.255-0.105 0.324-0.184-0.053-0.095-0.197-0.341-0.238-0.464l0.007 0.004c0.175 0.081 0.394 0.259 0.501 0.352l0.002-0.001c0.118-0.048 0.225-0.114 0.315-0.158-0.18-0.174-0.424-0.276-0.624-0.413l-0.001-0.002zM9.92 5.244c-0.057 0.040-0.132 0.071-0.194 0.094l-0.002 0.001c-0.038-0.053-0.087-0.169-0.125-0.231 0.072-0.080 0.162-0.136 0.243-0.111 0.098 0.021 0.165 0.178 0.078 0.247zM11.707 3.913c-0.084 0.030-0.254 0.107-0.294 0.115-0.026 0.080 0.012 0.356-0.006 0.356-0.004 0.002-0.009 0.001-0.014-0.002-0.065-0.047-0.171-0.218-0.242-0.256l-0.002 0.001c-0.086 0.038-0.205 0.060-0.27 0.108 0.384 1.094 0.472 1.339 0.495 1.371 0.004 0.003 0.006 0.005 0.008 0.004 0.086-0.031 0.198-0.062 0.279-0.107-0.105-0.243-0.211-0.5-0.279-0.759 0.001-0.005 0.184 0.247 0.225 0.234 0.022-0.008 0.007-0.272 0.021-0.339 0.107 0.216 0.217 0.546 0.309 0.771 0.064-0.023 0.182-0.074 0.266-0.093l-0.224-0.643c-0.078-0.262-0.189-0.501-0.271-0.762zM12.281 3.728l-0.049 0.015c-0.122 0.039-0.177 0.049-0.226 0.061-0.019 0.006-0.072 0.015-0.085 0.021l0.001 0.004c0.088 0.472 0.311 0.952 0.42 1.456 0.052-0.034 0.335-0.072 0.366-0.13-0.166-0.456-0.284-0.951-0.424-1.419l-0.002-0.008zM13.632 4.714c-0.018-0.077-0.034-0.15-0.053-0.231-0.055-0.247-0.085-0.365-0.116-0.484l0.029 0.13-0.16-0.668c-0.041 0.001-0.088 0.008-0.14 0.020s-0.101 0.029-0.146 0.048c0.014 0.069 0.026 0.128 0.040 0.186 0.024 0.1 0.052 0.19 0.078 0.299 0.011 0.048 0.020 0.109 0.013 0.118-0.006 0.001-0.232-0.269-0.258-0.305-0.078-0.104-0.1-0.114-0.164-0.207-0.003-0.013-0.142 0.012-0.177 0.021-0.033 0.008-0.066 0.018-0.091 0.031 0.028 0.18 0.069 0.37 0.115 0.561 0.062 0.259 0.123 0.484 0.186 0.748l0.035 0.145c0.064-0.015 0.136-0.019 0.202-0.035 0.031-0.007 0.060-0.016 0.089-0.032-0.014-0.047-0.028-0.107-0.043-0.172-0.056-0.232-0.12-0.529-0.112-0.531 0.006-0.001 0.024 0.027 0.042 0.056l0.036 0.057c0.107 0.161 0.249 0.331 0.389 0.515 0.056-0.013 0.137-0.022 0.193-0.035 0.048-0.011 0.060-0.023 0.066-0.027l-0.010-0.041c-0.013-0.056-0.028-0.109-0.042-0.166zM14.556 3.903c-0.009-0.044-0.018-0.088-0.040-0.13-0.042-0.108-0.099-0.205-0.174-0.29-0.063-0.074-0.163-0.132-0.257-0.142-0.162 0.031-0.351 0.035-0.505 0.099-0.002 0.002-0.003 0.007-0.005 0.009 0.086 0.488 0.127 1.006 0.257 1.442l0.002-0.003c0.177-0.027 0.369-0.057 0.554-0.092 0.087-0.149 0.168-0.313 0.199-0.488-0-0.002 0.002-0.002 0.002-0.005 0.005-0.132-0.018-0.267-0.032-0.401zM14.266 4.278c-0.013 0.028-0.030 0.056-0.055 0.078-0.014 0.009-0.021 0.018-0.036 0.019-0.050 0.014-0.11 0.032-0.145 0.010-0.040-0.188-0.055-0.395-0.088-0.546l-0.001-0.008 0.002-0 0.004-0.001c0.049-0.018 0.108-0.025 0.158-0.027 0.1 0.019 0.142 0.121 0.172 0.205 0.039 0.1 0.027 0.19-0.010 0.271zM7.282 4.052c0.107 0.179 0.194 0.354 0.387 0.398 0.112 0.025 0.198 0.019 0.324-0.045 0.078-0.039 0.158-0.122 0.167-0.174 0.027 0.011 0.088 0.027 0.103 0.018 0.028-0.016 0.047-0.055 0.059-0.080 0.015-0.037 0.029-0.064 0.008-0.099-0.010-0.016-0.039-0.024-0.068-0.034-0.007-0.058-0.014-0.103-0.025-0.137-0.004-0.020-0.012-0.037-0.019-0.053-0.021-0.067-0.061-0.127-0.092-0.191-0.038-0.077-0.064-0.119-0.108-0.194-0.088-0.147-0.189-0.29-0.31-0.397-0.2-0.147-0.293-0.103-0.463-0.001-0.187 0.112-0.29 0.273-0.263 0.396 0.056 0.205 0.199 0.423 0.3 0.594zM7.402 3.338c0.115-0.069 0.186-0.029 0.246 0.054 0.062 0.082 0.096 0.132 0.148 0.218 0.033 0.055 0.099 0.157 0.125 0.213 0.009 0.027 0.046 0.097 0.054 0.124-0.050-0.013-0.097-0.066-0.128-0.048-0.027 0.016-0.029 0.052-0.041 0.077-0.016 0.036-0.046 0.060-0.025 0.095 0.013 0.022 0.048 0.039 0.082 0.050 0.021 0.005 0.042 0.012 0.066 0.018-0.009 0.008-0.020 0.015-0.031 0.021l-0.001 0.001c-0.074 0.044-0.155 0.053-0.226-0.004-0.067-0.059-0.163-0.239-0.203-0.306-0.061-0.103-0.094-0.165-0.146-0.273-0.065-0.13-0.059-0.156 0.080-0.24zM8.366 3.808c0.127 0.23 0.438 0.191 0.643 0.062 0.175-0.109 0.218-0.293 0.155-0.472-0.128-0.346-0.294-0.681-0.472-1-0.079-0.006-0.214 0.093-0.281 0.134 0.14 0.3 0.306 0.62 0.445 0.932 0.034 0.129-0.132 0.233-0.23 0.127-0.158-0.255-0.32-0.56-0.465-0.875l-0.022-0.054-0.001-0.002c-0.087 0.017-0.196 0.086-0.274 0.125l-0.002 0.001 0.003 0.001c0.174 0.333 0.333 0.683 0.501 1.019zM9.455 3.635c0.048-0.040 0.324-0.111 0.348-0.173-0.219-0.433-0.395-0.91-0.591-1.358l-0.003-0.008-0.047 0.021c-0.116 0.053-0.17 0.070-0.218 0.088-0.017 0.008-0.069 0.023-0.082 0.031l0.002 0.004c0.145 0.459 0.422 0.908 0.591 1.396zM10.746 3.102c-0.008-0.088-0.044-0.184-0.082-0.268l-0.001-0.004c-0.18 0.074-0.351 0.121-0.527 0.187l-0.003-0.001c-0.030-0.062-0.079-0.167-0.094-0.25 0.020-0.032 0.16-0.060 0.233-0.113-0.039-0.097-0.061-0.192-0.108-0.276l-0.001-0.002c-0.083 0.029-0.166 0.062-0.248 0.086l-0.003-0.001c-0.045-0.065-0.059-0.156-0.090-0.233l0.001-0.003 0.006-0.002c0.17-0.082 0.359-0.119 0.514-0.221l-0.001-0.002c-0.035-0.094-0.057-0.195-0.107-0.284-0.005-0.012-0.519 0.191-0.823 0.323 0.146 0.467 0.337 0.904 0.511 1.367 0.266-0.075 0.548-0.204 0.821-0.304zM11.444 2.882l-0.001-0.004c-0.284-0.889-0.33-1.037-0.334-1.079-0-0.002 0.001-0.005 0-0.007l0.002-0.001 0.004-0.001c0.127-0.045 0.195-0.070 0.249-0.075-0.015-0.102-0.054-0.231-0.087-0.319-0.289 0.053-0.591 0.154-0.868 0.24 0.001 0.002 0.003 0.002 0.003 0.004 0.028 0.132 0.088 0.301 0.104 0.319 0.036 0 0.179-0.063 0.253-0.049l0.003 0.001c0.261 0.753 0.327 1.063 0.34 1.086 0.093-0.046 0.236-0.068 0.331-0.115z"></path>
<path fill="#915efd" d="M4.144 11.24l-0.003-0.059-0.042-0.023c-0.114-0.062-0.652 0.155-0.839 0.296-0.035 0.027-0.142 0.107-0.119 0.209 0.013 0.062 0.060 0.122 0.156 0.122 0.010 0 0.021-0.001 0.032-0.002 0.166-0.021 0.822-0.441 0.816-0.543zM4.387 11.438l-0.048 0.004c-0.132 0.010-0.468 0.486-0.548 0.706-0.015 0.040-0.059 0.164 0.014 0.236 0.031 0.032 0.068 0.047 0.106 0.047 0.035 0 0.071-0.013 0.106-0.039 0.127-0.095 0.464-0.801 0.405-0.906l-0.035-0.048zM4.786 11.542l-0.056-0.020-0.037 0.030c-0.107 0.086-0.129 0.683-0.074 0.904 0.026 0.105 0.073 0.164 0.138 0.177 0.012 0.002 0.023 0.003 0.034 0.003 0.071 0 0.128-0.045 0.155-0.125 0.053-0.159-0.053-0.916-0.16-0.969zM5.128 11.394c-0 0-0 0-0 0-0.002 0-0.003 0-0.005 0l0-0-0.057 0.013-0.015 0.046c-0.040 0.124 0.261 0.652 0.438 0.811 0.054 0.049 0.105 0.073 0.151 0.073 0.018 0 0.035-0.004 0.052-0.011 0.030-0.013 0.123-0.066 0.084-0.207-0.055-0.202-0.526-0.725-0.648-0.725zM5.327 11.088c-0.020 0.017-0.032 0.043-0.032 0.071 0 0.002 0 0.003 0 0.005v-0c0.001 0.035 0.022 0.068 0.056 0.093 0.006 0.004 0.552 0.375 0.818 0.375 0.016 0 0.030-0.001 0.044-0.004 0.055-0.011 0.084-0.041 0.099-0.064 0.018-0.028 0.066-0.122-0.047-0.223-0.176-0.156-0.842-0.335-0.938-0.252zM6.272 10.423c-0.194-0.034-0.906 0.172-0.937 0.296l-0.010 0.056 0.035 0.032c0.034 0.031 0.133 0.044 0.257 0.044 0.215 0 0.502-0.040 0.644-0.097 0.037-0.015 0.151-0.060 0.158-0.16 0.003-0.035 0.001-0.144-0.147-0.17zM5.14 10.4l0.021 0.060 0.053 0.006c0.003 0 0.005 0 0.008 0 0.139-0 0.644-0.368 0.769-0.625 0.026-0.054 0.011-0.12-0.036-0.168-0.046-0.046-0.109-0.061-0.162-0.036-0.253 0.114-0.685 0.654-0.653 0.762zM4.866 10.267c0.014 0 0.027-0.003 0.041-0.010 0.121-0.060 0.346-0.682 0.313-0.947-0.008-0.059-0.056-0.107-0.122-0.121-0.064-0.014-0.125 0.009-0.155 0.057-0.162 0.25-0.217 0.911-0.136 0.995 0.017 0.016 0.038 0.025 0.060 0.025zM4.121 9.245c-0.064 0.022-0.105 0.074-0.106 0.133-0.005 0.32 0.326 0.897 0.426 0.914l0.062 0.003 0.026-0.045c0.066-0.113-0.057-0.737-0.245-0.966-0.037-0.045-0.101-0.060-0.163-0.038zM4.129 10.525c0.024 0 0.043-0.005 0.057-0.016 0.012-0.009 0.068-0.061-0.002-0.15-0.005-0.006-0.475-0.574-0.723-0.598-0.057-0.005-0.091 0.014-0.112 0.032-0.037 0.031-0.109 0.118 0.013 0.27 0.111 0.138 0.576 0.463 0.767 0.463zM4.052 10.873c0.014-0.025 0.016-0.055 0.005-0.082-0.012-0.031-0.040-0.056-0.078-0.069-0.093-0.031-0.907-0.296-1.008-0.027l-0.002 0.004c-0.010 0.032-0.030 0.139 0.113 0.204 0.087 0.039 0.283 0.060 0.476 0.060 0.229 0 0.455-0.029 0.493-0.091z"></path>
<path fill="#fc09b2" d="M4.691 11.27c0.475 0 0.476-0.719 0-0.719s-0.476 0.719 0 0.719z"></path>
<path fill="#915efd" d="M26.762 17.314l-0.003-0.059-0.042-0.023c-0.114-0.062-0.652 0.155-0.839 0.296-0.035 0.027-0.142 0.107-0.119 0.209 0.013 0.061 0.060 0.122 0.156 0.122 0.010 0 0.021-0.001 0.032-0.002 0.165-0.021 0.822-0.441 0.816-0.542zM27.006 17.512l-0.048 0.004c-0.132 0.010-0.468 0.486-0.548 0.706-0.015 0.041-0.059 0.163 0.015 0.236 0.031 0.032 0.068 0.047 0.106 0.047 0.035 0 0.071-0.013 0.106-0.039 0.127-0.095 0.464-0.801 0.405-0.906l-0.035-0.048zM27.404 17.616l-0.056-0.020-0.038 0.030c-0.107 0.086-0.129 0.683-0.074 0.904 0.026 0.105 0.073 0.164 0.139 0.177 0.010 0.002 0.022 0.003 0.034 0.003h0c0.071 0 0.128-0.045 0.155-0.125 0.053-0.159-0.053-0.916-0.16-0.969zM27.747 17.468c-0 0-0 0-0 0-0.002 0-0.003 0-0.005 0l0-0-0.057 0.013-0.015 0.046c-0.040 0.124 0.261 0.651 0.438 0.811 0.054 0.049 0.105 0.073 0.151 0.073 0.018 0 0.035-0.004 0.052-0.011 0.030-0.013 0.123-0.066 0.084-0.207-0.055-0.202-0.526-0.725-0.648-0.725zM27.945 17.162c-0.020 0.017-0.032 0.043-0.032 0.071 0 0.002 0 0.003 0 0.005v-0c0.001 0.035 0.022 0.068 0.056 0.093 0.006 0.004 0.552 0.375 0.818 0.375 0.015 0 0.030-0.001 0.044-0.004 0.055-0.011 0.084-0.041 0.099-0.064 0.018-0.028 0.066-0.122-0.047-0.223-0.176-0.156-0.842-0.335-0.938-0.253zM28.89 16.497c-0.194-0.034-0.906 0.172-0.937 0.296l-0.009 0.056 0.035 0.032c0.034 0.031 0.133 0.044 0.257 0.044 0.215 0 0.502-0.040 0.644-0.097 0.037-0.015 0.151-0.060 0.158-0.16 0.003-0.035 0.001-0.144-0.147-0.17zM27.759 16.474l0.021 0.060 0.053 0.006c0.003 0 0.005 0 0.008 0 0.139-0 0.645-0.368 0.769-0.625 0.026-0.054 0.011-0.12-0.036-0.168-0.046-0.046-0.109-0.061-0.162-0.036-0.253 0.114-0.685 0.654-0.653 0.762zM27.484 16.341c0.014 0 0.027-0.003 0.041-0.010 0.121-0.060 0.346-0.682 0.313-0.947-0.008-0.059-0.056-0.107-0.122-0.121-0.064-0.014-0.125 0.009-0.155 0.057-0.162 0.25-0.217 0.911-0.136 0.995 0.017 0.016 0.038 0.025 0.060 0.025zM26.739 15.319c-0.064 0.022-0.105 0.074-0.106 0.133-0.005 0.32 0.326 0.897 0.426 0.914l0.062 0.003 0.026-0.045c0.066-0.113-0.057-0.737-0.245-0.966-0.037-0.045-0.101-0.060-0.163-0.038zM26.748 16.599c0.024 0 0.043-0.005 0.057-0.016 0.012-0.009 0.068-0.061-0.002-0.15-0.005-0.006-0.475-0.574-0.723-0.598-0.057-0.005-0.091 0.014-0.112 0.032-0.037 0.031-0.109 0.118 0.013 0.27 0.111 0.138 0.576 0.462 0.767 0.462zM26.67 16.947c0.014-0.025 0.016-0.055 0.005-0.081-0.012-0.031-0.040-0.056-0.078-0.069-0.093-0.031-0.907-0.296-1.008-0.027l-0.001 0.004c-0.010 0.032-0.030 0.139 0.113 0.204 0.087 0.039 0.283 0.060 0.476 0.060 0.229 0 0.455-0.029 0.493-0.091z"></path>
<path fill="#fc09b2" d="M27.309 17.344c0.475 0 0.476-0.719 0-0.719s-0.476 0.719 0 0.719z"></path>
<path fill="#915efd" d="M7.179 28.402l-0.003-0.059-0.042-0.023c-0.114-0.062-0.652 0.155-0.839 0.296-0.035 0.027-0.142 0.107-0.119 0.209 0.013 0.061 0.060 0.122 0.156 0.122 0.010 0 0.021-0.001 0.032-0.002 0.165-0.021 0.822-0.441 0.816-0.542zM7.422 28.601l-0.048 0.004c-0.132 0.010-0.468 0.486-0.548 0.706-0.015 0.041-0.059 0.163 0.014 0.236 0.031 0.032 0.068 0.047 0.106 0.047 0.035 0 0.071-0.013 0.106-0.039 0.127-0.095 0.464-0.801 0.405-0.906l-0.035-0.048zM7.821 28.704l-0.056-0.020-0.037 0.030c-0.107 0.086-0.129 0.683-0.074 0.904 0.026 0.105 0.073 0.164 0.138 0.177 0.012 0.002 0.023 0.003 0.034 0.003 0.071 0 0.128-0.045 0.155-0.125 0.053-0.159-0.053-0.916-0.16-0.969zM8.164 28.556c-0 0-0 0-0 0-0.002 0-0.003 0-0.005 0l0-0-0.057 0.013-0.015 0.046c-0.040 0.124 0.261 0.651 0.438 0.811 0.054 0.049 0.105 0.073 0.151 0.073 0.018 0 0.035-0.004 0.052-0.011 0.030-0.013 0.123-0.066 0.084-0.207-0.055-0.202-0.526-0.725-0.648-0.725zM8.362 28.25c-0.020 0.017-0.032 0.043-0.032 0.071 0 0.002 0 0.003 0 0.005v-0c0.001 0.035 0.022 0.068 0.056 0.093 0.006 0.004 0.552 0.375 0.818 0.375 0.015 0 0.030-0.001 0.044-0.004 0.055-0.011 0.084-0.041 0.099-0.064 0.018-0.028 0.066-0.122-0.047-0.223-0.176-0.156-0.842-0.335-0.938-0.253zM9.307 27.585c-0.194-0.034-0.906 0.172-0.937 0.296l-0.009 0.056 0.035 0.032c0.034 0.031 0.133 0.044 0.257 0.044 0.215 0 0.502-0.040 0.644-0.097 0.037-0.015 0.15-0.060 0.158-0.16 0.003-0.035 0.001-0.144-0.147-0.17zM8.176 27.562l0.021 0.060 0.053 0.006c0.002 0 0.005 0 0.008 0 0.139-0 0.645-0.368 0.769-0.625 0.025-0.054 0.011-0.12-0.036-0.168-0.046-0.046-0.109-0.061-0.162-0.036-0.253 0.114-0.685 0.654-0.653 0.762zM7.901 27.429c0.014 0 0.027-0.003 0.041-0.010 0.121-0.060 0.346-0.682 0.313-0.947-0.008-0.059-0.056-0.107-0.122-0.121-0.064-0.014-0.125 0.009-0.155 0.057-0.162 0.25-0.217 0.911-0.136 0.995 0.017 0.016 0.038 0.025 0.060 0.025zM7.156 26.407c-0.064 0.022-0.105 0.074-0.106 0.133-0.005 0.32 0.326 0.897 0.426 0.914l0.062 0.003 0.026-0.045c0.066-0.113-0.057-0.737-0.245-0.966-0.037-0.045-0.101-0.060-0.163-0.038zM7.165 27.687c0.024 0 0.043-0.005 0.057-0.016 0.012-0.009 0.068-0.061-0.002-0.15-0.005-0.006-0.475-0.574-0.723-0.598-0.057-0.006-0.091 0.014-0.112 0.032-0.037 0.031-0.109 0.118 0.013 0.27 0.111 0.138 0.576 0.463 0.767 0.463zM7.087 28.035c0.007-0.013 0.012-0.029 0.012-0.046 0-0.013-0.002-0.025-0.007-0.036l0 0.001c-0.012-0.031-0.040-0.056-0.078-0.069-0.093-0.031-0.907-0.296-1.008-0.027l-0.002 0.004c-0.010 0.032-0.030 0.139 0.113 0.204 0.087 0.039 0.283 0.060 0.476 0.060 0.229 0 0.455-0.029 0.493-0.091z"></path>
<path fill="#fc09b2" d="M7.726 28.432c0.475 0 0.476-0.719 0-0.719s-0.476 0.719 0 0.719z"></path>
<path fill="#fc09b2" d="M5.624 20.902c-0.015-0.048-0.113-0.068-0.224-0.079-0.108-0.011-0.229-0.012-0.29 0.002s-0.117 0.053-0.152 0.109c-0.021 0.035-0.033 0.077-0.033 0.121 0 0.025 0.004 0.050 0.011 0.073l-0-0.002c0.019 0.068 0.075 0.116 0.135 0.139s0.128 0.023 0.185-0.003c0.057-0.025 0.156-0.096 0.238-0.168s0.144-0.143 0.131-0.192zM5.727 21.517c-0.105 0.029-0.219 0.073-0.27 0.108-0.103 0.067-0.149 0.236-0.054 0.344 0.088 0.113 0.263 0.1 0.348 0.011 0.044-0.044 0.11-0.146 0.16-0.242 0.048-0.095 0.085-0.189 0.053-0.228s-0.133-0.020-0.237 0.007zM6.408 21.97c-0.037 0.017-0.081 0.045-0.125 0.077-0.088 0.065-0.178 0.147-0.214 0.198s-0.050 0.117-0.038 0.181c0.011 0.065 0.048 0.127 0.111 0.159 0.062 0.033 0.132 0.038 0.193 0.014s0.111-0.072 0.136-0.129c0.025-0.057 0.050-0.175 0.062-0.282s0.013-0.209-0.032-0.233c-0.022-0.012-0.055-0.004-0.093 0.014zM7.162 22.178c-0.050-0.004-0.111 0.068-0.17 0.163-0.058 0.093-0.113 0.203-0.128 0.264-0.032 0.119 0.050 0.269 0.192 0.291 0.143 0.015 0.262-0.098 0.265-0.226 0.003-0.062-0.017-0.18-0.045-0.288-0.029-0.107-0.064-0.199-0.114-0.203zM8.040 22.293c-0.065-0.090-0.129-0.155-0.179-0.148-0.050 0.010-0.079 0.105-0.1 0.215s-0.033 0.227-0.025 0.29c0.008 0.061 0.043 0.123 0.094 0.161 0.039 0.029 0.088 0.046 0.141 0.046 0.017 0 0.034-0.002 0.050-0.005l-0.002 0c0.070-0.012 0.122-0.066 0.151-0.122 0.029-0.058 0.034-0.125 0.014-0.184s-0.081-0.164-0.145-0.253zM8.719 21.936c-0.091-0.056-0.179-0.101-0.222-0.074s-0.032 0.132-0.015 0.237c0.019 0.107 0.052 0.224 0.082 0.279 0.057 0.11 0.221 0.169 0.338 0.085 0.122-0.077 0.123-0.253 0.043-0.345-0.040-0.048-0.135-0.123-0.226-0.182zM9.5 21.446c-0.055-0.030-0.17-0.066-0.276-0.088-0.105-0.020-0.207-0.032-0.234 0.010-0.014 0.021-0.010 0.054 0.005 0.094 0.014 0.039 0.037 0.085 0.066 0.131 0.057 0.093 0.13 0.191 0.178 0.231s0.112 0.060 0.177 0.055c0.035-0.003 0.068-0.013 0.097-0.028l-0.001 0.001c0.029-0.018 0.054-0.041 0.073-0.068l0.001-0.001c0.039-0.059 0.051-0.128 0.031-0.191s-0.061-0.117-0.116-0.147zM9.776 20.618c-0.063-0.009-0.18 0-0.289 0.018s-0.204 0.045-0.214 0.095c-0.007 0.050 0.058 0.116 0.147 0.184 0.087 0.067 0.191 0.131 0.25 0.152 0.115 0.042 0.274-0.024 0.307-0.164 0.003-0.015 0.005-0.031 0.005-0.049 0-0.053-0.017-0.102-0.046-0.142l0 0.001c-0.037-0.052-0.099-0.087-0.16-0.095zM9.468 19.868c-0.095 0.057-0.168 0.115-0.163 0.165s0.097 0.088 0.203 0.12c0.108 0.031 0.226 0.053 0.288 0.051 0.128-0.003 0.241-0.121 0.227-0.264-0.021-0.142-0.171-0.224-0.29-0.193-0.061 0.014-0.171 0.066-0.265 0.121zM9.097 19.28c-0.019 0.038-0.027 0.070-0.015 0.092 0.023 0.045 0.127 0.044 0.235 0.036s0.228-0.031 0.285-0.056c0.115-0.047 0.189-0.204 0.116-0.328-0.017-0.030-0.039-0.056-0.066-0.076l-0.001-0c-0.026-0.017-0.057-0.030-0.091-0.036l-0.002-0c-0.064-0.012-0.131 0.002-0.182 0.037s-0.135 0.123-0.202 0.209c-0.033 0.043-0.062 0.085-0.079 0.122zM8.867 18.786c0.098-0.048 0.202-0.112 0.246-0.156s0.070-0.106 0.071-0.172c0-0.002 0-0.005 0-0.008 0-0.068-0.031-0.128-0.080-0.168l-0-0c-0.108-0.094-0.276-0.051-0.344 0.053-0.035 0.052-0.082 0.163-0.113 0.267-0.029 0.102-0.051 0.203-0.011 0.234s0.134-0.004 0.231-0.050zM8.262 17.811c-0.021-0.007-0.046-0.011-0.071-0.011-0.045 0-0.086 0.012-0.122 0.034l0.001-0.001c-0.055 0.034-0.096 0.091-0.11 0.151s-0.017 0.181-0.009 0.289c0.008 0.111 0.026 0.208 0.074 0.223 0.049 0.012 0.122-0.049 0.197-0.129s0.148-0.178 0.174-0.235c0.026-0.057 0.027-0.124 0.004-0.185s-0.070-0.117-0.139-0.136zM7.308 17.675c-0.143 0.011-0.239 0.149-0.219 0.271 0.009 0.062 0.050 0.177 0.096 0.276s0.099 0.181 0.149 0.177c0.051 0.001 0.097-0.087 0.138-0.19s0.074-0.222 0.077-0.284c0.009-0.124-0.099-0.251-0.242-0.25zM6.562 17.9c-0.058-0.029-0.128-0.032-0.194-0.005-0.066 0.026-0.109 0.084-0.126 0.147s-0.010 0.13 0.020 0.184c0.031 0.054 0.11 0.146 0.189 0.221s0.157 0.131 0.204 0.113c0.047-0.019 0.057-0.12 0.058-0.231 0.001-0.108-0.010-0.229-0.029-0.288s-0.064-0.111-0.123-0.141zM5.594 18.786c0.048 0.040 0.155 0.096 0.255 0.137 0.099 0.039 0.197 0.068 0.232 0.032s0.008-0.134-0.029-0.235c-0.038-0.102-0.093-0.211-0.132-0.259-0.076-0.096-0.249-0.127-0.347-0.022-0.104 0.099-0.076 0.271 0.021 0.347zM5.171 19.549c0.059 0.020 0.179 0.034 0.287 0.035 0.11 0.002 0.21-0.006 0.229-0.053 0.018-0.047-0.038-0.127-0.111-0.209s-0.163-0.164-0.218-0.195c-0.054-0.031-0.121-0.038-0.184-0.021s-0.122 0.059-0.148 0.125c-0.012 0.027-0.019 0.059-0.019 0.092 0 0.037 0.008 0.071 0.023 0.102l-0.001-0.001c0.030 0.059 0.082 0.104 0.141 0.123zM5.335 20.343c0.103-0.038 0.191-0.082 0.191-0.133 0.002-0.050-0.078-0.104-0.177-0.154s-0.213-0.094-0.275-0.103c-0.122-0.020-0.261 0.075-0.272 0.218-0.001 0.143 0.125 0.251 0.249 0.243 0.062-0.003 0.181-0.033 0.284-0.071z"></path>
<path fill="#4217a6" d="M6.773 20.644c0.012-0.011 0.020-0.024 0.019-0.035 0.002-0.019-0.020-0.028-0.048-0.021-0.072 0.018-0.143 0.040-0.214 0.063-0.090 0.029-0.159 0.054-0.226 0.082l0.019-0.007c-0.067 0.028-0.134 0.059-0.198 0.096s-0.124 0.079-0.177 0.138c-0.012 0.014-0.018 0.036-0.012 0.061 0.008 0.042 0.046 0.071 0.079 0.066 0.079-0.011 0.148-0.038 0.215-0.069 0.075-0.036 0.137-0.072 0.197-0.112l-0.006 0.004c0.071-0.047 0.129-0.088 0.186-0.132l-0.007 0.005c0.065-0.050 0.121-0.096 0.176-0.143l-0.004 0.003zM7.027 20.907c-0.047 0.051-0.095 0.106-0.141 0.162l-0.005 0.006c-0.042 0.050-0.085 0.107-0.127 0.166l-0.006 0.009c-0.042 0.060-0.081 0.122-0.115 0.188s-0.062 0.134-0.075 0.212c-0.003 0.018 0.005 0.040 0.023 0.058 0.030 0.030 0.077 0.036 0.102 0.014 0.061-0.052 0.104-0.112 0.144-0.174 0.034-0.054 0.069-0.118 0.099-0.184l0.004-0.010c0.023-0.048 0.050-0.115 0.076-0.184l0.007-0.020c0.018-0.045 0.041-0.115 0.063-0.185l0.006-0.025c0.004-0.016 0.004-0.030-0.002-0.040-0.009-0.017-0.032-0.012-0.052 0.009zM7.554 21.232c-0.022-0.096-0.041-0.168-0.062-0.238l0.006 0.025c-0.005-0.016-0.013-0.029-0.024-0.034-0.017-0.009-0.034 0.008-0.039 0.037-0.010 0.052-0.021 0.126-0.031 0.202l-0.002 0.017c-0.008 0.061-0.014 0.137-0.017 0.213l-0 0.006c-0.001 0.021-0.002 0.045-0.002 0.070 0 0.053 0.003 0.105 0.008 0.157l-0-0.007c0.008 0.073 0.020 0.149 0.051 0.22 0.007 0.017 0.026 0.031 0.051 0.035 0.041 0.008 0.083-0.012 0.093-0.043 0.023-0.076 0.027-0.151 0.027-0.225-0.001-0.078-0.008-0.154-0.020-0.228l0.001 0.009c-0.013-0.090-0.028-0.163-0.045-0.235l0.004 0.019zM8.341 21.343c-0.044-0.065-0.088-0.122-0.136-0.176l0.001 0.002c-0.050-0.057-0.099-0.108-0.151-0.158l-0.001-0.001c-0.051-0.050-0.104-0.099-0.159-0.146l-0.005-0.004c-0.012-0.011-0.027-0.017-0.038-0.015-0.019 0.002-0.023 0.027-0.013 0.053 0.037 0.090 0.068 0.156 0.1 0.221l-0.009-0.020c0.040 0.081 0.074 0.145 0.111 0.207l-0.007-0.013c0.041 0.070 0.082 0.129 0.126 0.185l-0.003-0.003c0.047 0.057 0.097 0.113 0.163 0.158 0.016 0.011 0.039 0.013 0.062 0.003 0.038-0.016 0.063-0.056 0.054-0.087-0.021-0.075-0.058-0.141-0.098-0.203zM8.778 20.677c-0.056-0.025-0.125-0.051-0.196-0.071l-0.011-0.003c-0.050-0.015-0.122-0.033-0.194-0.049l-0.019-0.003c-0.049-0.011-0.123-0.025-0.198-0.036l-0.021-0.003c-0.016-0.002-0.031 0-0.040 0.008-0.014 0.012-0.005 0.034 0.018 0.051 0.048 0.034 0.108 0.074 0.17 0.111l0.015 0.009c0.049 0.031 0.112 0.066 0.176 0.099l0.016 0.008c0.055 0.029 0.122 0.058 0.191 0.083l0.011 0.003c0.070 0.023 0.142 0.043 0.222 0.045 0.023-0.001 0.043-0.013 0.054-0.031l0-0c0.023-0.035 0.023-0.082-0.002-0.103-0.059-0.052-0.124-0.087-0.192-0.118zM9.010 19.876c-0.079-0.012-0.153-0.006-0.225 0.005s-0.144 0.029-0.214 0.049c-0.091 0.027-0.16 0.052-0.228 0.078l0.020-0.007c-0.093 0.035-0.16 0.064-0.226 0.095l0.022-0.009c-0.015 0.007-0.026 0.017-0.028 0.028-0.005 0.018 0.011 0.032 0.041 0.034 0.075 0.003 0.149 0.002 0.222 0.001 0.081-0.002 0.157-0.007 0.232-0.015l-0.013 0.001c0.082-0.008 0.156-0.021 0.227-0.039l-0.011 0.002c0.071-0.018 0.142-0.041 0.21-0.082 0.016-0.010 0.027-0.030 0.029-0.055 0.004-0.042-0.026-0.081-0.057-0.086zM7.988 19.766c0.078-0.047 0.139-0.086 0.199-0.128l-0.012 0.008c0.061-0.042 0.12-0.084 0.177-0.13 0.059-0.047 0.113-0.096 0.162-0.148l0.001-0.001c0.050-0.054 0.097-0.111 0.131-0.182 0.008-0.017 0.007-0.040-0.006-0.062-0.020-0.037-0.064-0.055-0.094-0.041-0.073 0.033-0.132 0.078-0.187 0.126s-0.105 0.101-0.151 0.155l-0.002 0.002c-0.043 0.051-0.088 0.107-0.131 0.165l-0.006 0.008c-0.036 0.049-0.078 0.108-0.117 0.169l-0.008 0.014c-0.009 0.014-0.012 0.028-0.009 0.039 0.004 0.019 0.027 0.021 0.052 0.006zM7.868 18.696c-0.002-0.018-0.016-0.037-0.039-0.049-0.037-0.020-0.084-0.013-0.102 0.015-0.043 0.067-0.068 0.137-0.089 0.208s-0.034 0.143-0.044 0.215-0.016 0.145-0.021 0.219c-0.004 0.062-0.006 0.135-0.006 0.209 0 0.004 0 0.008 0 0.012v-0.001c0 0.016 0.005 0.030 0.013 0.038 0.014 0.013 0.034 0.002 0.047-0.024 0.023-0.044 0.054-0.11 0.083-0.178l0.009-0.024c0.022-0.048 0.048-0.116 0.072-0.185l0.006-0.020c0.023-0.069 0.043-0.14 0.057-0.213s0.022-0.146 0.012-0.225zM7.127 19.112c-0.021-0.083-0.043-0.153-0.071-0.22l0.004 0.011c-0.029-0.068-0.061-0.135-0.112-0.198-0.012-0.015-0.033-0.022-0.059-0.020-0.042 0.005-0.077 0.036-0.077 0.068-0.001 0.078 0.016 0.152 0.037 0.223 0.026 0.081 0.053 0.149 0.084 0.215l-0.004-0.010c0.039 0.083 0.072 0.147 0.108 0.209l-0.008-0.014c0.046 0.082 0.084 0.144 0.123 0.205l-0.009-0.015c0.009 0.014 0.021 0.024 0.032 0.026 0.019 0.003 0.029-0.018 0.027-0.047-0.010-0.091-0.021-0.165-0.034-0.239l0.003 0.021c-0.015-0.091-0.031-0.164-0.049-0.235l0.004 0.020zM6.244 19.492c0.056 0.048 0.116 0.090 0.178 0.13 0.049 0.032 0.111 0.068 0.174 0.103l0.015 0.008c0.064 0.034 0.13 0.067 0.199 0.099 0.015 0.007 0.030 0.009 0.041 0.004 0.017-0.007 0.014-0.032-0.003-0.054-0.050-0.062-0.097-0.117-0.146-0.17l0.002 0.002c-0.050-0.055-0.101-0.106-0.153-0.155l-0.001-0.001c-0.053-0.050-0.109-0.097-0.17-0.14s-0.124-0.081-0.2-0.106c-0.018-0.006-0.041-0.002-0.060 0.015-0.032 0.026-0.045 0.072-0.027 0.099 0.041 0.066 0.095 0.118 0.151 0.167zM6.231 20.267c0.079-0.001 0.155-0.004 0.231-0.011l-0.011 0.001c0.089-0.007 0.165-0.016 0.241-0.027l-0.019 0.002c0.016-0.003 0.030-0.009 0.036-0.019 0.009-0.016-0.004-0.035-0.031-0.044-0.045-0.016-0.116-0.038-0.188-0.057l-0.024-0.006c-0.051-0.015-0.123-0.031-0.197-0.045l-0.018-0.003c-0.063-0.012-0.138-0.022-0.214-0.025l-0.004-0c-0.074-0.002-0.148-0-0.225 0.020-0.018 0.005-0.035 0.021-0.044 0.045-0.012 0.040 0.002 0.084 0.032 0.098 0.072 0.033 0.144 0.048 0.217 0.059 0.073 0.010 0.146 0.013 0.219 0.013z"></path>
<path fill="#fd8a02" d="M7.773 20.286c0 0.198-0.161 0.359-0.359 0.359s-0.359-0.161-0.359-0.359c0-0.198 0.161-0.359 0.359-0.359s0.359 0.161 0.359 0.359z"></path>
<path fill="#fc09b2" d="M22.408 5.168c-0.015-0.048-0.113-0.068-0.224-0.079-0.108-0.011-0.229-0.012-0.29 0.002s-0.117 0.053-0.152 0.109c-0.021 0.035-0.033 0.077-0.033 0.121 0 0.025 0.004 0.050 0.011 0.073l-0-0.002c0.019 0.068 0.075 0.116 0.135 0.139s0.128 0.022 0.185-0.003c0.057-0.025 0.156-0.096 0.238-0.168s0.144-0.143 0.131-0.192zM22.511 5.783c-0.105 0.029-0.219 0.073-0.27 0.108-0.103 0.067-0.149 0.236-0.054 0.344 0.088 0.114 0.263 0.1 0.348 0.011 0.044-0.044 0.11-0.146 0.16-0.242 0.048-0.095 0.085-0.189 0.053-0.228s-0.134-0.020-0.237 0.007zM23.192 6.236c-0.037 0.017-0.081 0.045-0.125 0.077-0.088 0.065-0.178 0.147-0.214 0.199s-0.050 0.117-0.038 0.181c0.011 0.065 0.048 0.127 0.111 0.159 0.062 0.033 0.132 0.037 0.193 0.014s0.111-0.072 0.136-0.129c0.025-0.057 0.050-0.175 0.062-0.282s0.013-0.209-0.032-0.233c-0.022-0.012-0.055-0.004-0.093 0.014zM23.946 6.444c-0.050-0.004-0.11 0.068-0.17 0.163-0.058 0.093-0.113 0.203-0.128 0.264-0.032 0.119 0.050 0.269 0.192 0.291 0.143 0.015 0.262-0.098 0.265-0.226 0.003-0.062-0.017-0.18-0.045-0.288s-0.064-0.199-0.114-0.203zM24.824 6.559c-0.065-0.090-0.129-0.155-0.179-0.148-0.049 0.010-0.078 0.105-0.1 0.215s-0.033 0.227-0.025 0.29c0.008 0.061 0.043 0.123 0.094 0.161 0.039 0.029 0.088 0.046 0.141 0.046 0.017 0 0.034-0.002 0.050-0.005l-0.002 0c0.070-0.012 0.122-0.066 0.151-0.122 0.029-0.058 0.034-0.125 0.014-0.184s-0.081-0.164-0.145-0.253zM25.503 6.202c-0.091-0.056-0.179-0.101-0.222-0.074s-0.032 0.132-0.015 0.237c0.019 0.107 0.052 0.224 0.082 0.279 0.057 0.11 0.221 0.17 0.338 0.085 0.122-0.077 0.123-0.253 0.043-0.345-0.040-0.048-0.135-0.123-0.226-0.182zM26.285 5.712c-0.055-0.030-0.17-0.066-0.276-0.088-0.105-0.020-0.207-0.032-0.234 0.010-0.014 0.021-0.010 0.054 0.005 0.094 0.014 0.039 0.037 0.085 0.066 0.131 0.057 0.093 0.13 0.191 0.178 0.231s0.112 0.060 0.177 0.055c0.035-0.003 0.067-0.013 0.097-0.028l-0.001 0.001c0.029-0.018 0.054-0.041 0.073-0.069l0.001-0.001c0.039-0.059 0.051-0.128 0.031-0.191s-0.061-0.117-0.115-0.147zM26.56 4.884c-0.063-0.008-0.18 0-0.289 0.018s-0.204 0.045-0.214 0.095c-0.007 0.050 0.058 0.117 0.147 0.184 0.087 0.067 0.192 0.131 0.25 0.152 0.115 0.042 0.274-0.024 0.307-0.164 0.003-0.015 0.005-0.031 0.005-0.049 0-0.053-0.017-0.102-0.046-0.142l0 0.001c-0.037-0.052-0.099-0.087-0.16-0.095zM26.252 4.134c-0.095 0.057-0.168 0.115-0.163 0.165s0.097 0.088 0.203 0.12c0.108 0.031 0.226 0.053 0.288 0.051 0.128-0.003 0.241-0.121 0.227-0.264-0.021-0.142-0.171-0.224-0.29-0.193-0.061 0.014-0.171 0.066-0.265 0.121zM25.881 3.546c-0.019 0.038-0.027 0.070-0.015 0.092 0.023 0.045 0.127 0.044 0.235 0.036s0.228-0.031 0.285-0.056c0.116-0.047 0.189-0.204 0.116-0.328-0.017-0.030-0.039-0.056-0.066-0.076l-0.001-0c-0.026-0.017-0.057-0.030-0.090-0.036l-0.002-0c-0.064-0.012-0.131 0.002-0.182 0.037s-0.135 0.123-0.202 0.209c-0.033 0.043-0.062 0.085-0.079 0.122zM25.651 3.052c0.098-0.048 0.202-0.112 0.246-0.156s0.070-0.106 0.071-0.172c0-0.002 0-0.005 0-0.008 0-0.068-0.031-0.128-0.080-0.168l-0-0c-0.108-0.094-0.276-0.051-0.344 0.053-0.035 0.051-0.082 0.163-0.113 0.267-0.029 0.102-0.051 0.203-0.011 0.234s0.134-0.004 0.232-0.050zM25.047 2.077c-0.021-0.007-0.046-0.011-0.071-0.011-0.045 0-0.086 0.012-0.122 0.034l0.001-0.001c-0.055 0.034-0.096 0.091-0.11 0.151s-0.017 0.181-0.009 0.289c0.008 0.111 0.026 0.208 0.074 0.223 0.049 0.013 0.122-0.049 0.197-0.129s0.148-0.178 0.174-0.235c0.026-0.057 0.027-0.124 0.004-0.185s-0.070-0.117-0.139-0.136zM24.092 1.941c-0.143 0.011-0.239 0.149-0.219 0.271 0.009 0.062 0.050 0.177 0.096 0.276s0.099 0.181 0.149 0.177c0.051 0.001 0.097-0.087 0.138-0.19s0.074-0.222 0.077-0.284c0.009-0.124-0.099-0.251-0.242-0.25zM23.346 2.166c-0.058-0.029-0.128-0.032-0.194-0.005-0.066 0.026-0.109 0.084-0.126 0.147s-0.010 0.13 0.020 0.184c0.031 0.054 0.11 0.146 0.189 0.221s0.157 0.131 0.204 0.113c0.047-0.019 0.057-0.12 0.058-0.231 0.001-0.108-0.010-0.229-0.029-0.288s-0.064-0.111-0.123-0.141zM22.378 3.052c0.048 0.040 0.155 0.096 0.255 0.137 0.099 0.039 0.197 0.068 0.232 0.032s0.008-0.134-0.029-0.235c-0.038-0.102-0.093-0.211-0.132-0.259-0.076-0.096-0.249-0.127-0.347-0.022-0.104 0.099-0.076 0.271 0.021 0.347zM21.955 3.815c0.059 0.020 0.179 0.034 0.287 0.035 0.11 0.002 0.21-0.006 0.229-0.053 0.018-0.047-0.038-0.127-0.111-0.209s-0.163-0.164-0.218-0.195c-0.054-0.031-0.121-0.038-0.184-0.021s-0.122 0.059-0.148 0.126c-0.012 0.027-0.019 0.059-0.019 0.092 0 0.037 0.008 0.071 0.023 0.102l-0.001-0.001c0.030 0.059 0.082 0.104 0.141 0.123zM22.119 4.609c0.103-0.038 0.191-0.082 0.191-0.133 0.002-0.050-0.078-0.104-0.177-0.154s-0.213-0.094-0.275-0.103c-0.122-0.020-0.261 0.075-0.272 0.218-0.001 0.143 0.125 0.251 0.249 0.243 0.062-0.003 0.181-0.033 0.284-0.071z"></path>
<path fill="#4217a6" d="M23.557 4.91c0.012-0.011 0.020-0.024 0.019-0.035 0.002-0.019-0.020-0.028-0.048-0.021-0.098 0.025-0.169 0.046-0.239 0.070l0.026-0.007c-0.090 0.029-0.159 0.054-0.226 0.082l0.019-0.007c-0.067 0.028-0.134 0.059-0.198 0.096s-0.124 0.079-0.177 0.138c-0.012 0.014-0.018 0.036-0.012 0.061 0.008 0.042 0.046 0.071 0.079 0.066 0.079-0.011 0.148-0.038 0.215-0.069 0.075-0.036 0.137-0.072 0.197-0.112l-0.006 0.004c0.071-0.046 0.129-0.088 0.186-0.132l-0.007 0.005c0.065-0.050 0.121-0.096 0.176-0.144l-0.004 0.003zM23.811 5.172c-0.047 0.051-0.095 0.106-0.141 0.162l-0.005 0.006c-0.042 0.050-0.085 0.107-0.127 0.165l-0.006 0.009c-0.038 0.054-0.076 0.115-0.11 0.179l-0.004 0.009c-0.033 0.066-0.062 0.134-0.075 0.212-0.003 0.018 0.005 0.040 0.023 0.058 0.030 0.030 0.077 0.036 0.102 0.013 0.061-0.052 0.104-0.112 0.144-0.174 0.034-0.054 0.069-0.118 0.099-0.184l0.004-0.010c0.023-0.048 0.050-0.115 0.076-0.184l0.006-0.020c0.018-0.045 0.041-0.115 0.063-0.185l0.006-0.025c0.005-0.016 0.004-0.030-0.002-0.040-0.009-0.017-0.032-0.012-0.052 0.009zM24.338 5.497c-0.022-0.096-0.041-0.168-0.062-0.238l0.006 0.025c-0.005-0.016-0.013-0.029-0.024-0.034-0.017-0.009-0.034 0.008-0.039 0.037-0.010 0.052-0.021 0.126-0.031 0.202l-0.002 0.017c-0.008 0.061-0.014 0.137-0.017 0.213l-0 0.006c-0.001 0.021-0.002 0.045-0.002 0.070 0 0.053 0.003 0.105 0.008 0.157l-0-0.007c0.008 0.073 0.020 0.149 0.051 0.22 0.007 0.017 0.026 0.031 0.050 0.035 0.041 0.008 0.084-0.012 0.093-0.043 0.023-0.076 0.027-0.151 0.027-0.225-0.001-0.078-0.008-0.154-0.020-0.228l0.001 0.009c-0.013-0.090-0.028-0.163-0.045-0.235l0.004 0.019zM25.125 5.609c-0.044-0.065-0.088-0.122-0.136-0.176l0.001 0.002c-0.050-0.057-0.099-0.108-0.151-0.158l-0.001-0.001c-0.051-0.050-0.104-0.099-0.159-0.146l-0.005-0.004c-0.012-0.011-0.027-0.017-0.038-0.015-0.019 0.002-0.023 0.027-0.012 0.053 0.037 0.090 0.068 0.156 0.1 0.221l-0.009-0.020c0.040 0.082 0.075 0.145 0.111 0.207l-0.007-0.013c0.041 0.069 0.082 0.129 0.126 0.185l-0.003-0.003c0.047 0.057 0.097 0.112 0.163 0.158 0.016 0.011 0.039 0.013 0.062 0.003 0.038-0.016 0.063-0.056 0.054-0.087-0.021-0.075-0.058-0.141-0.098-0.203zM25.562 4.943c-0.056-0.025-0.125-0.051-0.196-0.071l-0.011-0.003c-0.050-0.015-0.122-0.033-0.194-0.049l-0.019-0.003c-0.049-0.011-0.123-0.025-0.198-0.036l-0.021-0.003c-0.016-0.002-0.032 0-0.040 0.008-0.014 0.012-0.005 0.034 0.018 0.051 0.048 0.034 0.109 0.074 0.17 0.111l0.015 0.009c0.049 0.031 0.112 0.066 0.176 0.099l0.016 0.008c0.055 0.029 0.122 0.058 0.191 0.083l0.011 0.003c0.070 0.023 0.142 0.043 0.222 0.045 0.018 0 0.041-0.010 0.054-0.031 0.023-0.035 0.023-0.082-0.002-0.103-0.059-0.052-0.124-0.087-0.192-0.118zM25.794 4.142c-0.079-0.012-0.153-0.006-0.225 0.005s-0.144 0.029-0.214 0.050c-0.091 0.027-0.16 0.052-0.228 0.078l0.020-0.007c-0.093 0.035-0.16 0.064-0.227 0.095l0.022-0.009c-0.015 0.007-0.026 0.017-0.029 0.028-0.005 0.018 0.011 0.032 0.041 0.034 0.074 0.003 0.148 0.002 0.222 0.001 0.081-0.002 0.157-0.007 0.232-0.015l-0.013 0.001c0.082-0.008 0.156-0.021 0.227-0.039l-0.011 0.002c0.071-0.018 0.142-0.041 0.21-0.082 0.016-0.010 0.027-0.030 0.029-0.055 0.004-0.042-0.026-0.081-0.057-0.086zM24.772 4.032c0.078-0.047 0.14-0.086 0.2-0.128l-0.012 0.008c0.061-0.042 0.119-0.084 0.177-0.13 0.059-0.047 0.113-0.096 0.162-0.148l0.001-0.001c0.050-0.054 0.097-0.111 0.131-0.182 0.008-0.017 0.007-0.040-0.006-0.062-0.020-0.037-0.064-0.055-0.094-0.041-0.073 0.033-0.131 0.078-0.187 0.126s-0.105 0.101-0.151 0.155l-0.002 0.002c-0.043 0.051-0.088 0.107-0.131 0.165l-0.006 0.008c-0.037 0.049-0.078 0.108-0.117 0.169l-0.008 0.013c-0.009 0.014-0.012 0.028-0.009 0.039 0.004 0.019 0.027 0.021 0.052 0.006zM24.652 2.962c-0.002-0.018-0.016-0.037-0.039-0.049-0.037-0.020-0.084-0.013-0.102 0.015-0.043 0.067-0.068 0.137-0.089 0.208-0.017 0.060-0.032 0.132-0.043 0.207l-0.001 0.008c-0.009 0.059-0.016 0.135-0.021 0.211l-0 0.008c-0.004 0.063-0.006 0.136-0.006 0.21 0 0.004 0 0.007 0 0.011v-0.001c0 0.016 0.005 0.030 0.013 0.038 0.014 0.013 0.034 0.002 0.047-0.024 0.023-0.044 0.054-0.111 0.083-0.178l0.009-0.024c0.022-0.048 0.048-0.116 0.072-0.185l0.006-0.020c0.023-0.069 0.043-0.14 0.057-0.213s0.022-0.146 0.012-0.225zM23.911 3.378c-0.020-0.083-0.043-0.153-0.071-0.22l0.004 0.011c-0.029-0.068-0.061-0.135-0.112-0.197-0.012-0.015-0.033-0.022-0.059-0.020-0.042 0.005-0.077 0.036-0.077 0.068-0.001 0.078 0.017 0.152 0.037 0.223 0.026 0.081 0.053 0.149 0.084 0.215l-0.004-0.010c0.039 0.083 0.072 0.147 0.108 0.209l-0.007-0.014c0.046 0.082 0.084 0.144 0.123 0.205l-0.009-0.015c0.009 0.014 0.021 0.024 0.032 0.026 0.018 0.003 0.029-0.018 0.026-0.047-0.010-0.091-0.021-0.166-0.034-0.239l0.003 0.021c-0.015-0.091-0.031-0.164-0.049-0.235l0.004 0.020zM23.028 3.758c0.056 0.048 0.116 0.090 0.178 0.13 0.049 0.032 0.111 0.068 0.174 0.103l0.015 0.008c0.064 0.034 0.13 0.067 0.199 0.099 0.015 0.007 0.030 0.009 0.041 0.004 0.017-0.007 0.014-0.032-0.003-0.054-0.050-0.062-0.097-0.117-0.146-0.17l0.002 0.002c-0.050-0.055-0.101-0.106-0.153-0.155l-0.001-0.001c-0.053-0.050-0.109-0.097-0.169-0.14s-0.124-0.081-0.2-0.106c-0.018-0.006-0.041-0.002-0.060 0.015-0.032 0.026-0.045 0.072-0.028 0.099 0.041 0.067 0.095 0.119 0.151 0.167zM23.015 4.533c0.079-0.001 0.155-0.004 0.231-0.011l-0.011 0.001c0.090-0.007 0.165-0.016 0.241-0.027l-0.019 0.002c0.016-0.003 0.030-0.009 0.036-0.019 0.009-0.016-0.004-0.035-0.031-0.044-0.045-0.016-0.116-0.038-0.188-0.057l-0.024-0.006c-0.051-0.015-0.123-0.031-0.197-0.045l-0.018-0.003c-0.063-0.013-0.138-0.022-0.214-0.025l-0.004-0c-0.074-0.002-0.148-0-0.225 0.020-0.018 0.005-0.035 0.021-0.044 0.045-0.012 0.040 0.002 0.085 0.032 0.098 0.072 0.033 0.144 0.048 0.217 0.059s0.146 0.013 0.219 0.013z"></path>
<path fill="#fd8a02" d="M23.838 4.552c0 0.198 0.161 0.359 0.359 0.359s0.359-0.161 0.359-0.359v0c0-0.198-0.161-0.359-0.359-0.359s-0.359 0.161-0.359 0.359v0z"></path>
<path fill="#fc09b2" d="M24.48 25.103c-0.015-0.048-0.113-0.068-0.224-0.079-0.108-0.011-0.229-0.012-0.29 0.002s-0.117 0.053-0.152 0.109c-0.021 0.035-0.033 0.077-0.033 0.121 0 0.025 0.004 0.050 0.011 0.073l-0-0.002c0.019 0.068 0.075 0.116 0.135 0.139s0.128 0.023 0.185-0.003c0.057-0.025 0.156-0.096 0.238-0.168s0.144-0.143 0.131-0.192zM24.584 25.719c-0.105 0.029-0.219 0.073-0.27 0.108-0.103 0.067-0.149 0.236-0.054 0.344 0.088 0.113 0.263 0.1 0.348 0.011 0.044-0.044 0.11-0.146 0.16-0.242 0.048-0.095 0.085-0.189 0.053-0.228s-0.134-0.020-0.237 0.007zM25.265 26.171c-0.037 0.017-0.081 0.045-0.125 0.077-0.088 0.065-0.178 0.147-0.214 0.198s-0.050 0.117-0.038 0.181c0.011 0.065 0.048 0.127 0.111 0.159 0.062 0.033 0.132 0.038 0.193 0.014s0.111-0.072 0.136-0.129c0.025-0.057 0.050-0.175 0.062-0.282s0.013-0.209-0.032-0.233c-0.022-0.012-0.055-0.004-0.093 0.014zM26.019 26.38c-0.050-0.004-0.11 0.068-0.17 0.163-0.058 0.093-0.113 0.203-0.128 0.264-0.032 0.119 0.050 0.269 0.192 0.291 0.143 0.015 0.262-0.098 0.265-0.226 0.003-0.062-0.017-0.18-0.045-0.288s-0.064-0.199-0.114-0.203zM26.896 26.495c-0.065-0.090-0.129-0.155-0.179-0.148-0.049 0.010-0.078 0.105-0.1 0.215s-0.033 0.227-0.025 0.29c0.008 0.061 0.043 0.123 0.094 0.161s0.12 0.056 0.189 0.041c0.070-0.012 0.122-0.066 0.151-0.122 0.029-0.058 0.034-0.125 0.014-0.184s-0.081-0.164-0.145-0.253zM27.576 26.138c-0.091-0.056-0.179-0.101-0.222-0.074s-0.032 0.132-0.015 0.237c0.019 0.107 0.052 0.224 0.082 0.279 0.057 0.11 0.221 0.169 0.338 0.085 0.122-0.077 0.123-0.253 0.043-0.345-0.040-0.048-0.135-0.123-0.226-0.182zM28.357 25.647c-0.055-0.030-0.17-0.066-0.276-0.088-0.105-0.020-0.207-0.032-0.234 0.010-0.014 0.021-0.010 0.054 0.005 0.094 0.014 0.039 0.037 0.084 0.066 0.131 0.057 0.093 0.13 0.191 0.178 0.231s0.112 0.060 0.177 0.055c0.035-0.003 0.068-0.013 0.097-0.028l-0.001 0.001c0.029-0.018 0.054-0.041 0.073-0.068l0.001-0.001c0.039-0.059 0.051-0.128 0.031-0.191s-0.061-0.117-0.115-0.147zM28.633 24.819c-0.063-0.009-0.18 0-0.289 0.018s-0.204 0.045-0.214 0.095c-0.007 0.050 0.058 0.116 0.147 0.184 0.087 0.067 0.192 0.131 0.25 0.152 0.115 0.042 0.274-0.024 0.307-0.164 0.003-0.015 0.005-0.031 0.005-0.049 0-0.053-0.017-0.102-0.046-0.142l0 0.001c-0.037-0.052-0.099-0.087-0.16-0.095zM28.325 24.069c-0.095 0.057-0.168 0.115-0.163 0.165s0.097 0.088 0.203 0.12c0.108 0.031 0.226 0.053 0.288 0.051 0.128-0.003 0.241-0.121 0.227-0.264-0.021-0.142-0.171-0.224-0.29-0.193-0.061 0.015-0.171 0.066-0.265 0.121zM27.953 23.482c-0.019 0.038-0.027 0.070-0.015 0.092 0.023 0.045 0.127 0.044 0.235 0.036s0.228-0.031 0.285-0.056c0.116-0.047 0.189-0.204 0.116-0.328-0.017-0.030-0.039-0.056-0.066-0.076l-0.001-0c-0.026-0.017-0.057-0.030-0.090-0.036l-0.002-0c-0.064-0.012-0.131 0.002-0.182 0.037s-0.135 0.123-0.202 0.209c-0.033 0.043-0.062 0.085-0.079 0.122zM27.723 22.988c0.098-0.048 0.202-0.112 0.246-0.156s0.070-0.106 0.071-0.172c0-0.002 0-0.005 0-0.008 0-0.068-0.031-0.128-0.080-0.168l-0-0c-0.108-0.094-0.276-0.051-0.344 0.053-0.035 0.052-0.082 0.163-0.113 0.267-0.029 0.102-0.051 0.203-0.011 0.234s0.134-0.004 0.232-0.050zM27.119 22.012c-0.021-0.007-0.046-0.011-0.071-0.011-0.045 0-0.086 0.012-0.122 0.034l0.001-0.001c-0.055 0.034-0.096 0.091-0.11 0.151s-0.017 0.181-0.009 0.289c0.008 0.111 0.026 0.208 0.074 0.223 0.049 0.012 0.122-0.049 0.197-0.129s0.148-0.178 0.174-0.235 0.027-0.124 0.004-0.185c-0.023-0.060-0.070-0.117-0.139-0.136zM26.164 21.876c-0.143 0.011-0.239 0.149-0.219 0.271 0.009 0.062 0.050 0.177 0.096 0.276s0.099 0.181 0.149 0.177c0.051 0.001 0.097-0.087 0.138-0.19s0.074-0.222 0.077-0.284c0.009-0.124-0.099-0.25-0.242-0.25zM25.419 22.101c-0.058-0.029-0.128-0.032-0.194-0.005-0.066 0.026-0.109 0.084-0.126 0.147s-0.010 0.13 0.020 0.184c0.031 0.054 0.11 0.146 0.189 0.221s0.157 0.131 0.204 0.113c0.047-0.019 0.057-0.12 0.058-0.231 0.001-0.108-0.010-0.229-0.029-0.288s-0.064-0.111-0.123-0.141zM24.45 22.988c0.048 0.040 0.155 0.096 0.255 0.137 0.099 0.039 0.197 0.068 0.232 0.032s0.008-0.134-0.029-0.235c-0.038-0.102-0.093-0.211-0.132-0.259-0.076-0.096-0.249-0.127-0.347-0.022-0.104 0.099-0.076 0.271 0.021 0.348zM24.028 23.751c0.059 0.020 0.179 0.034 0.286 0.035 0.11 0.002 0.21-0.006 0.229-0.053 0.017-0.047-0.038-0.127-0.111-0.209s-0.163-0.164-0.218-0.195c-0.054-0.031-0.121-0.038-0.184-0.021s-0.122 0.059-0.148 0.125c-0.012 0.027-0.019 0.059-0.019 0.093 0 0.037 0.008 0.071 0.023 0.102l-0.001-0.001c0.030 0.059 0.082 0.104 0.141 0.123zM24.192 24.544c0.103-0.038 0.191-0.082 0.191-0.133 0.002-0.050-0.078-0.104-0.177-0.154s-0.213-0.094-0.275-0.103c-0.122-0.020-0.261 0.075-0.272 0.218-0.001 0.143 0.125 0.251 0.249 0.243 0.062-0.003 0.181-0.033 0.284-0.071z"></path>
<path fill="#4217a6" d="M25.629 24.846c0.012-0.011 0.020-0.024 0.019-0.035 0.002-0.019-0.020-0.028-0.048-0.021-0.072 0.018-0.143 0.040-0.214 0.063-0.090 0.029-0.159 0.054-0.226 0.082l0.019-0.007c-0.067 0.028-0.134 0.059-0.198 0.096s-0.124 0.079-0.177 0.138c-0.012 0.014-0.018 0.036-0.012 0.061 0.008 0.042 0.046 0.071 0.079 0.066 0.079-0.011 0.148-0.038 0.215-0.069 0.075-0.036 0.137-0.072 0.197-0.112l-0.006 0.004c0.071-0.047 0.129-0.088 0.186-0.132l-0.007 0.005c0.066-0.050 0.121-0.096 0.176-0.144l-0.004 0.004zM25.883 25.108c-0.047 0.051-0.095 0.106-0.141 0.162l-0.005 0.006c-0.042 0.050-0.085 0.107-0.127 0.166l-0.006 0.009c-0.042 0.060-0.081 0.122-0.115 0.188s-0.062 0.134-0.075 0.212c-0.003 0.018 0.005 0.040 0.023 0.058 0.030 0.030 0.077 0.036 0.102 0.014 0.061-0.052 0.104-0.112 0.144-0.174 0.034-0.054 0.069-0.118 0.099-0.184l0.004-0.010c0.023-0.048 0.050-0.115 0.076-0.184l0.006-0.020c0.018-0.045 0.041-0.115 0.063-0.185l0.006-0.025c0.005-0.016 0.004-0.030-0.002-0.040-0.009-0.017-0.032-0.012-0.052 0.009zM26.411 25.433c-0.022-0.096-0.041-0.168-0.062-0.238l0.006 0.025c-0.005-0.016-0.013-0.029-0.024-0.034-0.017-0.009-0.034 0.008-0.039 0.037-0.010 0.052-0.021 0.126-0.031 0.202l-0.002 0.017c-0.008 0.061-0.014 0.137-0.017 0.213l-0 0.006c-0.001 0.021-0.002 0.045-0.002 0.070 0 0.053 0.003 0.105 0.008 0.157l-0-0.007c0.008 0.073 0.020 0.149 0.051 0.22 0.007 0.017 0.026 0.031 0.050 0.035 0.041 0.008 0.084-0.012 0.093-0.043 0.023-0.076 0.027-0.151 0.027-0.225-0.001-0.078-0.008-0.154-0.020-0.228l0.001 0.009c-0.014-0.090-0.028-0.163-0.045-0.235l0.004 0.019zM27.197 25.544c-0.044-0.065-0.088-0.122-0.136-0.176l0.001 0.002c-0.050-0.057-0.099-0.108-0.151-0.158l-0.001-0.001c-0.051-0.050-0.104-0.099-0.159-0.146l-0.005-0.004c-0.012-0.011-0.027-0.017-0.038-0.015-0.019 0.002-0.023 0.027-0.013 0.053 0.037 0.090 0.068 0.156 0.1 0.221l-0.009-0.020c0.040 0.081 0.074 0.145 0.111 0.207l-0.007-0.013c0.041 0.069 0.082 0.129 0.126 0.185l-0.003-0.003c0.047 0.057 0.097 0.113 0.163 0.158 0.016 0.011 0.039 0.013 0.062 0.003 0.038-0.016 0.063-0.056 0.054-0.087-0.021-0.075-0.058-0.141-0.099-0.203zM27.634 24.878c-0.056-0.025-0.125-0.051-0.196-0.071l-0.012-0.003c-0.050-0.015-0.122-0.033-0.194-0.049l-0.019-0.003c-0.049-0.011-0.123-0.025-0.198-0.036l-0.021-0.003c-0.016-0.002-0.032 0-0.040 0.008-0.014 0.012-0.005 0.034 0.018 0.051 0.048 0.034 0.108 0.074 0.17 0.111l0.015 0.009c0.049 0.031 0.112 0.066 0.176 0.099l0.016 0.008c0.055 0.029 0.122 0.058 0.191 0.083l0.011 0.003c0.070 0.023 0.142 0.043 0.222 0.045 0.018 0 0.041-0.010 0.054-0.031 0.023-0.035 0.023-0.082-0.002-0.103-0.059-0.052-0.124-0.087-0.192-0.117zM27.866 24.078c-0.079-0.012-0.153-0.006-0.225 0.005s-0.144 0.029-0.214 0.049c-0.091 0.027-0.16 0.052-0.228 0.078l0.020-0.007c-0.093 0.035-0.16 0.064-0.227 0.095l0.022-0.009c-0.015 0.007-0.026 0.017-0.029 0.028-0.005 0.018 0.011 0.032 0.041 0.034 0.036 0.001 0.079 0.002 0.122 0.002 0.035 0 0.070-0.001 0.105-0.002l-0.005 0c0.081-0.002 0.157-0.007 0.232-0.015l-0.013 0.001c0.082-0.008 0.156-0.021 0.227-0.039l-0.011 0.002c0.071-0.018 0.142-0.041 0.21-0.082 0.016-0.010 0.027-0.030 0.029-0.055 0.004-0.042-0.026-0.081-0.057-0.086zM26.845 23.967c0.078-0.047 0.139-0.086 0.199-0.128l-0.012 0.008c0.061-0.042 0.12-0.084 0.177-0.13 0.059-0.047 0.113-0.096 0.162-0.148l0.001-0.001c0.050-0.054 0.097-0.111 0.131-0.182 0.008-0.017 0.007-0.040-0.006-0.062-0.020-0.037-0.064-0.055-0.094-0.041-0.073 0.033-0.131 0.078-0.187 0.126-0.055 0.049-0.105 0.101-0.151 0.155l-0.002 0.002c-0.043 0.051-0.088 0.107-0.131 0.165l-0.006 0.008c-0.036 0.049-0.078 0.108-0.117 0.169l-0.008 0.014c-0.009 0.014-0.012 0.028-0.009 0.039 0.004 0.019 0.027 0.021 0.052 0.006zM26.725 22.897c-0.002-0.018-0.016-0.037-0.039-0.049-0.037-0.020-0.084-0.013-0.102 0.015-0.044 0.067-0.068 0.137-0.089 0.208-0.017 0.060-0.032 0.132-0.043 0.207l-0.001 0.008c-0.009 0.059-0.016 0.135-0.021 0.211l-0 0.008c-0.004 0.063-0.006 0.136-0.006 0.21 0 0.004 0 0.007 0 0.011v-0.001c0 0.016 0.005 0.030 0.013 0.038 0.014 0.013 0.034 0.002 0.047-0.024 0.023-0.044 0.054-0.11 0.083-0.178l0.009-0.024c0.022-0.048 0.048-0.116 0.072-0.185l0.006-0.020c0.023-0.069 0.043-0.14 0.057-0.213s0.022-0.146 0.012-0.225zM25.984 23.313c-0.021-0.083-0.043-0.153-0.071-0.22l0.004 0.011c-0.029-0.068-0.061-0.135-0.112-0.198-0.012-0.015-0.033-0.022-0.059-0.020-0.042 0.005-0.077 0.036-0.077 0.068-0.001 0.078 0.017 0.152 0.037 0.223 0.026 0.081 0.053 0.149 0.084 0.215l-0.004-0.010c0.039 0.083 0.072 0.147 0.108 0.209l-0.008-0.014c0.046 0.082 0.084 0.144 0.123 0.205l-0.009-0.015c0.009 0.014 0.021 0.024 0.032 0.026 0.018 0.003 0.029-0.018 0.026-0.047-0.010-0.091-0.021-0.166-0.034-0.239l0.003 0.021c-0.015-0.091-0.031-0.164-0.049-0.235l0.004 0.020zM25.1 23.693c0.056 0.048 0.116 0.090 0.178 0.13 0.049 0.032 0.111 0.068 0.174 0.103l0.015 0.008c0.064 0.034 0.13 0.067 0.199 0.099 0.015 0.007 0.030 0.009 0.041 0.004 0.017-0.007 0.014-0.032-0.003-0.054-0.050-0.062-0.097-0.117-0.146-0.17l0.002 0.002c-0.050-0.055-0.101-0.106-0.153-0.155l-0.001-0.001c-0.051-0.049-0.107-0.094-0.165-0.137l-0.005-0.003c-0.061-0.042-0.124-0.081-0.2-0.106-0.018-0.006-0.041-0.002-0.060 0.015-0.032 0.026-0.045 0.072-0.028 0.099 0.041 0.066 0.095 0.118 0.151 0.167zM25.088 24.468c0.079-0.001 0.155-0.004 0.231-0.011l-0.011 0.001c0.089-0.007 0.165-0.016 0.24-0.027l-0.019 0.002c0.016-0.003 0.030-0.009 0.036-0.019 0.009-0.016-0.004-0.035-0.031-0.044-0.045-0.016-0.116-0.038-0.188-0.057l-0.025-0.006c-0.051-0.015-0.123-0.031-0.196-0.045l-0.018-0.003c-0.063-0.012-0.138-0.022-0.214-0.025l-0.004-0c-0.074-0.002-0.148-0-0.225 0.020-0.018 0.005-0.035 0.021-0.044 0.045-0.012 0.040 0.002 0.084 0.032 0.098 0.072 0.033 0.144 0.048 0.217 0.059s0.146 0.013 0.219 0.013z"></path>
<path fill="#fd8a02" d="M26.629 24.487c0 0.198-0.161 0.359-0.359 0.359s-0.359-0.161-0.359-0.359c0-0.198 0.161-0.359 0.359-0.359s0.359 0.161 0.359 0.359z"></path>
<path fill="#fd8a02" d="M27.951 9.819c-0.24 0-0.434 0.194-0.434 0.434s0.194 0.434 0.434 0.434v0c0.24 0 0.434-0.194 0.434-0.434s-0.194-0.434-0.434-0.434v0zM17.794 0c-0.24 0-0.434 0.194-0.434 0.434s0.194 0.434 0.434 0.434v0c0.24-0 0.434-0.194 0.434-0.434s-0.194-0.434-0.434-0.434c0 0-0 0-0 0v0zM6.587 14.691c-0.24 0-0.434 0.194-0.434 0.434s0.194 0.434 0.434 0.434v0c0.24 0 0.434-0.194 0.434-0.434s-0.194-0.434-0.434-0.434v0z"></path>
<path fill="#fd8a02" d="M27.021 29.912c0 0.24-0.194 0.434-0.434 0.434s-0.434-0.194-0.434-0.434c0-0.24 0.194-0.434 0.434-0.434s0.434 0.194 0.434 0.434z"></path>
<path fill="#fd8a02" d="M10.793 24.44c-0.002-0-0.003-0-0.005-0-0.24 0-0.434 0.194-0.434 0.434s0.194 0.434 0.434 0.434c0.002 0 0.004 0 0.005-0h-0c0.237-0.003 0.429-0.196 0.429-0.434s-0.191-0.431-0.428-0.434h-0z"></path>
</svg>
