<!-- Generated by IcoMoon.io -->
<svg version="1.1" xmlns="http://www.w3.org/2000/svg" width="32" height="32" viewBox="0 0 32 32">
<title>phone</title>
<path d="M27.312 4.685c-6.249-6.247-16.38-6.246-22.627 0.003s-6.246 16.38 0.003 22.627 16.38 6.246 22.627-0.003c2.894-2.895 4.685-6.895 4.685-11.312 0-4.419-1.792-8.42-4.688-11.315l-0-0zM24.231 22.288l-0.002 0.002v-0.005l-0.811 0.805c-0.774 0.783-1.848 1.269-3.036 1.269-0.352 0-0.693-0.043-1.020-0.123l0.029 0.006c-1.565-0.426-2.935-1.058-4.17-1.878l0.052 0.033c-1.223-0.788-2.287-1.652-3.247-2.618l-0.001-0.001c-0.885-0.878-1.683-1.841-2.384-2.876l-0.043-0.068c-0.732-1.062-1.35-2.283-1.793-3.586l-0.031-0.105c-0.132-0.393-0.208-0.845-0.208-1.316 0-1.191 0.488-2.267 1.274-3.041l0.95-0.95c0.264-0.265 0.693-0.266 0.958-0.002l2.999 2.999c0.265 0.264 0.266 0.693 0.002 0.958l-1.762 1.762c-0.505 0.499-0.569 1.293-0.149 1.867 0.667 0.91 1.358 1.713 2.106 2.458l0.001 0.001c0.835 0.838 1.741 1.604 2.709 2.288l0.064 0.043c0.573 0.4 1.35 0.332 1.845-0.16l1.701-1.728c0.264-0.265 0.693-0.266 0.958-0.002l0.002 0.002 3.003 3.008c0.265 0.264 0.266 0.693 0.002 0.958z"></path>
</svg>
