<!-- Generated by IcoMoon.io -->
<svg version="1.1" xmlns="http://www.w3.org/2000/svg" width="32" height="32" viewBox="0 0 32 32">
<title>pinterest</title>
<path fill="#e60023" d="M29.335 16.001c0 7.364-5.97 13.334-13.334 13.334s-13.334-5.97-13.334-13.334c0-7.364 5.97-13.334 13.334-13.334s13.334 5.97 13.334 13.334z"></path>
<path fill="#fff" d="M16.297 7.611c-5.755 0-8.811 3.864-8.811 8.069 0 1.956 1.041 4.391 2.707 5.166 0.252 0.117 0.387 0.067 0.445-0.178 0.045-0.186 0.269-1.091 0.37-1.513 0.033-0.134 0.017-0.249-0.092-0.382-0.551-0.669-0.993-1.897-0.993-3.043 0-2.941 2.227-5.787 6.020-5.787 3.276 0 5.569 2.232 5.569 5.425 0 3.607-1.821 6.106-4.191 6.106-1.309 0-2.289-1.083-1.975-2.41 0.377-1.585 1.105-3.295 1.105-4.44 0-1.023-0.549-1.878-1.687-1.878-1.338 0-2.412 1.384-2.412 3.238 0 1.18 0.399 1.979 0.399 1.979s-1.321 5.588-1.563 6.628c-0.268 1.148-0.164 2.761-0.048 3.816 0.301 0.118 0.602 0.236 0.913 0.333 0.545-0.885 1.357-2.337 1.657-3.496 0.163-0.624 0.831-3.17 0.831-3.17 0.435 0.829 1.704 1.531 3.055 1.531 4.022 0 6.92-3.698 6.92-8.294 0-4.406-3.595-7.702-8.221-7.702z"></path>
</svg>
