<svg aria-hidden="true" style="position: absolute; width: 0; height: 0; overflow: hidden;" version="1.1" xmlns="http://www.w3.org/2000/svg" xmlns:xlink="http://www.w3.org/1999/xlink">
<defs>
<symbol id="icon-cross" viewBox="0 0 32 32">
<path d="M22.715 22c0.091 0.091 0.148 0.216 0.148 0.355 0 0.275-0.223 0.499-0.498 0.5h-0c-0.139-0.001-0.265-0.058-0.355-0.15l-6-6-6 6c-0.090 0.092-0.216 0.149-0.355 0.15h-0c-0.275-0.001-0.498-0.225-0.498-0.5 0-0.139 0.057-0.264 0.148-0.355l6-6-6-6c-0.11-0.092-0.18-0.23-0.18-0.384 0-0.276 0.224-0.5 0.5-0.5 0.149 0 0.283 0.065 0.374 0.168l0 0.001 6 6 6-6c0.091-0.091 0.218-0.148 0.358-0.148 0.279 0 0.506 0.226 0.506 0.506 0 0.14-0.057 0.266-0.148 0.357l-6 6z"></path>
</symbol>
<symbol id="icon-menu" viewBox="0 0 32 32">
<path d="M9.5 12c0-0.276 0.224-0.5 0.5-0.5v0h12c0.276 0 0.5 0.224 0.5 0.5s-0.224 0.5-0.5 0.5v0h-12c-0.276 0-0.5-0.224-0.5-0.5v0zM22 15.5h-12c-0.276 0-0.5 0.224-0.5 0.5s0.224 0.5 0.5 0.5v0h12c0.276 0 0.5-0.224 0.5-0.5s-0.224-0.5-0.5-0.5v0zM22 19.5h-12c-0.276 0-0.5 0.224-0.5 0.5s0.224 0.5 0.5 0.5v0h12c0.276 0 0.5-0.224 0.5-0.5s-0.224-0.5-0.5-0.5v0z"></path>
</symbol>
</defs>
</svg>
