<svg aria-hidden="true" style="position: absolute; width: 0; height: 0; overflow: hidden;" version="1.1" xmlns="http://www.w3.org/2000/svg" xmlns:xlink="http://www.w3.org/1999/xlink">
<defs>
<symbol id="icon-envelope" viewBox="0 0 32 32">
<path d="M3.071 11.179c0.405 0.286 1.625 1.134 3.661 2.545s3.595 2.497 4.679 3.259c0.119 0.084 0.372 0.265 0.759 0.545s0.708 0.506 0.964 0.679c0.256 0.172 0.565 0.366 0.929 0.58s0.705 0.375 1.027 0.482c0.322 0.107 0.619 0.161 0.893 0.161h0.036c0.274 0 0.572-0.053 0.893-0.161s0.664-0.268 1.027-0.482c0.363-0.214 0.672-0.408 0.928-0.58s0.577-0.399 0.964-0.679c0.387-0.28 0.64-0.461 0.759-0.545 1.095-0.762 3.881-2.696 8.357-5.804 0.869-0.607 1.595-1.339 2.178-2.196s0.875-1.756 0.875-2.696c0-0.786-0.283-1.459-0.848-2.018s-1.235-0.839-2.009-0.839h-26.286c-0.917 0-1.622 0.309-2.116 0.928s-0.741 1.393-0.741 2.321c0 0.75 0.328 1.563 0.982 2.438s1.351 1.563 2.089 2.063z"></path>
<path d="M30.214 13.089c-3.904 2.643-6.869 4.696-8.893 6.161-0.679 0.5-1.229 0.89-1.652 1.17s-0.985 0.565-1.688 0.857c-0.702 0.292-1.357 0.438-1.964 0.438h-0.036c-0.607 0-1.262-0.146-1.964-0.438s-1.265-0.577-1.688-0.857c-0.422-0.28-0.973-0.67-1.652-1.17-1.607-1.178-4.566-3.232-8.875-6.161-0.679-0.452-1.28-0.97-1.804-1.554v14.178c0 0.786 0.28 1.459 0.839 2.018s1.232 0.84 2.018 0.84h26.286c0.786 0 1.458-0.28 2.018-0.84s0.839-1.232 0.839-2.018v-14.178c-0.512 0.571-1.107 1.089-1.786 1.554z"></path>
</symbol>
<symbol id="icon-map" viewBox="0 0 32 32">
<path d="M23.542 3.125c-2.083-2.084-4.597-3.125-7.542-3.125s-5.459 1.042-7.542 3.125c-2.083 2.083-3.125 4.597-3.125 7.542 0 1.514 0.229 2.757 0.687 3.729l7.604 16.126c0.208 0.458 0.531 0.819 0.969 1.083s0.906 0.396 1.406 0.396c0.5 0 0.969-0.132 1.406-0.396s0.767-0.625 0.989-1.083l7.583-16.126c0.458-0.972 0.688-2.215 0.688-3.729 0-2.945-1.041-5.458-3.125-7.542zM19.771 14.438c-1.042 1.041-2.298 1.562-3.771 1.562s-2.729-0.521-3.771-1.562c-1.042-1.042-1.563-2.299-1.563-3.771s0.521-2.729 1.563-3.771c1.042-1.042 2.299-1.563 3.771-1.563s2.729 0.521 3.771 1.563c1.042 1.041 1.563 2.299 1.563 3.771s-0.521 2.729-1.563 3.771z"></path>
</symbol>
<symbol id="icon-phone" viewBox="0 0 32 32">
<path d="M27.312 4.685c-6.249-6.247-16.38-6.246-22.627 0.003s-6.246 16.38 0.003 22.627 16.38 6.246 22.627-0.003c2.894-2.895 4.685-6.895 4.685-11.312 0-4.419-1.792-8.42-4.688-11.315l-0-0zM24.231 22.288l-0.002 0.002v-0.005l-0.811 0.805c-0.774 0.783-1.848 1.269-3.036 1.269-0.352 0-0.693-0.043-1.020-0.123l0.029 0.006c-1.565-0.426-2.935-1.058-4.17-1.878l0.052 0.033c-1.223-0.788-2.287-1.652-3.247-2.618l-0.001-0.001c-0.885-0.878-1.683-1.841-2.384-2.876l-0.043-0.068c-0.732-1.062-1.35-2.283-1.793-3.586l-0.031-0.105c-0.132-0.393-0.208-0.845-0.208-1.316 0-1.191 0.488-2.267 1.274-3.041l0.95-0.95c0.264-0.265 0.693-0.266 0.958-0.002l2.999 2.999c0.265 0.264 0.266 0.693 0.002 0.958l-1.762 1.762c-0.505 0.499-0.569 1.293-0.149 1.867 0.667 0.91 1.358 1.713 2.106 2.458l0.001 0.001c0.835 0.838 1.741 1.604 2.709 2.288l0.064 0.043c0.573 0.4 1.35 0.332 1.845-0.16l1.701-1.728c0.264-0.265 0.693-0.266 0.958-0.002l0.002 0.002 3.003 3.008c0.265 0.264 0.266 0.693 0.002 0.958z"></path>
</symbol>
</defs>
</svg>
