<!-- Generated by IcoMoon.io -->
<svg version="1.1" xmlns="http://www.w3.org/2000/svg" width="32" height="32" viewBox="0 0 32 32">
<title>twitter</title>
<path fill="#03a9f4" d="M16.001 2.667c-7.364 0-13.334 5.97-13.334 13.334s5.97 13.334 13.334 13.334v0c7.364 0 13.334-5.97 13.334-13.334s-5.97-13.334-13.334-13.334v0z"></path>
<path fill="#fff" d="M24.001 11.414c-0.588 0.261-1.333 0.505-2 0.587 0.679-0.403 1.755-1.241 2-2-0.634 0.373-1.781 0.771-2.529 0.915-0.597-0.633-1.449-0.915-2.393-0.915-1.813 0-3.078 1.537-3.078 3.334v1.333c-2.667 0-5.267-2.031-6.885-4-0.279 0.466-0.445 1.029-0.445 1.63 0 0.003 0 0.006 0 0.009v-0c0 1.213 1.114 2.443 1.996 3.029-0.538-0.017-1.557-0.427-2-0.667v0.038c0 1.578 1.107 2.65 2.608 2.948-0.274 0.075-0.608 0.347-1.893 0.347 0.417 1.29 2.515 1.972 3.952 2-1.124 0.871-3.128 1.333-4.667 1.333-0.266 0-0.41 0.015-0.667-0.015 1.452 0.92 3.48 1.349 5.334 1.349 6.038 0 9.334-4.612 9.334-8.914 0-0.141-0.005-0.615-0.012-0.753 0.645-0.455 0.907-0.931 1.345-1.587z"></path>
</svg>
